M48
; DRILL file KiCad 10.0.4 date 2026-08-21T10:20:15
; FORMAT={-:-/ absolute / metric / decimal}
; #@! TF.CreationDate,2026-08-21T10:20:15+05:30
; #@! TF.GenerationSoftware,Kicad,Pcbnew,10.0.4
; #@! TF.FileFunction,MixedPlating,1,2
FMAT,2
METRIC
; #@! TA.AperFunction,Plated,PTH,ComponentDrill
T1C1.000
%
G90
G05
T1
X126.335Y-64.355
X126.335Y-66.895
X126.335Y-69.435
X126.335Y-71.975
X126.335Y-74.515
X126.335Y-77.055
X126.335Y-79.595
X126.335Y-82.135
X126.335Y-84.675
X126.335Y-87.215
X126.335Y-89.755
X126.335Y-92.295
X126.335Y-94.835
X126.335Y-97.375
X126.335Y-99.915
X154.275Y-64.355
X154.275Y-66.895
X154.275Y-69.435
X154.275Y-71.975
X154.275Y-74.515
X154.275Y-77.055
X154.275Y-79.595
X154.275Y-82.135
X154.275Y-84.675
X154.275Y-87.215
X154.275Y-89.755
X154.275Y-92.295
X154.275Y-94.835
X154.275Y-97.375
X154.275Y-99.915
X162.0Y-64.63
X162.0Y-67.17
X162.0Y-69.71
X162.0Y-72.25
X162.0Y-74.79
X162.0Y-77.33
X162.0Y-79.87
X162.0Y-82.41
M30
