%TF.GenerationSoftware,KiCad,Pcbnew,10.0.4*%
%TF.CreationDate,2026-08-21T10:20:11+05:30*%
%TF.ProjectId,RoadSense esp32,526f6164-5365-46e7-9365-206573703332,rev?*%
%TF.SameCoordinates,Original*%
%TF.FileFunction,Legend,Top*%
%TF.FilePolarity,Positive*%
%FSLAX46Y46*%
G04 Gerber Fmt 4.6, Leading zero omitted, Abs format (unit mm)*
G04 Created by KiCad (PCBNEW 10.0.4) date 2026-08-21 10:20:11*
%MOMM*%
%LPD*%
G01*
G04 APERTURE LIST*
%ADD10C,0.375000*%
%ADD11C,0.300000*%
%ADD12C,0.100000*%
%ADD13C,0.150000*%
%ADD14C,0.010000*%
%ADD15C,0.120000*%
G04 APERTURE END LIST*
D10*
G36*
X161398935Y-56445925D02*
G01*
X161553865Y-56470230D01*
X161665160Y-56505174D01*
X161764986Y-56561333D01*
X161850642Y-56640541D01*
X161923447Y-56746058D01*
X161976291Y-56864159D01*
X162007983Y-56988430D01*
X162018702Y-57120666D01*
X162003418Y-57290999D01*
X161960961Y-57428089D01*
X161894057Y-57538755D01*
X161802100Y-57627682D01*
X161681242Y-57696896D01*
X161524842Y-57745500D01*
X161524842Y-57753743D01*
X161704512Y-57814712D01*
X161846453Y-57899582D01*
X161957152Y-58007817D01*
X162039101Y-58139138D01*
X162089294Y-58290437D01*
X162106812Y-58466871D01*
X162091560Y-58631413D01*
X162048219Y-58770659D01*
X161978295Y-58889564D01*
X161880399Y-58991505D01*
X161764202Y-59067283D01*
X161612157Y-59126256D01*
X161415598Y-59165501D01*
X161164157Y-59180000D01*
X158854596Y-59180000D01*
X158854596Y-59086210D01*
X159202826Y-59086210D01*
X160399738Y-59086210D01*
X160584202Y-59086210D01*
X160724940Y-59071822D01*
X160792114Y-59039316D01*
X160828367Y-58975577D01*
X160844504Y-58834884D01*
X160844504Y-58107102D01*
X160828157Y-57957173D01*
X160792114Y-57891496D01*
X160722926Y-57858549D01*
X160567716Y-57843503D01*
X160399738Y-57843503D01*
X160399738Y-59086210D01*
X159202826Y-59086210D01*
X159202826Y-57749713D01*
X160399738Y-57749713D01*
X160584202Y-57749713D01*
X160721754Y-57731864D01*
X160791198Y-57689446D01*
X160828456Y-57613467D01*
X160844504Y-57463400D01*
X160844504Y-56894619D01*
X160827879Y-56690388D01*
X160792114Y-56600062D01*
X160751166Y-56564808D01*
X160683168Y-56540234D01*
X160575959Y-56530453D01*
X160399738Y-56530453D01*
X160399738Y-57749713D01*
X159202826Y-57749713D01*
X159202826Y-56530453D01*
X158854596Y-56530453D01*
X158854596Y-56436664D01*
X161188703Y-56436664D01*
X161398935Y-56445925D01*
G37*
G36*
X165911505Y-59180000D02*
G01*
X164206446Y-59180000D01*
X164206446Y-59086210D01*
X164407213Y-59086210D01*
X164407213Y-57796608D01*
X163925628Y-57796608D01*
X163925628Y-59086210D01*
X164138668Y-59086210D01*
X164138668Y-59180000D01*
X162405033Y-59180000D01*
X162405033Y-59086210D01*
X162728715Y-59086210D01*
X162728715Y-56530453D01*
X162405033Y-56530453D01*
X162405033Y-56436664D01*
X164138668Y-56436664D01*
X164138668Y-56530453D01*
X163925628Y-56530453D01*
X163925628Y-57702819D01*
X164407213Y-57702819D01*
X164407213Y-56530453D01*
X164206446Y-56530453D01*
X164206446Y-56436664D01*
X165911505Y-56436664D01*
X165911505Y-56530453D01*
X165583609Y-56530453D01*
X165583609Y-59086210D01*
X165911505Y-59086210D01*
X165911505Y-59180000D01*
G37*
G36*
X168915509Y-59180000D02*
G01*
X166175654Y-59180000D01*
X166175654Y-59086210D01*
X166489078Y-59086210D01*
X166489078Y-56530453D01*
X166175654Y-56530453D01*
X166175654Y-56436664D01*
X168827398Y-56436664D01*
X168827398Y-57304214D01*
X168735258Y-57304214D01*
X168714530Y-57163459D01*
X168666263Y-57028980D01*
X168588676Y-56898504D01*
X168478070Y-56770422D01*
X168350536Y-56671387D01*
X168189566Y-56596676D01*
X167987643Y-56548123D01*
X167735266Y-56530453D01*
X167685990Y-56530453D01*
X167685990Y-57726266D01*
X167770071Y-57726266D01*
X167888440Y-57710237D01*
X167998626Y-57661999D01*
X168104012Y-57577889D01*
X168180349Y-57468788D01*
X168231915Y-57309305D01*
X168251657Y-57081465D01*
X168339767Y-57081465D01*
X168339767Y-58441409D01*
X168251657Y-58441409D01*
X168234147Y-58249892D01*
X168186094Y-58100349D01*
X168111156Y-57983637D01*
X168008819Y-57891356D01*
X167896554Y-57838037D01*
X167770071Y-57820055D01*
X167685990Y-57820055D01*
X167685990Y-59086210D01*
X167902447Y-59069972D01*
X168097698Y-59022867D01*
X168275270Y-58946005D01*
X168437953Y-58838731D01*
X168578745Y-58704766D01*
X168689847Y-58549166D01*
X168772876Y-58369022D01*
X168827398Y-58160041D01*
X168915509Y-58160041D01*
X168915509Y-59180000D01*
G37*
G36*
X172063311Y-59180000D02*
G01*
X169323456Y-59180000D01*
X169323456Y-59086210D01*
X169636880Y-59086210D01*
X169636880Y-56530453D01*
X169323456Y-56530453D01*
X169323456Y-56436664D01*
X171975200Y-56436664D01*
X171975200Y-57304214D01*
X171883060Y-57304214D01*
X171862332Y-57163459D01*
X171814065Y-57028980D01*
X171736478Y-56898504D01*
X171625872Y-56770422D01*
X171498338Y-56671387D01*
X171337368Y-56596676D01*
X171135445Y-56548123D01*
X170883068Y-56530453D01*
X170833792Y-56530453D01*
X170833792Y-57726266D01*
X170917873Y-57726266D01*
X171036242Y-57710237D01*
X171146428Y-57661999D01*
X171251814Y-57577889D01*
X171328151Y-57468788D01*
X171379717Y-57309305D01*
X171399459Y-57081465D01*
X171487569Y-57081465D01*
X171487569Y-58441409D01*
X171399459Y-58441409D01*
X171381949Y-58249892D01*
X171333896Y-58100349D01*
X171258958Y-57983637D01*
X171156621Y-57891356D01*
X171044356Y-57838037D01*
X170917873Y-57820055D01*
X170833792Y-57820055D01*
X170833792Y-59086210D01*
X171050249Y-59069972D01*
X171245499Y-59022867D01*
X171423072Y-58946005D01*
X171585755Y-58838731D01*
X171726547Y-58704766D01*
X171837649Y-58549166D01*
X171920678Y-58369022D01*
X171975200Y-58160041D01*
X172063311Y-58160041D01*
X172063311Y-59180000D01*
G37*
G36*
X175211113Y-59180000D02*
G01*
X172471257Y-59180000D01*
X172471257Y-59086210D01*
X172784682Y-59086210D01*
X172784682Y-56530453D01*
X172471257Y-56530453D01*
X172471257Y-56436664D01*
X175123002Y-56436664D01*
X175123002Y-57304214D01*
X175030861Y-57304214D01*
X175010134Y-57163459D01*
X174961866Y-57028980D01*
X174884280Y-56898504D01*
X174773674Y-56770422D01*
X174646140Y-56671387D01*
X174485170Y-56596676D01*
X174283247Y-56548123D01*
X174030870Y-56530453D01*
X173981594Y-56530453D01*
X173981594Y-57726266D01*
X174065675Y-57726266D01*
X174184044Y-57710237D01*
X174294230Y-57661999D01*
X174399616Y-57577889D01*
X174475952Y-57468788D01*
X174527518Y-57309305D01*
X174547260Y-57081465D01*
X174635371Y-57081465D01*
X174635371Y-58441409D01*
X174547260Y-58441409D01*
X174529751Y-58249892D01*
X174481698Y-58100349D01*
X174406760Y-57983637D01*
X174304423Y-57891356D01*
X174192158Y-57838037D01*
X174065675Y-57820055D01*
X173981594Y-57820055D01*
X173981594Y-59086210D01*
X174198051Y-59069972D01*
X174393301Y-59022867D01*
X174570874Y-58946005D01*
X174733557Y-58838731D01*
X174874349Y-58704766D01*
X174985450Y-58549166D01*
X175068480Y-58369022D01*
X175123002Y-58160041D01*
X175211113Y-58160041D01*
X175211113Y-59180000D01*
G37*
G36*
X179717759Y-59180000D02*
G01*
X177863040Y-59180000D01*
X177863040Y-59086210D01*
X178207423Y-59086210D01*
X178207423Y-56822445D01*
X178199180Y-56822445D01*
X177289314Y-59180000D01*
X177020769Y-59180000D01*
X176088372Y-56826659D01*
X176088372Y-58284422D01*
X176099694Y-58485728D01*
X176133435Y-58681378D01*
X176193870Y-58859588D01*
X176272653Y-58980697D01*
X176342413Y-59037143D01*
X176435014Y-59073051D01*
X176557684Y-59086210D01*
X176604762Y-59086210D01*
X176604762Y-59180000D01*
X175547252Y-59180000D01*
X175547252Y-59086210D01*
X175646116Y-59072422D01*
X175730046Y-59032277D01*
X175802919Y-58963875D01*
X175865989Y-58860713D01*
X175923524Y-58707091D01*
X175959148Y-58536532D01*
X175971502Y-58346154D01*
X175971502Y-56693852D01*
X175875148Y-56530453D01*
X175614846Y-56530453D01*
X175614846Y-56436664D01*
X177166215Y-56436664D01*
X177725837Y-57797890D01*
X178254501Y-56436664D01*
X179717759Y-56436664D01*
X179717759Y-56530453D01*
X179383635Y-56530453D01*
X179383635Y-59086210D01*
X179717759Y-59086210D01*
X179717759Y-59180000D01*
G37*
D11*
G36*
X161817034Y-89279328D02*
G01*
X162042257Y-90049334D01*
X162143648Y-90387671D01*
X162234873Y-90694318D01*
X162248337Y-90737000D01*
X161619106Y-90737000D01*
X161423467Y-90019475D01*
X161001507Y-90651270D01*
X160568098Y-90047410D01*
X160507165Y-90276280D01*
X160433460Y-90583493D01*
X160406897Y-90694400D01*
X160394442Y-90730588D01*
X160377046Y-90748000D01*
X160344525Y-90754585D01*
X160315529Y-90750151D01*
X160301259Y-90739407D01*
X160296531Y-90722345D01*
X160325290Y-90618389D01*
X160388855Y-90399944D01*
X160499497Y-90022589D01*
X160717483Y-89279511D01*
X161280036Y-90093755D01*
X161817034Y-89279328D01*
G37*
G36*
X163186088Y-89597439D02*
G01*
X163335340Y-89622235D01*
X163445128Y-89658367D01*
X163524017Y-89703028D01*
X163581844Y-89758584D01*
X163613043Y-89816692D01*
X163627427Y-89891457D01*
X163633835Y-90037427D01*
X163633835Y-90442992D01*
X163633703Y-90548212D01*
X163640338Y-90611428D01*
X163657333Y-90668160D01*
X163691354Y-90737000D01*
X163109476Y-90737000D01*
X163109476Y-90634051D01*
X163017633Y-90688594D01*
X162926294Y-90727840D01*
X162832814Y-90752463D01*
X162742470Y-90760447D01*
X162643004Y-90750306D01*
X162552626Y-90720523D01*
X162469163Y-90670688D01*
X162399732Y-90605921D01*
X162351857Y-90534457D01*
X162323139Y-90454834D01*
X162313275Y-90364590D01*
X162321433Y-90284032D01*
X162330927Y-90255688D01*
X162828383Y-90255688D01*
X162828383Y-90500603D01*
X162833420Y-90598331D01*
X162844796Y-90622779D01*
X162865788Y-90637579D01*
X162900282Y-90643210D01*
X162947431Y-90636966D01*
X163004146Y-90616099D01*
X163058887Y-90584812D01*
X163108468Y-90545208D01*
X163110483Y-90126270D01*
X163023155Y-90087599D01*
X162959359Y-90068309D01*
X162913562Y-90062889D01*
X162878346Y-90068402D01*
X162854308Y-90083385D01*
X162838458Y-90108227D01*
X162831907Y-90144928D01*
X162828383Y-90255688D01*
X162330927Y-90255688D01*
X162345008Y-90213652D01*
X162383849Y-90151296D01*
X162439396Y-90095587D01*
X162515515Y-90043603D01*
X162600193Y-90006131D01*
X162694995Y-89982995D01*
X162801913Y-89974962D01*
X162887706Y-89979032D01*
X162958259Y-89990258D01*
X163027306Y-90010248D01*
X163109476Y-90043655D01*
X163109476Y-89924129D01*
X163105446Y-89766043D01*
X163099349Y-89738260D01*
X163087402Y-89714019D01*
X163057898Y-89686200D01*
X163005199Y-89666451D01*
X162917684Y-89658423D01*
X162815169Y-89667258D01*
X162729556Y-89692156D01*
X162657638Y-89731847D01*
X162597115Y-89786651D01*
X162549442Y-89829430D01*
X162517065Y-89840140D01*
X162493949Y-89835954D01*
X162474017Y-89823379D01*
X162460148Y-89804965D01*
X162455699Y-89784361D01*
X162462169Y-89757767D01*
X162484425Y-89728036D01*
X162530070Y-89693199D01*
X162610121Y-89652103D01*
X162709652Y-89618363D01*
X162833743Y-89596176D01*
X162987385Y-89588081D01*
X163186088Y-89597439D01*
G37*
G36*
X165193356Y-89835011D02*
G01*
X165192348Y-90190109D01*
X165195462Y-90687907D01*
X165195462Y-90737000D01*
X164665974Y-90737000D01*
X164665974Y-90612069D01*
X164584124Y-90681043D01*
X164507613Y-90725184D01*
X164425091Y-90751307D01*
X164328736Y-90760447D01*
X164233870Y-90751521D01*
X164145201Y-90725079D01*
X164061085Y-90680641D01*
X163980324Y-90616466D01*
X163912357Y-90541384D01*
X163860196Y-90459890D01*
X163822774Y-90371047D01*
X163799829Y-90273503D01*
X163791921Y-90165563D01*
X163799645Y-90060651D01*
X163821970Y-89966727D01*
X163858240Y-89882011D01*
X163908642Y-89805088D01*
X163912179Y-89801305D01*
X164351084Y-89801305D01*
X164352092Y-89846276D01*
X164352092Y-90533942D01*
X164359144Y-90636524D01*
X164370813Y-90659984D01*
X164388981Y-90673508D01*
X164415748Y-90678381D01*
X164465651Y-90669693D01*
X164523001Y-90640737D01*
X164582108Y-90594453D01*
X164669088Y-90510128D01*
X164669088Y-89815044D01*
X164590531Y-89748751D01*
X164526756Y-89706234D01*
X164463951Y-89678219D01*
X164414740Y-89670147D01*
X164382864Y-89677304D01*
X164364365Y-89697166D01*
X164355268Y-89730473D01*
X164351084Y-89801305D01*
X163912179Y-89801305D01*
X163974187Y-89734993D01*
X164059642Y-89669425D01*
X164147899Y-89624070D01*
X164240148Y-89597142D01*
X164337987Y-89588081D01*
X164426061Y-89596907D01*
X164511643Y-89623527D01*
X164592266Y-89666088D01*
X164668997Y-89725010D01*
X164664967Y-89330161D01*
X165195462Y-89330161D01*
X165193356Y-89835011D01*
G37*
G36*
X166038939Y-89595206D02*
G01*
X166126855Y-89616255D01*
X166210405Y-89651255D01*
X166290525Y-89700921D01*
X166376622Y-89777201D01*
X166442680Y-89864723D01*
X166490316Y-89964993D01*
X166519671Y-90080449D01*
X166529395Y-90214289D01*
X166287777Y-90214289D01*
X165980489Y-90215297D01*
X165842920Y-90221067D01*
X165842920Y-90531378D01*
X165846586Y-90613487D01*
X165853911Y-90645408D01*
X165872152Y-90668736D01*
X165903156Y-90684093D01*
X165952737Y-90690105D01*
X166029913Y-90683249D01*
X166107474Y-90662360D01*
X166186478Y-90626357D01*
X166259584Y-90578843D01*
X166326209Y-90520341D01*
X166386787Y-90449953D01*
X166427545Y-90401776D01*
X166455755Y-90391152D01*
X166472934Y-90394550D01*
X166486622Y-90404616D01*
X166495605Y-90419520D01*
X166498712Y-90438229D01*
X166493066Y-90465303D01*
X166472455Y-90502419D01*
X166429194Y-90553726D01*
X166365289Y-90610077D01*
X166290744Y-90659859D01*
X166204338Y-90703019D01*
X166113532Y-90735522D01*
X166026542Y-90754325D01*
X165942479Y-90760447D01*
X165835518Y-90751176D01*
X165736402Y-90723876D01*
X165643407Y-90678426D01*
X165555232Y-90613535D01*
X165495319Y-90551897D01*
X165445266Y-90481305D01*
X165404748Y-90400769D01*
X165369835Y-90288754D01*
X165358494Y-90178844D01*
X165368594Y-90072791D01*
X165399619Y-89964612D01*
X165449095Y-89863684D01*
X165463342Y-89844811D01*
X165842920Y-89844811D01*
X165842920Y-90139185D01*
X165965010Y-90144955D01*
X166099375Y-90139185D01*
X166099375Y-89844811D01*
X166095345Y-89730963D01*
X166081514Y-89696891D01*
X166059561Y-89677299D01*
X166023486Y-89663776D01*
X165967025Y-89658423D01*
X165910261Y-89664607D01*
X165876093Y-89680017D01*
X165857025Y-89702570D01*
X165847721Y-89740344D01*
X165842920Y-89844811D01*
X165463342Y-89844811D01*
X165512917Y-89779140D01*
X165571979Y-89722766D01*
X165637680Y-89675668D01*
X165710662Y-89637449D01*
X165786734Y-89609990D01*
X165864773Y-89593584D01*
X165945502Y-89588081D01*
X166038939Y-89595206D01*
G37*
G36*
X167735191Y-89725010D02*
G01*
X167811908Y-89666082D01*
X167892453Y-89623527D01*
X167978249Y-89596929D01*
X168067209Y-89588081D01*
X168165047Y-89597142D01*
X168257296Y-89624070D01*
X168345553Y-89669425D01*
X168431008Y-89734993D01*
X168496554Y-89805088D01*
X168546955Y-89882011D01*
X168583226Y-89966727D01*
X168605551Y-90060651D01*
X168613275Y-90165563D01*
X168605402Y-90273552D01*
X168582561Y-90371125D01*
X168545323Y-90459970D01*
X168493443Y-90541437D01*
X168425879Y-90616466D01*
X168345133Y-90680588D01*
X168260861Y-90725032D01*
X168171855Y-90751504D01*
X168076459Y-90760447D01*
X167979211Y-90750959D01*
X167895933Y-90723810D01*
X167819337Y-90677991D01*
X167738214Y-90606482D01*
X167738214Y-90737000D01*
X167208726Y-90737000D01*
X167208726Y-90687907D01*
X167211748Y-90190109D01*
X167210741Y-89835011D01*
X167210661Y-89815044D01*
X167735099Y-89815044D01*
X167735099Y-90504267D01*
X167842719Y-90610970D01*
X167899581Y-90651034D01*
X167947703Y-90672037D01*
X167989356Y-90678381D01*
X168015528Y-90673569D01*
X168033762Y-90660077D01*
X168045960Y-90636524D01*
X168053012Y-90533942D01*
X168053012Y-89846276D01*
X168054020Y-89801305D01*
X168049836Y-89730473D01*
X168040739Y-89697166D01*
X168022239Y-89677304D01*
X167990364Y-89670147D01*
X167941093Y-89678206D01*
X167877890Y-89706234D01*
X167813735Y-89748787D01*
X167735099Y-89815044D01*
X167210661Y-89815044D01*
X167208726Y-89330161D01*
X167739221Y-89330161D01*
X167735191Y-89725010D01*
G37*
G36*
X169518194Y-90114638D02*
G01*
X169807989Y-89661904D01*
X169849571Y-89597881D01*
X169859938Y-89590686D01*
X169875033Y-89588081D01*
X169895332Y-89592021D01*
X169913868Y-89604201D01*
X169927005Y-89621774D01*
X169931178Y-89640929D01*
X169927324Y-89657271D01*
X169913135Y-89679489D01*
X169757326Y-89898839D01*
X169539352Y-90222807D01*
X169359009Y-90497580D01*
X169267455Y-90627411D01*
X169204953Y-90701371D01*
X169155658Y-90741323D01*
X169096875Y-90773636D01*
X169034291Y-90794803D01*
X168976433Y-90801480D01*
X168922503Y-90795451D01*
X168881728Y-90778948D01*
X168853157Y-90752472D01*
X168844359Y-90721337D01*
X168848616Y-90700540D01*
X168861578Y-90682778D01*
X168880624Y-90670734D01*
X168903618Y-90666658D01*
X168925080Y-90670626D01*
X168972312Y-90688181D01*
X169003849Y-90698788D01*
X169027633Y-90701829D01*
X169071249Y-90695068D01*
X169113728Y-90674168D01*
X169153641Y-90640588D01*
X169202297Y-90584317D01*
X169082496Y-90396739D01*
X168720779Y-89844915D01*
X168557587Y-89611528D01*
X169216951Y-89611528D01*
X169283148Y-89744838D01*
X169358918Y-89878791D01*
X169440504Y-90006821D01*
X169518194Y-90114638D01*
G37*
G36*
X170885832Y-90197711D02*
G01*
X170738279Y-90199177D01*
X170439051Y-90203573D01*
X170396041Y-90197797D01*
X170375866Y-90184331D01*
X170369533Y-90164097D01*
X170375993Y-90141823D01*
X170395883Y-90127504D01*
X170437036Y-90121508D01*
X170509851Y-90123431D01*
X170693216Y-90127369D01*
X170959563Y-90122332D01*
X171039522Y-90121508D01*
X171082670Y-90127197D01*
X171102777Y-90140394D01*
X171109040Y-90160067D01*
X171102801Y-90179130D01*
X171082515Y-90192081D01*
X171038515Y-90197711D01*
X170964692Y-90197711D01*
X170885832Y-90197711D01*
G37*
G36*
X161947002Y-93257000D02*
G01*
X161230210Y-93257000D01*
X161132849Y-93069421D01*
X160790298Y-93069421D01*
X160486949Y-93068322D01*
X160437490Y-93067314D01*
X160370628Y-93189405D01*
X160328496Y-93259930D01*
X160314548Y-93270934D01*
X160297355Y-93274585D01*
X160268707Y-93265843D01*
X160259620Y-93240879D01*
X160263337Y-93224650D01*
X160279770Y-93190138D01*
X160398374Y-92987447D01*
X160485850Y-92987447D01*
X160788192Y-92993217D01*
X161091816Y-92987447D01*
X160803396Y-92454204D01*
X160626808Y-92746929D01*
X160485850Y-92987447D01*
X160398374Y-92987447D01*
X160419812Y-92950811D01*
X161039792Y-91907771D01*
X161122408Y-91765073D01*
X161947002Y-93257000D01*
G37*
G36*
X163327829Y-92355011D02*
G01*
X163326821Y-92710109D01*
X163329935Y-93207907D01*
X163329935Y-93257000D01*
X162800448Y-93257000D01*
X162800448Y-93132069D01*
X162718597Y-93201043D01*
X162642087Y-93245184D01*
X162559564Y-93271307D01*
X162463209Y-93280447D01*
X162368344Y-93271521D01*
X162279674Y-93245079D01*
X162195558Y-93200641D01*
X162114797Y-93136466D01*
X162046830Y-93061384D01*
X161994670Y-92979890D01*
X161957247Y-92891047D01*
X161934302Y-92793503D01*
X161926394Y-92685563D01*
X161934118Y-92580651D01*
X161956443Y-92486727D01*
X161992713Y-92402011D01*
X162043115Y-92325088D01*
X162046652Y-92321305D01*
X162485557Y-92321305D01*
X162486565Y-92366276D01*
X162486565Y-93053942D01*
X162493617Y-93156524D01*
X162505286Y-93179984D01*
X162523454Y-93193508D01*
X162550221Y-93198381D01*
X162600124Y-93189693D01*
X162657474Y-93160737D01*
X162716582Y-93114453D01*
X162803562Y-93030128D01*
X162803562Y-92335044D01*
X162725005Y-92268751D01*
X162661229Y-92226234D01*
X162598424Y-92198219D01*
X162549213Y-92190147D01*
X162517338Y-92197304D01*
X162498838Y-92217166D01*
X162489741Y-92250473D01*
X162485557Y-92321305D01*
X162046652Y-92321305D01*
X162108660Y-92254993D01*
X162194116Y-92189425D01*
X162282372Y-92144070D01*
X162374621Y-92117142D01*
X162472460Y-92108081D01*
X162560534Y-92116907D01*
X162646117Y-92143527D01*
X162726739Y-92186088D01*
X162803470Y-92245010D01*
X162799440Y-91850161D01*
X163329935Y-91850161D01*
X163327829Y-92355011D01*
G37*
G36*
X163791280Y-91768095D02*
G01*
X163907935Y-91776617D01*
X163983496Y-91798027D01*
X164029979Y-91827989D01*
X164055859Y-91865371D01*
X164064679Y-91912626D01*
X164056913Y-91955412D01*
X164033792Y-91991291D01*
X163992322Y-92022169D01*
X163942481Y-92042463D01*
X163876492Y-92056100D01*
X163790272Y-92061187D01*
X163680723Y-92052688D01*
X163609043Y-92031198D01*
X163564278Y-92000754D01*
X163538910Y-91962138D01*
X163530154Y-91912626D01*
X163538721Y-91865607D01*
X163563762Y-91828452D01*
X163608424Y-91798689D01*
X163680529Y-91777237D01*
X163791280Y-91768095D01*
G37*
G36*
X164059550Y-92131528D02*
G01*
X164059550Y-92164226D01*
X164057535Y-92324144D01*
X164055520Y-92572265D01*
X164052406Y-92949528D01*
X164056527Y-93161745D01*
X164058634Y-93257000D01*
X163526032Y-93257000D01*
X163531161Y-92876805D01*
X163534184Y-92543505D01*
X163532169Y-92368200D01*
X163529054Y-92173386D01*
X163530245Y-92131528D01*
X164059550Y-92131528D01*
G37*
G36*
X164867475Y-91772675D02*
G01*
X164856026Y-92108997D01*
X164855110Y-92131528D01*
X165013746Y-92124293D01*
X165035544Y-92123285D01*
X165063084Y-92128706D01*
X165078061Y-92143004D01*
X165083538Y-92168256D01*
X165078097Y-92191299D01*
X165062720Y-92204827D01*
X165033438Y-92210114D01*
X164997351Y-92208007D01*
X164881855Y-92201870D01*
X164855018Y-92201870D01*
X164854011Y-92398242D01*
X164858132Y-92797853D01*
X164861155Y-93011261D01*
X164864576Y-93079890D01*
X164872237Y-93114759D01*
X164886940Y-93135938D01*
X164908416Y-93142602D01*
X164942893Y-93133437D01*
X164985169Y-93100470D01*
X165020974Y-93053806D01*
X165049100Y-92995965D01*
X165067634Y-92957832D01*
X165085399Y-92939826D01*
X165103139Y-92934599D01*
X165124213Y-92939280D01*
X165136266Y-92952196D01*
X165140874Y-92976181D01*
X165133301Y-93016886D01*
X165105703Y-93073817D01*
X165066760Y-93128319D01*
X165020981Y-93174842D01*
X164957517Y-93219962D01*
X164884982Y-93252781D01*
X164801703Y-93273261D01*
X164705542Y-93280447D01*
X164615264Y-93272837D01*
X164539713Y-93251388D01*
X164476134Y-93217230D01*
X164422525Y-93170171D01*
X164378600Y-93110716D01*
X164351267Y-93045882D01*
X164337270Y-92970689D01*
X164331667Y-92856289D01*
X164331667Y-92779627D01*
X164332674Y-92563930D01*
X164332674Y-92200588D01*
X164315089Y-92199764D01*
X164274331Y-92201870D01*
X164231100Y-92203885D01*
X164199507Y-92198648D01*
X164183466Y-92185625D01*
X164177977Y-92164226D01*
X164183300Y-92143205D01*
X164198772Y-92130485D01*
X164229085Y-92125392D01*
X164261050Y-92126491D01*
X164332674Y-92131345D01*
X164332674Y-92016673D01*
X164534209Y-91937777D01*
X164711773Y-91856318D01*
X164867475Y-91772675D01*
G37*
G36*
X165986443Y-92634638D02*
G01*
X166276237Y-92181904D01*
X166317819Y-92117881D01*
X166328186Y-92110686D01*
X166343282Y-92108081D01*
X166363580Y-92112021D01*
X166382116Y-92124201D01*
X166395254Y-92141774D01*
X166399427Y-92160929D01*
X166395572Y-92177271D01*
X166381383Y-92199489D01*
X166225575Y-92418839D01*
X166007600Y-92742807D01*
X165827258Y-93017580D01*
X165735703Y-93147411D01*
X165673201Y-93221371D01*
X165623906Y-93261323D01*
X165565124Y-93293636D01*
X165502539Y-93314803D01*
X165444682Y-93321480D01*
X165390752Y-93315451D01*
X165349976Y-93298948D01*
X165321406Y-93272472D01*
X165312607Y-93241337D01*
X165316864Y-93220540D01*
X165329826Y-93202778D01*
X165348872Y-93190734D01*
X165371867Y-93186658D01*
X165393329Y-93190626D01*
X165440560Y-93208181D01*
X165472098Y-93218788D01*
X165495881Y-93221829D01*
X165539497Y-93215068D01*
X165581977Y-93194168D01*
X165621889Y-93160588D01*
X165670545Y-93104317D01*
X165550744Y-92916739D01*
X165189027Y-92364915D01*
X165025836Y-92131528D01*
X165685200Y-92131528D01*
X165751397Y-92264838D01*
X165827166Y-92398791D01*
X165908752Y-92526821D01*
X165986443Y-92634638D01*
G37*
G36*
X167236611Y-92117439D02*
G01*
X167385863Y-92142235D01*
X167495652Y-92178367D01*
X167574540Y-92223028D01*
X167632368Y-92278584D01*
X167663567Y-92336692D01*
X167677951Y-92411457D01*
X167684358Y-92557427D01*
X167684358Y-92962992D01*
X167684226Y-93068212D01*
X167690861Y-93131428D01*
X167707856Y-93188160D01*
X167741877Y-93257000D01*
X167159999Y-93257000D01*
X167159999Y-93154051D01*
X167068156Y-93208594D01*
X166976817Y-93247840D01*
X166883338Y-93272463D01*
X166792994Y-93280447D01*
X166693528Y-93270306D01*
X166603149Y-93240523D01*
X166519686Y-93190688D01*
X166450256Y-93125921D01*
X166402380Y-93054457D01*
X166373662Y-92974834D01*
X166363798Y-92884590D01*
X166371956Y-92804032D01*
X166381450Y-92775688D01*
X166878906Y-92775688D01*
X166878906Y-93020603D01*
X166883944Y-93118331D01*
X166895320Y-93142779D01*
X166916311Y-93157579D01*
X166950805Y-93163210D01*
X166997954Y-93156966D01*
X167054669Y-93136099D01*
X167109410Y-93104812D01*
X167158992Y-93065208D01*
X167161007Y-92646270D01*
X167073679Y-92607599D01*
X167009882Y-92588309D01*
X166964086Y-92582889D01*
X166928870Y-92588402D01*
X166904832Y-92603385D01*
X166888981Y-92628227D01*
X166882430Y-92664928D01*
X166878906Y-92775688D01*
X166381450Y-92775688D01*
X166395531Y-92733652D01*
X166434373Y-92671296D01*
X166489919Y-92615587D01*
X166566038Y-92563603D01*
X166650716Y-92526131D01*
X166745518Y-92502995D01*
X166852436Y-92494962D01*
X166938229Y-92499032D01*
X167008782Y-92510258D01*
X167077829Y-92530248D01*
X167159999Y-92563655D01*
X167159999Y-92444129D01*
X167155969Y-92286043D01*
X167149873Y-92258260D01*
X167137926Y-92234019D01*
X167108422Y-92206200D01*
X167055722Y-92186451D01*
X166968207Y-92178423D01*
X166865692Y-92187258D01*
X166780080Y-92212156D01*
X166708162Y-92251847D01*
X166647639Y-92306651D01*
X166599965Y-92349430D01*
X166567588Y-92360140D01*
X166544472Y-92355954D01*
X166524540Y-92343379D01*
X166510672Y-92324965D01*
X166506222Y-92304361D01*
X166512692Y-92277767D01*
X166534949Y-92248036D01*
X166580594Y-92213199D01*
X166660645Y-92172103D01*
X166760175Y-92138363D01*
X166884267Y-92116176D01*
X167037908Y-92108081D01*
X167236611Y-92117439D01*
G37*
G36*
X169502349Y-91850161D02*
G01*
X169499327Y-92096174D01*
X169504456Y-92469500D01*
X169507478Y-92717711D01*
X169497426Y-92844899D01*
X169468957Y-92953047D01*
X169423533Y-93045512D01*
X169361116Y-93124834D01*
X169300298Y-93178290D01*
X169230009Y-93221900D01*
X169148991Y-93255809D01*
X169063585Y-93278360D01*
X168963257Y-93292861D01*
X168845733Y-93298032D01*
X168713937Y-93290391D01*
X168605986Y-93269268D01*
X168517920Y-93236761D01*
X168446396Y-93194076D01*
X168389837Y-93142398D01*
X168343081Y-93079038D01*
X168311256Y-93010358D01*
X168301773Y-92952276D01*
X168307216Y-92925506D01*
X168321744Y-92910752D01*
X168347752Y-92905290D01*
X168371627Y-92911627D01*
X168389184Y-92931185D01*
X168400875Y-92970228D01*
X168417181Y-93029827D01*
X168448276Y-93082274D01*
X168495789Y-93129074D01*
X168563174Y-93170629D01*
X168642269Y-93202244D01*
X168725194Y-93221260D01*
X168812943Y-93227690D01*
X168873576Y-93224759D01*
X168874584Y-93185375D01*
X168876599Y-92905473D01*
X168880721Y-92157724D01*
X168873393Y-91850161D01*
X169502349Y-91850161D01*
G37*
G36*
X170362770Y-92118128D02*
G01*
X170466911Y-92148264D01*
X170568836Y-92199489D01*
X170653042Y-92262633D01*
X170722374Y-92338925D01*
X170777938Y-92429749D01*
X170813440Y-92517138D01*
X170834647Y-92607525D01*
X170841777Y-92701958D01*
X170832541Y-92799925D01*
X170804133Y-92900252D01*
X170759414Y-92994863D01*
X170701734Y-93077023D01*
X170636837Y-93141769D01*
X170563333Y-93194672D01*
X170480267Y-93236300D01*
X170370943Y-93269398D01*
X170256876Y-93280447D01*
X170161273Y-93273148D01*
X170071824Y-93251637D01*
X169987303Y-93215951D01*
X169977983Y-93210105D01*
X170225003Y-93210105D01*
X170266127Y-93210105D01*
X170358365Y-93201427D01*
X170448237Y-93175276D01*
X170537145Y-93130604D01*
X170613593Y-93072832D01*
X170675306Y-93004545D01*
X170723533Y-92924707D01*
X170750463Y-92855281D01*
X170766847Y-92780842D01*
X170772442Y-92700401D01*
X170764856Y-92603758D01*
X170742878Y-92517086D01*
X170707010Y-92438660D01*
X170656845Y-92367151D01*
X170591092Y-92301705D01*
X170513946Y-92246471D01*
X170435772Y-92208398D01*
X170355617Y-92185929D01*
X170272264Y-92178423D01*
X170228025Y-92178423D01*
X170225003Y-93210105D01*
X169977983Y-93210105D01*
X169906724Y-93165408D01*
X169832213Y-93100871D01*
X169771054Y-93025545D01*
X169722442Y-92938263D01*
X169693262Y-92858825D01*
X169675762Y-92776572D01*
X169669869Y-92690692D01*
X169677548Y-92590567D01*
X169699907Y-92499566D01*
X169736554Y-92416107D01*
X169787942Y-92338951D01*
X169855341Y-92267266D01*
X169946915Y-92197885D01*
X170043076Y-92149026D01*
X170145115Y-92119189D01*
X170254770Y-92108081D01*
X170362770Y-92118128D01*
G37*
G36*
X170981362Y-93063559D02*
G01*
X171003115Y-93069908D01*
X171035675Y-93094883D01*
X171093772Y-93137000D01*
X171180206Y-93176216D01*
X171273157Y-93202063D01*
X171355420Y-93210105D01*
X171389583Y-93206586D01*
X171410374Y-93197832D01*
X171423749Y-93182872D01*
X171428326Y-93162020D01*
X171422844Y-93137777D01*
X171402497Y-93103768D01*
X171286635Y-92973159D01*
X171088018Y-92754523D01*
X171000779Y-92643797D01*
X170963091Y-92577473D01*
X170942130Y-92516296D01*
X170935475Y-92458783D01*
X170946499Y-92383713D01*
X170980446Y-92310589D01*
X171033368Y-92246068D01*
X171105926Y-92190330D01*
X171197599Y-92145112D01*
X171298498Y-92117563D01*
X171410741Y-92108081D01*
X171494299Y-92113614D01*
X171583138Y-92130790D01*
X171678187Y-92160746D01*
X171748667Y-92195166D01*
X171780817Y-92225458D01*
X171789744Y-92253345D01*
X171786437Y-92268617D01*
X171776006Y-92282745D01*
X171761241Y-92292486D01*
X171744773Y-92295660D01*
X171721539Y-92288702D01*
X171670310Y-92256733D01*
X171595423Y-92212831D01*
X171517643Y-92187051D01*
X171435379Y-92178423D01*
X171394318Y-92182440D01*
X171369067Y-92192437D01*
X171352721Y-92209751D01*
X171347085Y-92234935D01*
X171355766Y-92270180D01*
X171389217Y-92323137D01*
X171443492Y-92384753D01*
X171561316Y-92503480D01*
X171722883Y-92665779D01*
X171789286Y-92754531D01*
X171819843Y-92814214D01*
X171837966Y-92876418D01*
X171844058Y-92942201D01*
X171834646Y-93017110D01*
X171806974Y-93083586D01*
X171759938Y-93143915D01*
X171690002Y-93199206D01*
X171602767Y-93243214D01*
X171500858Y-93270737D01*
X171381065Y-93280447D01*
X171247626Y-93270001D01*
X171128040Y-93239753D01*
X171019922Y-93190413D01*
X170955899Y-93144709D01*
X170942688Y-93125544D01*
X170938497Y-93105233D01*
X170943400Y-93082303D01*
X170956827Y-93069048D01*
X170981362Y-93063559D01*
G37*
G36*
X172536120Y-92275510D02*
G01*
X172626986Y-92217958D01*
X172692741Y-92182178D01*
X172797560Y-92140287D01*
X172899051Y-92116012D01*
X172998380Y-92108081D01*
X173103750Y-92118193D01*
X173195301Y-92147282D01*
X173250444Y-92177678D01*
X173293299Y-92213387D01*
X173325635Y-92254535D01*
X173350486Y-92312218D01*
X173368882Y-92406600D01*
X173376285Y-92552298D01*
X173374270Y-92704522D01*
X173372255Y-92905748D01*
X173379491Y-93257000D01*
X172847896Y-93257000D01*
X172851926Y-92622090D01*
X172846889Y-92299323D01*
X172834861Y-92271716D01*
X172812007Y-92255094D01*
X172773982Y-92248765D01*
X172725744Y-92255371D01*
X172666912Y-92277616D01*
X172607345Y-92311806D01*
X172536028Y-92364445D01*
X172534013Y-92619800D01*
X172538135Y-93064841D01*
X172541341Y-93257000D01*
X172007640Y-93257000D01*
X172009655Y-92820934D01*
X172009655Y-92327259D01*
X172006632Y-91900261D01*
X172007731Y-91850161D01*
X172536120Y-91850161D01*
X172536120Y-91882034D01*
X172537128Y-92058805D01*
X172536120Y-92168348D01*
X172536120Y-92275510D01*
G37*
G36*
X173863366Y-91768095D02*
G01*
X173980022Y-91776617D01*
X174055582Y-91798027D01*
X174102065Y-91827989D01*
X174127946Y-91865371D01*
X174136766Y-91912626D01*
X174129000Y-91955412D01*
X174105878Y-91991291D01*
X174064409Y-92022169D01*
X174014567Y-92042463D01*
X173948579Y-92056100D01*
X173862359Y-92061187D01*
X173752809Y-92052688D01*
X173681129Y-92031198D01*
X173636365Y-92000754D01*
X173610996Y-91962138D01*
X173602240Y-91912626D01*
X173610807Y-91865607D01*
X173635849Y-91828452D01*
X173680511Y-91798689D01*
X173752616Y-91777237D01*
X173863366Y-91768095D01*
G37*
G36*
X174131636Y-92131528D02*
G01*
X174131636Y-92164226D01*
X174129621Y-92324144D01*
X174127606Y-92572265D01*
X174124492Y-92949528D01*
X174128614Y-93161745D01*
X174130721Y-93257000D01*
X173598118Y-93257000D01*
X173603248Y-92876805D01*
X173606270Y-92543505D01*
X173604255Y-92368200D01*
X173601141Y-92173386D01*
X173602332Y-92131528D01*
X174131636Y-92131528D01*
G37*
G36*
X161028985Y-94370161D02*
G01*
X161024863Y-94587964D01*
X161020741Y-94930332D01*
X161021749Y-95180101D01*
X161025871Y-95706658D01*
X161096670Y-95707665D01*
X161535209Y-95700796D01*
X161615168Y-95699788D01*
X161654073Y-95705249D01*
X161672618Y-95718145D01*
X161678549Y-95737890D01*
X161669848Y-95763917D01*
X161643194Y-95774984D01*
X161595659Y-95777000D01*
X160392885Y-95777000D01*
X160395999Y-95384074D01*
X160398014Y-95144930D01*
X160400029Y-94873912D01*
X160395907Y-94461385D01*
X160397006Y-94370161D01*
X161028985Y-94370161D01*
G37*
G36*
X162601371Y-94637439D02*
G01*
X162750622Y-94662235D01*
X162860411Y-94698367D01*
X162939300Y-94743028D01*
X162997127Y-94798584D01*
X163028326Y-94856692D01*
X163042710Y-94931457D01*
X163049117Y-95077427D01*
X163049117Y-95482992D01*
X163048985Y-95588212D01*
X163055620Y-95651428D01*
X163072615Y-95708160D01*
X163106636Y-95777000D01*
X162524758Y-95777000D01*
X162524758Y-95674051D01*
X162432915Y-95728594D01*
X162341576Y-95767840D01*
X162248097Y-95792463D01*
X162157753Y-95800447D01*
X162058287Y-95790306D01*
X161967909Y-95760523D01*
X161884445Y-95710688D01*
X161815015Y-95645921D01*
X161767140Y-95574457D01*
X161738422Y-95494834D01*
X161728557Y-95404590D01*
X161736716Y-95324032D01*
X161746210Y-95295688D01*
X162243665Y-95295688D01*
X162243665Y-95540603D01*
X162248703Y-95638331D01*
X162260079Y-95662779D01*
X162281071Y-95677579D01*
X162315564Y-95683210D01*
X162362714Y-95676966D01*
X162419429Y-95656099D01*
X162474169Y-95624812D01*
X162523751Y-95585208D01*
X162525766Y-95166270D01*
X162438438Y-95127599D01*
X162374641Y-95108309D01*
X162328845Y-95102889D01*
X162293629Y-95108402D01*
X162269591Y-95123385D01*
X162253740Y-95148227D01*
X162247189Y-95184928D01*
X162243665Y-95295688D01*
X161746210Y-95295688D01*
X161760290Y-95253652D01*
X161799132Y-95191296D01*
X161854678Y-95135587D01*
X161930797Y-95083603D01*
X162015476Y-95046131D01*
X162110278Y-95022995D01*
X162217196Y-95014962D01*
X162302989Y-95019032D01*
X162373542Y-95030258D01*
X162442588Y-95050248D01*
X162524758Y-95083655D01*
X162524758Y-94964129D01*
X162520728Y-94806043D01*
X162514632Y-94778260D01*
X162502685Y-94754019D01*
X162473181Y-94726200D01*
X162420482Y-94706451D01*
X162332967Y-94698423D01*
X162230451Y-94707258D01*
X162144839Y-94732156D01*
X162072921Y-94771847D01*
X162012398Y-94826651D01*
X161964724Y-94869430D01*
X161932347Y-94880140D01*
X161909232Y-94875954D01*
X161889300Y-94863379D01*
X161875431Y-94844965D01*
X161870981Y-94824361D01*
X161877451Y-94797767D01*
X161899708Y-94768036D01*
X161945353Y-94733199D01*
X162025404Y-94692103D01*
X162124934Y-94658363D01*
X162249026Y-94636176D01*
X162402668Y-94628081D01*
X162601371Y-94637439D01*
G37*
G36*
X164176145Y-94860997D02*
G01*
X164291642Y-95054438D01*
X164403383Y-95244855D01*
X164628056Y-95608380D01*
X164692175Y-95694158D01*
X164766450Y-95777000D01*
X164148027Y-95777000D01*
X163957609Y-95441318D01*
X163803278Y-95178635D01*
X163803278Y-95216462D01*
X163804286Y-95402667D01*
X163806392Y-95725434D01*
X163807491Y-95777000D01*
X163276904Y-95777000D01*
X163281026Y-95279385D01*
X163282033Y-94994079D01*
X163277912Y-94421360D01*
X163276813Y-94370161D01*
X163807400Y-94370161D01*
X163803278Y-95043080D01*
X163803278Y-95091532D01*
X164064682Y-94861965D01*
X164193090Y-94758598D01*
X164292127Y-94694700D01*
X164373645Y-94661452D01*
X164441851Y-94651528D01*
X164490468Y-94659609D01*
X164515177Y-94679720D01*
X164523642Y-94712803D01*
X164519796Y-94733222D01*
X164508438Y-94749714D01*
X164491527Y-94760707D01*
X164470519Y-94764460D01*
X164441027Y-94759331D01*
X164397704Y-94751180D01*
X164355433Y-94756803D01*
X164307670Y-94775085D01*
X164256355Y-94804952D01*
X164176145Y-94860997D01*
G37*
G36*
X164785409Y-95583559D02*
G01*
X164807163Y-95589908D01*
X164839723Y-95614883D01*
X164897819Y-95657000D01*
X164984253Y-95696216D01*
X165077204Y-95722063D01*
X165159467Y-95730105D01*
X165193631Y-95726586D01*
X165214422Y-95717832D01*
X165227797Y-95702872D01*
X165232374Y-95682020D01*
X165226892Y-95657777D01*
X165206545Y-95623768D01*
X165090682Y-95493159D01*
X164892065Y-95274523D01*
X164804826Y-95163797D01*
X164767139Y-95097473D01*
X164746178Y-95036296D01*
X164739522Y-94978783D01*
X164750547Y-94903713D01*
X164784493Y-94830589D01*
X164837416Y-94766068D01*
X164909973Y-94710330D01*
X165001646Y-94665112D01*
X165102545Y-94637563D01*
X165214788Y-94628081D01*
X165298347Y-94633614D01*
X165387185Y-94650790D01*
X165482234Y-94680746D01*
X165552714Y-94715166D01*
X165584864Y-94745458D01*
X165593792Y-94773345D01*
X165590484Y-94788617D01*
X165580053Y-94802745D01*
X165565289Y-94812486D01*
X165548821Y-94815660D01*
X165525586Y-94808702D01*
X165474357Y-94776733D01*
X165399470Y-94732831D01*
X165321691Y-94707051D01*
X165239426Y-94698423D01*
X165198366Y-94702440D01*
X165173114Y-94712437D01*
X165156769Y-94729751D01*
X165151132Y-94754935D01*
X165159813Y-94790180D01*
X165193264Y-94843137D01*
X165247540Y-94904753D01*
X165365364Y-95023480D01*
X165526930Y-95185779D01*
X165593334Y-95274531D01*
X165623891Y-95334214D01*
X165642014Y-95396418D01*
X165648105Y-95462201D01*
X165638694Y-95537110D01*
X165611021Y-95603586D01*
X165563986Y-95663915D01*
X165494049Y-95719206D01*
X165406814Y-95763214D01*
X165304905Y-95790737D01*
X165185113Y-95800447D01*
X165051673Y-95790001D01*
X164932088Y-95759753D01*
X164823969Y-95710413D01*
X164759947Y-95664709D01*
X164746736Y-95645544D01*
X164742545Y-95625233D01*
X164747447Y-95602303D01*
X164760875Y-95589048D01*
X164785409Y-95583559D01*
G37*
G36*
X166338702Y-94795510D02*
G01*
X166429568Y-94737958D01*
X166495323Y-94702178D01*
X166600142Y-94660287D01*
X166701632Y-94636012D01*
X166800962Y-94628081D01*
X166906332Y-94638193D01*
X166997883Y-94667282D01*
X167053026Y-94697678D01*
X167095881Y-94733387D01*
X167128217Y-94774535D01*
X167153068Y-94832218D01*
X167171464Y-94926600D01*
X167178867Y-95072298D01*
X167176852Y-95224522D01*
X167174837Y-95425748D01*
X167182073Y-95777000D01*
X166650478Y-95777000D01*
X166654508Y-95142090D01*
X166649471Y-94819323D01*
X166637443Y-94791716D01*
X166614589Y-94775094D01*
X166576564Y-94768765D01*
X166528326Y-94775371D01*
X166469494Y-94797616D01*
X166409927Y-94831806D01*
X166338610Y-94884445D01*
X166336595Y-95139800D01*
X166340717Y-95584841D01*
X166343923Y-95777000D01*
X165810222Y-95777000D01*
X165812237Y-95340934D01*
X165812237Y-94847259D01*
X165809214Y-94420261D01*
X165810313Y-94370161D01*
X166338702Y-94370161D01*
X166338702Y-94402034D01*
X166339710Y-94578805D01*
X166338702Y-94688348D01*
X166338702Y-94795510D01*
G37*
G36*
X168011444Y-94635206D02*
G01*
X168099360Y-94656255D01*
X168182911Y-94691255D01*
X168263030Y-94740921D01*
X168349127Y-94817201D01*
X168415186Y-94904723D01*
X168462821Y-95004993D01*
X168492177Y-95120449D01*
X168501900Y-95254289D01*
X168260283Y-95254289D01*
X167952995Y-95255297D01*
X167815425Y-95261067D01*
X167815425Y-95571378D01*
X167819092Y-95653487D01*
X167826416Y-95685408D01*
X167844657Y-95708736D01*
X167875662Y-95724093D01*
X167925243Y-95730105D01*
X168002419Y-95723249D01*
X168079980Y-95702360D01*
X168158983Y-95666357D01*
X168232089Y-95618843D01*
X168298714Y-95560341D01*
X168359293Y-95489953D01*
X168400051Y-95441776D01*
X168428261Y-95431152D01*
X168445440Y-95434550D01*
X168459127Y-95444616D01*
X168468111Y-95459520D01*
X168471217Y-95478229D01*
X168465571Y-95505303D01*
X168444961Y-95542419D01*
X168401699Y-95593726D01*
X168337795Y-95650077D01*
X168263249Y-95699859D01*
X168176843Y-95743019D01*
X168086037Y-95775522D01*
X167999047Y-95794325D01*
X167914984Y-95800447D01*
X167808023Y-95791176D01*
X167708908Y-95763876D01*
X167615913Y-95718426D01*
X167527737Y-95653535D01*
X167467824Y-95591897D01*
X167417771Y-95521305D01*
X167377253Y-95440769D01*
X167342340Y-95328754D01*
X167331000Y-95218844D01*
X167341099Y-95112791D01*
X167372124Y-95004612D01*
X167421600Y-94903684D01*
X167435847Y-94884811D01*
X167815425Y-94884811D01*
X167815425Y-95179185D01*
X167937516Y-95184955D01*
X168071880Y-95179185D01*
X168071880Y-94884811D01*
X168067850Y-94770963D01*
X168054020Y-94736891D01*
X168032067Y-94717299D01*
X167995991Y-94703776D01*
X167939531Y-94698423D01*
X167882766Y-94704607D01*
X167848598Y-94720017D01*
X167829530Y-94742570D01*
X167820226Y-94780344D01*
X167815425Y-94884811D01*
X167435847Y-94884811D01*
X167485422Y-94819140D01*
X167544484Y-94762766D01*
X167610185Y-94715668D01*
X167683167Y-94677449D01*
X167759239Y-94649990D01*
X167837279Y-94633584D01*
X167918007Y-94628081D01*
X168011444Y-94635206D01*
G37*
G36*
X169187093Y-94651528D02*
G01*
X169187093Y-94795326D01*
X169304647Y-94722078D01*
X169417811Y-94670763D01*
X169533154Y-94638443D01*
X169642209Y-94628081D01*
X169737809Y-94636037D01*
X169819490Y-94658648D01*
X169889779Y-94694943D01*
X169936378Y-94732458D01*
X169970155Y-94774059D01*
X169992728Y-94820331D01*
X170011168Y-94906877D01*
X170019106Y-95063139D01*
X170017091Y-95536023D01*
X170020113Y-95777000D01*
X169492732Y-95777000D01*
X169496854Y-95489770D01*
X169499876Y-95281217D01*
X169498869Y-94966235D01*
X169496304Y-94836359D01*
X169486870Y-94799814D01*
X169464029Y-94777461D01*
X169418818Y-94768765D01*
X169369098Y-94775548D01*
X169311382Y-94797891D01*
X169253807Y-94832324D01*
X169187093Y-94884445D01*
X169186085Y-94924928D01*
X169183979Y-95211333D01*
X169181964Y-95430510D01*
X169185078Y-95730105D01*
X169186177Y-95777000D01*
X168656597Y-95777000D01*
X168659711Y-95372167D01*
X168662734Y-95106644D01*
X168659711Y-94876934D01*
X168656597Y-94651528D01*
X169187093Y-94651528D01*
G37*
G36*
X171571025Y-94875011D02*
G01*
X171570017Y-95230109D01*
X171573132Y-95727907D01*
X171573132Y-95777000D01*
X171043644Y-95777000D01*
X171043644Y-95652069D01*
X170961793Y-95721043D01*
X170885283Y-95765184D01*
X170802760Y-95791307D01*
X170706405Y-95800447D01*
X170611540Y-95791521D01*
X170522871Y-95765079D01*
X170438754Y-95720641D01*
X170357993Y-95656466D01*
X170290026Y-95581384D01*
X170237866Y-95499890D01*
X170200444Y-95411047D01*
X170177498Y-95313503D01*
X170169590Y-95205563D01*
X170177314Y-95100651D01*
X170199639Y-95006727D01*
X170235909Y-94922011D01*
X170286311Y-94845088D01*
X170289848Y-94841305D01*
X170728754Y-94841305D01*
X170729761Y-94886276D01*
X170729761Y-95573942D01*
X170736814Y-95676524D01*
X170748482Y-95699984D01*
X170766650Y-95713508D01*
X170793417Y-95718381D01*
X170843320Y-95709693D01*
X170900670Y-95680737D01*
X170959778Y-95634453D01*
X171046758Y-95550128D01*
X171046758Y-94855044D01*
X170968201Y-94788751D01*
X170904425Y-94746234D01*
X170841620Y-94718219D01*
X170792409Y-94710147D01*
X170760534Y-94717304D01*
X170742034Y-94737166D01*
X170732937Y-94770473D01*
X170728754Y-94841305D01*
X170289848Y-94841305D01*
X170351856Y-94774993D01*
X170437312Y-94709425D01*
X170525569Y-94664070D01*
X170617817Y-94637142D01*
X170715656Y-94628081D01*
X170803730Y-94636907D01*
X170889313Y-94663527D01*
X170969935Y-94706088D01*
X171046666Y-94765010D01*
X171042636Y-94370161D01*
X171573132Y-94370161D01*
X171571025Y-94875011D01*
G37*
G36*
X172335261Y-94972189D02*
G01*
X172333246Y-95365481D01*
X172337367Y-95777000D01*
X171805773Y-95777000D01*
X171806872Y-95717648D01*
X171807879Y-95508546D01*
X171810994Y-95132198D01*
X171806872Y-94713902D01*
X171805773Y-94651528D01*
X172336360Y-94651528D01*
X172336360Y-94857334D01*
X172442686Y-94749198D01*
X172495637Y-94703827D01*
X172569992Y-94659773D01*
X172636878Y-94635642D01*
X172698236Y-94628081D01*
X172752943Y-94634901D01*
X172794865Y-94653818D01*
X172824088Y-94683702D01*
X172833333Y-94719489D01*
X172827457Y-94748303D01*
X172809886Y-94771604D01*
X172783979Y-94786909D01*
X172751451Y-94792212D01*
X172729082Y-94789201D01*
X172702083Y-94779115D01*
X172658830Y-94761799D01*
X172628535Y-94757041D01*
X172581460Y-94762350D01*
X172534796Y-94778565D01*
X172487577Y-94806867D01*
X172420765Y-94867378D01*
X172335261Y-94972189D01*
G37*
G36*
X173694881Y-94637439D02*
G01*
X173844132Y-94662235D01*
X173953921Y-94698367D01*
X174032810Y-94743028D01*
X174090637Y-94798584D01*
X174121836Y-94856692D01*
X174136220Y-94931457D01*
X174142627Y-95077427D01*
X174142627Y-95482992D01*
X174142495Y-95588212D01*
X174149130Y-95651428D01*
X174166125Y-95708160D01*
X174200147Y-95777000D01*
X173618269Y-95777000D01*
X173618269Y-95674051D01*
X173526425Y-95728594D01*
X173435086Y-95767840D01*
X173341607Y-95792463D01*
X173251263Y-95800447D01*
X173151797Y-95790306D01*
X173061419Y-95760523D01*
X172977955Y-95710688D01*
X172908525Y-95645921D01*
X172860650Y-95574457D01*
X172831932Y-95494834D01*
X172822067Y-95404590D01*
X172830226Y-95324032D01*
X172839720Y-95295688D01*
X173337176Y-95295688D01*
X173337176Y-95540603D01*
X173342213Y-95638331D01*
X173353589Y-95662779D01*
X173374581Y-95677579D01*
X173409075Y-95683210D01*
X173456224Y-95676966D01*
X173512939Y-95656099D01*
X173567679Y-95624812D01*
X173617261Y-95585208D01*
X173619276Y-95166270D01*
X173531948Y-95127599D01*
X173468152Y-95108309D01*
X173422355Y-95102889D01*
X173387139Y-95108402D01*
X173363101Y-95123385D01*
X173347251Y-95148227D01*
X173340700Y-95184928D01*
X173337176Y-95295688D01*
X172839720Y-95295688D01*
X172853800Y-95253652D01*
X172892642Y-95191296D01*
X172948188Y-95135587D01*
X173024307Y-95083603D01*
X173108986Y-95046131D01*
X173203788Y-95022995D01*
X173310706Y-95014962D01*
X173396499Y-95019032D01*
X173467052Y-95030258D01*
X173536098Y-95050248D01*
X173618269Y-95083655D01*
X173618269Y-94964129D01*
X173614239Y-94806043D01*
X173608142Y-94778260D01*
X173596195Y-94754019D01*
X173566691Y-94726200D01*
X173513992Y-94706451D01*
X173426477Y-94698423D01*
X173323961Y-94707258D01*
X173238349Y-94732156D01*
X173166431Y-94771847D01*
X173105908Y-94826651D01*
X173058234Y-94869430D01*
X173025857Y-94880140D01*
X173002742Y-94875954D01*
X172982810Y-94863379D01*
X172968941Y-94844965D01*
X172964491Y-94824361D01*
X172970961Y-94797767D01*
X172993218Y-94768036D01*
X173038863Y-94733199D01*
X173118914Y-94692103D01*
X173218444Y-94658363D01*
X173342536Y-94636176D01*
X173496178Y-94628081D01*
X173694881Y-94637439D01*
G37*
G36*
X176291354Y-94319328D02*
G01*
X176516576Y-95089334D01*
X176617968Y-95427671D01*
X176709192Y-95734318D01*
X176722656Y-95777000D01*
X176093426Y-95777000D01*
X175897787Y-95059475D01*
X175475827Y-95691270D01*
X175042418Y-95087410D01*
X174981485Y-95316280D01*
X174907779Y-95623493D01*
X174881216Y-95734400D01*
X174868761Y-95770588D01*
X174851366Y-95788000D01*
X174818844Y-95794585D01*
X174789849Y-95790151D01*
X174775578Y-95779407D01*
X174770851Y-95762345D01*
X174799610Y-95658389D01*
X174863174Y-95439944D01*
X174973816Y-95062589D01*
X175191803Y-94319511D01*
X175754355Y-95133755D01*
X176291354Y-94319328D01*
G37*
G36*
X177122543Y-94288095D02*
G01*
X177239198Y-94296617D01*
X177314759Y-94318027D01*
X177361242Y-94347989D01*
X177387123Y-94385371D01*
X177395942Y-94432626D01*
X177388177Y-94475412D01*
X177365055Y-94511291D01*
X177323585Y-94542169D01*
X177273744Y-94562463D01*
X177207755Y-94576100D01*
X177121535Y-94581187D01*
X177011986Y-94572688D01*
X176940306Y-94551198D01*
X176895541Y-94520754D01*
X176870173Y-94482138D01*
X176861417Y-94432626D01*
X176869984Y-94385607D01*
X176895025Y-94348452D01*
X176939687Y-94318689D01*
X177011792Y-94297237D01*
X177122543Y-94288095D01*
G37*
G36*
X177390813Y-94651528D02*
G01*
X177390813Y-94684226D01*
X177388798Y-94844144D01*
X177386783Y-95092265D01*
X177383669Y-95469528D01*
X177387790Y-95681745D01*
X177389897Y-95777000D01*
X176857295Y-95777000D01*
X176862424Y-95396805D01*
X176865447Y-95063505D01*
X176863432Y-94888200D01*
X176860318Y-94693386D01*
X176861508Y-94651528D01*
X177390813Y-94651528D01*
G37*
G36*
X177612555Y-95583559D02*
G01*
X177634308Y-95589908D01*
X177666868Y-95614883D01*
X177724965Y-95657000D01*
X177811399Y-95696216D01*
X177904350Y-95722063D01*
X177986613Y-95730105D01*
X178020776Y-95726586D01*
X178041568Y-95717832D01*
X178054943Y-95702872D01*
X178059519Y-95682020D01*
X178054037Y-95657777D01*
X178033691Y-95623768D01*
X177917828Y-95493159D01*
X177719211Y-95274523D01*
X177631972Y-95163797D01*
X177594284Y-95097473D01*
X177573324Y-95036296D01*
X177566668Y-94978783D01*
X177577693Y-94903713D01*
X177611639Y-94830589D01*
X177664561Y-94766068D01*
X177737119Y-94710330D01*
X177828792Y-94665112D01*
X177929691Y-94637563D01*
X178041934Y-94628081D01*
X178125493Y-94633614D01*
X178214331Y-94650790D01*
X178309380Y-94680746D01*
X178379860Y-94715166D01*
X178412010Y-94745458D01*
X178420938Y-94773345D01*
X178417630Y-94788617D01*
X178407199Y-94802745D01*
X178392435Y-94812486D01*
X178375967Y-94815660D01*
X178352732Y-94808702D01*
X178301503Y-94776733D01*
X178226616Y-94732831D01*
X178148837Y-94707051D01*
X178066572Y-94698423D01*
X178025512Y-94702440D01*
X178000260Y-94712437D01*
X177983915Y-94729751D01*
X177978278Y-94754935D01*
X177986959Y-94790180D01*
X178020410Y-94843137D01*
X178074686Y-94904753D01*
X178192510Y-95023480D01*
X178354076Y-95185779D01*
X178420480Y-95274531D01*
X178451037Y-95334214D01*
X178469160Y-95396418D01*
X178475251Y-95462201D01*
X178465839Y-95537110D01*
X178438167Y-95603586D01*
X178391131Y-95663915D01*
X178321195Y-95719206D01*
X178233960Y-95763214D01*
X178132051Y-95790737D01*
X178012258Y-95800447D01*
X177878819Y-95790001D01*
X177759234Y-95759753D01*
X177651115Y-95710413D01*
X177587093Y-95664709D01*
X177573882Y-95645544D01*
X177569690Y-95625233D01*
X177574593Y-95602303D01*
X177588021Y-95589048D01*
X177612555Y-95583559D01*
G37*
G36*
X179167313Y-94795510D02*
G01*
X179258179Y-94737958D01*
X179323934Y-94702178D01*
X179428753Y-94660287D01*
X179530244Y-94636012D01*
X179629573Y-94628081D01*
X179734943Y-94638193D01*
X179826494Y-94667282D01*
X179881638Y-94697678D01*
X179924492Y-94733387D01*
X179956828Y-94774535D01*
X179981679Y-94832218D01*
X180000075Y-94926600D01*
X180007478Y-95072298D01*
X180005463Y-95224522D01*
X180003448Y-95425748D01*
X180010684Y-95777000D01*
X179479089Y-95777000D01*
X179483119Y-95142090D01*
X179478082Y-94819323D01*
X179466054Y-94791716D01*
X179443200Y-94775094D01*
X179405175Y-94768765D01*
X179356937Y-94775371D01*
X179298105Y-94797616D01*
X179238538Y-94831806D01*
X179167222Y-94884445D01*
X179165207Y-95139800D01*
X179169328Y-95584841D01*
X179172534Y-95777000D01*
X178638833Y-95777000D01*
X178640848Y-95340934D01*
X178640848Y-94847259D01*
X178637825Y-94420261D01*
X178638924Y-94370161D01*
X179167313Y-94370161D01*
X179167313Y-94402034D01*
X179168321Y-94578805D01*
X179167313Y-94688348D01*
X179167313Y-94795510D01*
G37*
G36*
X180758708Y-94972189D02*
G01*
X180756693Y-95365481D01*
X180760815Y-95777000D01*
X180229220Y-95777000D01*
X180230319Y-95717648D01*
X180231327Y-95508546D01*
X180234441Y-95132198D01*
X180230319Y-94713902D01*
X180229220Y-94651528D01*
X180759807Y-94651528D01*
X180759807Y-94857334D01*
X180866134Y-94749198D01*
X180919084Y-94703827D01*
X180993439Y-94659773D01*
X181060325Y-94635642D01*
X181121684Y-94628081D01*
X181176390Y-94634901D01*
X181218312Y-94653818D01*
X181247536Y-94683702D01*
X181256780Y-94719489D01*
X181250904Y-94748303D01*
X181233333Y-94771604D01*
X181207426Y-94786909D01*
X181174898Y-94792212D01*
X181152529Y-94789201D01*
X181125530Y-94779115D01*
X181082277Y-94761799D01*
X181051983Y-94757041D01*
X181004907Y-94762350D01*
X180958243Y-94778565D01*
X180911024Y-94806867D01*
X180844212Y-94867378D01*
X180758708Y-94972189D01*
G37*
G36*
X182118328Y-94637439D02*
G01*
X182267580Y-94662235D01*
X182377368Y-94698367D01*
X182456257Y-94743028D01*
X182514084Y-94798584D01*
X182545284Y-94856692D01*
X182559668Y-94931457D01*
X182566075Y-95077427D01*
X182566075Y-95482992D01*
X182565943Y-95588212D01*
X182572578Y-95651428D01*
X182589573Y-95708160D01*
X182623594Y-95777000D01*
X182041716Y-95777000D01*
X182041716Y-95674051D01*
X181949873Y-95728594D01*
X181858534Y-95767840D01*
X181765054Y-95792463D01*
X181674710Y-95800447D01*
X181575244Y-95790306D01*
X181484866Y-95760523D01*
X181401403Y-95710688D01*
X181331972Y-95645921D01*
X181284097Y-95574457D01*
X181255379Y-95494834D01*
X181245515Y-95404590D01*
X181253673Y-95324032D01*
X181263167Y-95295688D01*
X181760623Y-95295688D01*
X181760623Y-95540603D01*
X181765660Y-95638331D01*
X181777036Y-95662779D01*
X181798028Y-95677579D01*
X181832522Y-95683210D01*
X181879671Y-95676966D01*
X181936386Y-95656099D01*
X181991127Y-95624812D01*
X182040708Y-95585208D01*
X182042723Y-95166270D01*
X181955395Y-95127599D01*
X181891599Y-95108309D01*
X181845803Y-95102889D01*
X181810586Y-95108402D01*
X181786548Y-95123385D01*
X181770698Y-95148227D01*
X181764147Y-95184928D01*
X181760623Y-95295688D01*
X181263167Y-95295688D01*
X181277248Y-95253652D01*
X181316089Y-95191296D01*
X181371636Y-95135587D01*
X181447755Y-95083603D01*
X181532433Y-95046131D01*
X181627235Y-95022995D01*
X181734153Y-95014962D01*
X181819946Y-95019032D01*
X181890499Y-95030258D01*
X181959546Y-95050248D01*
X182041716Y-95083655D01*
X182041716Y-94964129D01*
X182037686Y-94806043D01*
X182031589Y-94778260D01*
X182019642Y-94754019D01*
X181990138Y-94726200D01*
X181937439Y-94706451D01*
X181849924Y-94698423D01*
X181747409Y-94707258D01*
X181661797Y-94732156D01*
X181589878Y-94771847D01*
X181529355Y-94826651D01*
X181481682Y-94869430D01*
X181449305Y-94880140D01*
X181426189Y-94875954D01*
X181406257Y-94863379D01*
X181392388Y-94844965D01*
X181387939Y-94824361D01*
X181394409Y-94797767D01*
X181416665Y-94768036D01*
X181462310Y-94733199D01*
X181542361Y-94692103D01*
X181641892Y-94658363D01*
X181765983Y-94636176D01*
X181919625Y-94628081D01*
X182118328Y-94637439D01*
G37*
G36*
X161649148Y-97566286D02*
G01*
X161649148Y-97401147D01*
X161647133Y-97131228D01*
X161646034Y-97007947D01*
X161645026Y-96930552D01*
X161650542Y-96895771D01*
X161664066Y-96878412D01*
X161685876Y-96872575D01*
X161707110Y-96876390D01*
X161719307Y-96886405D01*
X161725859Y-96903378D01*
X161728740Y-96937055D01*
X161728740Y-96951527D01*
X161727733Y-97022235D01*
X161723611Y-97367900D01*
X161720589Y-97684896D01*
X161723611Y-98018288D01*
X161727825Y-98357999D01*
X161487315Y-98212150D01*
X161105463Y-97990261D01*
X160718096Y-97771657D01*
X160451045Y-97626736D01*
X160451961Y-97671616D01*
X160462311Y-98197440D01*
X160463318Y-98267874D01*
X160458029Y-98294658D01*
X160444060Y-98309244D01*
X160419355Y-98314585D01*
X160394852Y-98308545D01*
X160380197Y-98291179D01*
X160374383Y-98257524D01*
X160375391Y-98185991D01*
X160376490Y-98070495D01*
X160380612Y-97546319D01*
X160372277Y-96835023D01*
X160848659Y-97116443D01*
X161649148Y-97566286D01*
G37*
G36*
X162204190Y-96808095D02*
G01*
X162320845Y-96816617D01*
X162396406Y-96838027D01*
X162442889Y-96867989D01*
X162468769Y-96905371D01*
X162477589Y-96952626D01*
X162469823Y-96995412D01*
X162446702Y-97031291D01*
X162405232Y-97062169D01*
X162355391Y-97082463D01*
X162289402Y-97096100D01*
X162203182Y-97101187D01*
X162093633Y-97092688D01*
X162021953Y-97071198D01*
X161977188Y-97040754D01*
X161951820Y-97002138D01*
X161943064Y-96952626D01*
X161951631Y-96905607D01*
X161976672Y-96868452D01*
X162021334Y-96838689D01*
X162093439Y-96817237D01*
X162204190Y-96808095D01*
G37*
G36*
X162472460Y-97171528D02*
G01*
X162472460Y-97204226D01*
X162470445Y-97364144D01*
X162468430Y-97612265D01*
X162465316Y-97989528D01*
X162469437Y-98201745D01*
X162471544Y-98297000D01*
X161938942Y-98297000D01*
X161944071Y-97916805D01*
X161947094Y-97583505D01*
X161945079Y-97408200D01*
X161941964Y-97213386D01*
X161943155Y-97171528D01*
X162472460Y-97171528D01*
G37*
G36*
X163609013Y-97380997D02*
G01*
X163724510Y-97574438D01*
X163836251Y-97764855D01*
X164060924Y-98128380D01*
X164125043Y-98214158D01*
X164199318Y-98297000D01*
X163580895Y-98297000D01*
X163390477Y-97961318D01*
X163236146Y-97698635D01*
X163236146Y-97736462D01*
X163237154Y-97922667D01*
X163239260Y-98245434D01*
X163240359Y-98297000D01*
X162709772Y-98297000D01*
X162713894Y-97799385D01*
X162714901Y-97514079D01*
X162710780Y-96941360D01*
X162709681Y-96890161D01*
X163240268Y-96890161D01*
X163236146Y-97563080D01*
X163236146Y-97611532D01*
X163497550Y-97381965D01*
X163625958Y-97278598D01*
X163724995Y-97214700D01*
X163806513Y-97181452D01*
X163874719Y-97171528D01*
X163923336Y-97179609D01*
X163948045Y-97199720D01*
X163956510Y-97232803D01*
X163952664Y-97253222D01*
X163941306Y-97269714D01*
X163924395Y-97280707D01*
X163903387Y-97284460D01*
X163873895Y-97279331D01*
X163830572Y-97271180D01*
X163788301Y-97276803D01*
X163740538Y-97295085D01*
X163689223Y-97324952D01*
X163609013Y-97380997D01*
G37*
G36*
X164764801Y-97315510D02*
G01*
X164855667Y-97257958D01*
X164921422Y-97222178D01*
X165026241Y-97180287D01*
X165127732Y-97156012D01*
X165227061Y-97148081D01*
X165332431Y-97158193D01*
X165423982Y-97187282D01*
X165479126Y-97217678D01*
X165521980Y-97253387D01*
X165554316Y-97294535D01*
X165579167Y-97352218D01*
X165597563Y-97446600D01*
X165604966Y-97592298D01*
X165602951Y-97744522D01*
X165600936Y-97945748D01*
X165608172Y-98297000D01*
X165076577Y-98297000D01*
X165080607Y-97662090D01*
X165075570Y-97339323D01*
X165063542Y-97311716D01*
X165040688Y-97295094D01*
X165002663Y-97288765D01*
X164954425Y-97295371D01*
X164895593Y-97317616D01*
X164836026Y-97351806D01*
X164764710Y-97404445D01*
X164762695Y-97659800D01*
X164766816Y-98104841D01*
X164770022Y-98297000D01*
X164236321Y-98297000D01*
X164238336Y-97860934D01*
X164238336Y-97367259D01*
X164235313Y-96940261D01*
X164236412Y-96890161D01*
X164764801Y-96890161D01*
X164764801Y-96922034D01*
X164765809Y-97098805D01*
X164764801Y-97208348D01*
X164764801Y-97315510D01*
G37*
G36*
X166092047Y-96808095D02*
G01*
X166208703Y-96816617D01*
X166284263Y-96838027D01*
X166330746Y-96867989D01*
X166356627Y-96905371D01*
X166365447Y-96952626D01*
X166357681Y-96995412D01*
X166334559Y-97031291D01*
X166293090Y-97062169D01*
X166243248Y-97082463D01*
X166177260Y-97096100D01*
X166091040Y-97101187D01*
X165981491Y-97092688D01*
X165909810Y-97071198D01*
X165865046Y-97040754D01*
X165839677Y-97002138D01*
X165830921Y-96952626D01*
X165839489Y-96905607D01*
X165864530Y-96868452D01*
X165909192Y-96838689D01*
X165981297Y-96817237D01*
X166092047Y-96808095D01*
G37*
G36*
X166360318Y-97171528D02*
G01*
X166360318Y-97204226D01*
X166358303Y-97364144D01*
X166356288Y-97612265D01*
X166353173Y-97989528D01*
X166357295Y-98201745D01*
X166359402Y-98297000D01*
X165826800Y-98297000D01*
X165831929Y-97916805D01*
X165834951Y-97583505D01*
X165832936Y-97408200D01*
X165829822Y-97213386D01*
X165831013Y-97171528D01*
X166360318Y-97171528D01*
G37*
G36*
X167125927Y-96890161D02*
G01*
X167127118Y-96945482D01*
X167125011Y-97306717D01*
X167124004Y-97462696D01*
X167121989Y-97746995D01*
X167126019Y-98254043D01*
X167126019Y-98297000D01*
X166597630Y-98297000D01*
X166597630Y-98245800D01*
X166599645Y-98082676D01*
X166600744Y-97787020D01*
X166602759Y-97400140D01*
X166601752Y-97191770D01*
X166598637Y-96962884D01*
X166599645Y-96890161D01*
X167125927Y-96890161D01*
G37*
G36*
X168560467Y-96894655D02*
G01*
X168719245Y-96905548D01*
X168854780Y-96928665D01*
X168960680Y-96963067D01*
X169037865Y-97002527D01*
X169105993Y-97052462D01*
X169165959Y-97113419D01*
X169218234Y-97186458D01*
X169267380Y-97285448D01*
X169296211Y-97385837D01*
X169305795Y-97489166D01*
X169295056Y-97598924D01*
X169262846Y-97704345D01*
X169207975Y-97807262D01*
X169138663Y-97894701D01*
X169059453Y-97962627D01*
X168969302Y-98012966D01*
X168866304Y-98046351D01*
X168747822Y-98062068D01*
X168843545Y-98123437D01*
X168953077Y-98178114D01*
X169070223Y-98222216D01*
X169197900Y-98256058D01*
X169224180Y-98268401D01*
X169232064Y-98289581D01*
X169226929Y-98309333D01*
X169211841Y-98321424D01*
X169181964Y-98326309D01*
X169111139Y-98317906D01*
X169012773Y-98288037D01*
X168878431Y-98228215D01*
X168773138Y-98168946D01*
X168651611Y-98087813D01*
X168511700Y-97981010D01*
X168511700Y-98017372D01*
X168512708Y-98193502D01*
X168512708Y-98297000D01*
X167882836Y-98297000D01*
X167882836Y-98247907D01*
X167884851Y-97913325D01*
X167886899Y-97650092D01*
X168510693Y-97650092D01*
X168510693Y-97835564D01*
X168511700Y-97882458D01*
X168575184Y-97939517D01*
X168642950Y-97992184D01*
X168691127Y-97993192D01*
X168795012Y-97985422D01*
X168887609Y-97962999D01*
X168970769Y-97926607D01*
X169045951Y-97876047D01*
X169102167Y-97823190D01*
X169148880Y-97762352D01*
X169186543Y-97692682D01*
X169221042Y-97590148D01*
X169232339Y-97486968D01*
X169225036Y-97399944D01*
X169203472Y-97318604D01*
X169167520Y-97241666D01*
X169116201Y-97168140D01*
X169051934Y-97102473D01*
X168978269Y-97051501D01*
X168893910Y-97014358D01*
X168803390Y-96991040D01*
X168681170Y-96974201D01*
X168519852Y-96966364D01*
X168510693Y-97650092D01*
X167886899Y-97650092D01*
X167887965Y-97512980D01*
X167885858Y-96890161D01*
X168300674Y-96890161D01*
X168560467Y-96894655D01*
G37*
G36*
X170089462Y-97155206D02*
G01*
X170177378Y-97176255D01*
X170260929Y-97211255D01*
X170341049Y-97260921D01*
X170427145Y-97337201D01*
X170493204Y-97424723D01*
X170540840Y-97524993D01*
X170570195Y-97640449D01*
X170579918Y-97774289D01*
X170338301Y-97774289D01*
X170031013Y-97775297D01*
X169893443Y-97781067D01*
X169893443Y-98091378D01*
X169897110Y-98173487D01*
X169904434Y-98205408D01*
X169922675Y-98228736D01*
X169953680Y-98244093D01*
X170003261Y-98250105D01*
X170080437Y-98243249D01*
X170157998Y-98222360D01*
X170237001Y-98186357D01*
X170310107Y-98138843D01*
X170376733Y-98080341D01*
X170437311Y-98009953D01*
X170478069Y-97961776D01*
X170506279Y-97951152D01*
X170523458Y-97954550D01*
X170537145Y-97964616D01*
X170546129Y-97979520D01*
X170549235Y-97998229D01*
X170543589Y-98025303D01*
X170522979Y-98062419D01*
X170479717Y-98113726D01*
X170415813Y-98170077D01*
X170341267Y-98219859D01*
X170254861Y-98263019D01*
X170164055Y-98295522D01*
X170077066Y-98314325D01*
X169993002Y-98320447D01*
X169886041Y-98311176D01*
X169786926Y-98283876D01*
X169693931Y-98238426D01*
X169605755Y-98173535D01*
X169545843Y-98111897D01*
X169495790Y-98041305D01*
X169455271Y-97960769D01*
X169420358Y-97848754D01*
X169409018Y-97738844D01*
X169419118Y-97632791D01*
X169450142Y-97524612D01*
X169499618Y-97423684D01*
X169513865Y-97404811D01*
X169893443Y-97404811D01*
X169893443Y-97699185D01*
X170015534Y-97704955D01*
X170149898Y-97699185D01*
X170149898Y-97404811D01*
X170145868Y-97290963D01*
X170132038Y-97256891D01*
X170110085Y-97237299D01*
X170074009Y-97223776D01*
X170017549Y-97218423D01*
X169960784Y-97224607D01*
X169926617Y-97240017D01*
X169907548Y-97262570D01*
X169898244Y-97300344D01*
X169893443Y-97404811D01*
X169513865Y-97404811D01*
X169563440Y-97339140D01*
X169622503Y-97282766D01*
X169688204Y-97235668D01*
X169761185Y-97197449D01*
X169837257Y-97169990D01*
X169915297Y-97153584D01*
X169996025Y-97148081D01*
X170089462Y-97155206D01*
G37*
G36*
X172056091Y-97395011D02*
G01*
X172055084Y-97750109D01*
X172058198Y-98247907D01*
X172058198Y-98297000D01*
X171528710Y-98297000D01*
X171528710Y-98172069D01*
X171446859Y-98241043D01*
X171370349Y-98285184D01*
X171287826Y-98311307D01*
X171191472Y-98320447D01*
X171096606Y-98311521D01*
X171007937Y-98285079D01*
X170923820Y-98240641D01*
X170843059Y-98176466D01*
X170775092Y-98101384D01*
X170722932Y-98019890D01*
X170685510Y-97931047D01*
X170662564Y-97833503D01*
X170654656Y-97725563D01*
X170662380Y-97620651D01*
X170684705Y-97526727D01*
X170720976Y-97442011D01*
X170771377Y-97365088D01*
X170774914Y-97361305D01*
X171213820Y-97361305D01*
X171214827Y-97406276D01*
X171214827Y-98093942D01*
X171221880Y-98196524D01*
X171233549Y-98219984D01*
X171251716Y-98233508D01*
X171278483Y-98238381D01*
X171328386Y-98229693D01*
X171385736Y-98200737D01*
X171444844Y-98154453D01*
X171531824Y-98070128D01*
X171531824Y-97375044D01*
X171453267Y-97308751D01*
X171389491Y-97266234D01*
X171326686Y-97238219D01*
X171277476Y-97230147D01*
X171245600Y-97237304D01*
X171227101Y-97257166D01*
X171218004Y-97290473D01*
X171213820Y-97361305D01*
X170774914Y-97361305D01*
X170836923Y-97294993D01*
X170922378Y-97229425D01*
X171010635Y-97184070D01*
X171102884Y-97157142D01*
X171200722Y-97148081D01*
X171288796Y-97156907D01*
X171374379Y-97183527D01*
X171455001Y-97226088D01*
X171531732Y-97285010D01*
X171527702Y-96890161D01*
X172058198Y-96890161D01*
X172056091Y-97395011D01*
G37*
G36*
X173622665Y-97395011D02*
G01*
X173621657Y-97750109D01*
X173624771Y-98247907D01*
X173624771Y-98297000D01*
X173095284Y-98297000D01*
X173095284Y-98172069D01*
X173013433Y-98241043D01*
X172936923Y-98285184D01*
X172854400Y-98311307D01*
X172758045Y-98320447D01*
X172663180Y-98311521D01*
X172574510Y-98285079D01*
X172490394Y-98240641D01*
X172409633Y-98176466D01*
X172341666Y-98101384D01*
X172289506Y-98019890D01*
X172252084Y-97931047D01*
X172229138Y-97833503D01*
X172221230Y-97725563D01*
X172228954Y-97620651D01*
X172251279Y-97526727D01*
X172287549Y-97442011D01*
X172337951Y-97365088D01*
X172341488Y-97361305D01*
X172780393Y-97361305D01*
X172781401Y-97406276D01*
X172781401Y-98093942D01*
X172788453Y-98196524D01*
X172800122Y-98219984D01*
X172818290Y-98233508D01*
X172845057Y-98238381D01*
X172894960Y-98229693D01*
X172952310Y-98200737D01*
X173011418Y-98154453D01*
X173098398Y-98070128D01*
X173098398Y-97375044D01*
X173019841Y-97308751D01*
X172956065Y-97266234D01*
X172893260Y-97238219D01*
X172844049Y-97230147D01*
X172812174Y-97237304D01*
X172793674Y-97257166D01*
X172784577Y-97290473D01*
X172780393Y-97361305D01*
X172341488Y-97361305D01*
X172403496Y-97294993D01*
X172488952Y-97229425D01*
X172577208Y-97184070D01*
X172669457Y-97157142D01*
X172767296Y-97148081D01*
X172855370Y-97156907D01*
X172940953Y-97183527D01*
X173021575Y-97226088D01*
X173098306Y-97285010D01*
X173094276Y-96890161D01*
X173624771Y-96890161D01*
X173622665Y-97395011D01*
G37*
G36*
X174639967Y-97674638D02*
G01*
X174929761Y-97221904D01*
X174971343Y-97157881D01*
X174981711Y-97150686D01*
X174996806Y-97148081D01*
X175017104Y-97152021D01*
X175035640Y-97164201D01*
X175048778Y-97181774D01*
X175052951Y-97200929D01*
X175049097Y-97217271D01*
X175034908Y-97239489D01*
X174879099Y-97458839D01*
X174661124Y-97782807D01*
X174480782Y-98057580D01*
X174389227Y-98187411D01*
X174326725Y-98261371D01*
X174277431Y-98301323D01*
X174218648Y-98333636D01*
X174156063Y-98354803D01*
X174098206Y-98361480D01*
X174044276Y-98355451D01*
X174003501Y-98338948D01*
X173974930Y-98312472D01*
X173966131Y-98281337D01*
X173970388Y-98260540D01*
X173983351Y-98242778D01*
X174002396Y-98230734D01*
X174025391Y-98226658D01*
X174046853Y-98230626D01*
X174094084Y-98248181D01*
X174125622Y-98258788D01*
X174149405Y-98261829D01*
X174193022Y-98255068D01*
X174235501Y-98234168D01*
X174275414Y-98200588D01*
X174324069Y-98144317D01*
X174204268Y-97956739D01*
X173842551Y-97404915D01*
X173679360Y-97171528D01*
X174338724Y-97171528D01*
X174404921Y-97304838D01*
X174480690Y-97438791D01*
X174562276Y-97566821D01*
X174639967Y-97674638D01*
G37*
D12*
X142083095Y-86672419D02*
X142083095Y-87481942D01*
X142083095Y-87481942D02*
X142130714Y-87577180D01*
X142130714Y-87577180D02*
X142178333Y-87624800D01*
X142178333Y-87624800D02*
X142273571Y-87672419D01*
X142273571Y-87672419D02*
X142464047Y-87672419D01*
X142464047Y-87672419D02*
X142559285Y-87624800D01*
X142559285Y-87624800D02*
X142606904Y-87577180D01*
X142606904Y-87577180D02*
X142654523Y-87481942D01*
X142654523Y-87481942D02*
X142654523Y-86672419D01*
X143035476Y-86672419D02*
X143654523Y-86672419D01*
X143654523Y-86672419D02*
X143321190Y-87053371D01*
X143321190Y-87053371D02*
X143464047Y-87053371D01*
X143464047Y-87053371D02*
X143559285Y-87100990D01*
X143559285Y-87100990D02*
X143606904Y-87148609D01*
X143606904Y-87148609D02*
X143654523Y-87243847D01*
X143654523Y-87243847D02*
X143654523Y-87481942D01*
X143654523Y-87481942D02*
X143606904Y-87577180D01*
X143606904Y-87577180D02*
X143559285Y-87624800D01*
X143559285Y-87624800D02*
X143464047Y-87672419D01*
X143464047Y-87672419D02*
X143178333Y-87672419D01*
X143178333Y-87672419D02*
X143083095Y-87624800D01*
X143083095Y-87624800D02*
X143035476Y-87577180D01*
D13*
X161238095Y-61704819D02*
X161238095Y-62514342D01*
X161238095Y-62514342D02*
X161285714Y-62609580D01*
X161285714Y-62609580D02*
X161333333Y-62657200D01*
X161333333Y-62657200D02*
X161428571Y-62704819D01*
X161428571Y-62704819D02*
X161619047Y-62704819D01*
X161619047Y-62704819D02*
X161714285Y-62657200D01*
X161714285Y-62657200D02*
X161761904Y-62609580D01*
X161761904Y-62609580D02*
X161809523Y-62514342D01*
X161809523Y-62514342D02*
X161809523Y-61704819D01*
X162809523Y-62704819D02*
X162238095Y-62704819D01*
X162523809Y-62704819D02*
X162523809Y-61704819D01*
X162523809Y-61704819D02*
X162428571Y-61847676D01*
X162428571Y-61847676D02*
X162333333Y-61942914D01*
X162333333Y-61942914D02*
X162238095Y-61990533D01*
%TO.C,U3*%
D12*
X128305000Y-62135000D02*
X128305000Y-63135000D01*
X128305000Y-62135000D02*
X129305000Y-63135000D01*
X129305000Y-63135000D02*
X128305000Y-63135000D01*
X125065000Y-61815000D02*
X155545000Y-61815000D01*
X155545000Y-102455000D01*
X125065000Y-102455000D01*
X125065000Y-61815000D01*
D14*
%TO.C,REF\u002A\u002A*%
X178698322Y-111338069D02*
X178722035Y-111352839D01*
X178748686Y-111374419D01*
X178748686Y-111695965D01*
X178748601Y-111790022D01*
X178748237Y-111864124D01*
X178747432Y-111920896D01*
X178746021Y-111962960D01*
X178743841Y-111992940D01*
X178740729Y-112013459D01*
X178736522Y-112027141D01*
X178731056Y-112036608D01*
X178727180Y-112041274D01*
X178695742Y-112061767D01*
X178659941Y-112060931D01*
X178628581Y-112043456D01*
X178601930Y-112021876D01*
X178601930Y-111374419D01*
X178628581Y-111352839D01*
X178654302Y-111337141D01*
X178675308Y-111331259D01*
X178698322Y-111338069D01*
G36*
X178698322Y-111338069D02*
G01*
X178722035Y-111352839D01*
X178748686Y-111374419D01*
X178748686Y-111695965D01*
X178748601Y-111790022D01*
X178748237Y-111864124D01*
X178747432Y-111920896D01*
X178746021Y-111962960D01*
X178743841Y-111992940D01*
X178740729Y-112013459D01*
X178736522Y-112027141D01*
X178731056Y-112036608D01*
X178727180Y-112041274D01*
X178695742Y-112061767D01*
X178659941Y-112060931D01*
X178628581Y-112043456D01*
X178601930Y-112021876D01*
X178601930Y-111374419D01*
X178628581Y-111352839D01*
X178654302Y-111337141D01*
X178675308Y-111331259D01*
X178698322Y-111338069D01*
G37*
X171585886Y-111353837D02*
X171592466Y-111361410D01*
X171597629Y-111371179D01*
X171601544Y-111385763D01*
X171604384Y-111407777D01*
X171606321Y-111439840D01*
X171607525Y-111484567D01*
X171608169Y-111544577D01*
X171608424Y-111622486D01*
X171608463Y-111698148D01*
X171608394Y-111791994D01*
X171608070Y-111865881D01*
X171607322Y-111922424D01*
X171605976Y-111964241D01*
X171603862Y-111993949D01*
X171600808Y-112014165D01*
X171596642Y-112027506D01*
X171591192Y-112036590D01*
X171585886Y-112042459D01*
X171552882Y-112062139D01*
X171517717Y-112060373D01*
X171486253Y-112038909D01*
X171479024Y-112030529D01*
X171473374Y-112020806D01*
X171469109Y-112007053D01*
X171466035Y-111986581D01*
X171463956Y-111956704D01*
X171462678Y-111914733D01*
X171462007Y-111857981D01*
X171461749Y-111783759D01*
X171461708Y-111699729D01*
X171461708Y-111386677D01*
X171489417Y-111358968D01*
X171523571Y-111335655D01*
X171556702Y-111334815D01*
X171585886Y-111353837D01*
G36*
X171585886Y-111353837D02*
G01*
X171592466Y-111361410D01*
X171597629Y-111371179D01*
X171601544Y-111385763D01*
X171604384Y-111407777D01*
X171606321Y-111439840D01*
X171607525Y-111484567D01*
X171608169Y-111544577D01*
X171608424Y-111622486D01*
X171608463Y-111698148D01*
X171608394Y-111791994D01*
X171608070Y-111865881D01*
X171607322Y-111922424D01*
X171605976Y-111964241D01*
X171603862Y-111993949D01*
X171600808Y-112014165D01*
X171596642Y-112027506D01*
X171591192Y-112036590D01*
X171585886Y-112042459D01*
X171552882Y-112062139D01*
X171517717Y-112060373D01*
X171486253Y-112038909D01*
X171479024Y-112030529D01*
X171473374Y-112020806D01*
X171469109Y-112007053D01*
X171466035Y-111986581D01*
X171463956Y-111956704D01*
X171462678Y-111914733D01*
X171462007Y-111857981D01*
X171461749Y-111783759D01*
X171461708Y-111699729D01*
X171461708Y-111386677D01*
X171489417Y-111358968D01*
X171523571Y-111335655D01*
X171556702Y-111334815D01*
X171585886Y-111353837D01*
G37*
X171771921Y-104732490D02*
X171875027Y-104768238D01*
X171971022Y-104824507D01*
X172056753Y-104901288D01*
X172129070Y-104998573D01*
X172161555Y-105059892D01*
X172189668Y-105145660D01*
X172203295Y-105244677D01*
X172201786Y-105346471D01*
X172185031Y-105438714D01*
X172139237Y-105551432D01*
X172072832Y-105649207D01*
X171989191Y-105730115D01*
X171891688Y-105792232D01*
X171783700Y-105833634D01*
X171668601Y-105852397D01*
X171549766Y-105846598D01*
X171491189Y-105834206D01*
X171377028Y-105789797D01*
X171275635Y-105722033D01*
X171189455Y-105633001D01*
X171120934Y-105524791D01*
X171115136Y-105512973D01*
X171095096Y-105468628D01*
X171082513Y-105431280D01*
X171075681Y-105391880D01*
X171072895Y-105341381D01*
X171072432Y-105286433D01*
X171073197Y-105220415D01*
X171076648Y-105172689D01*
X171084523Y-105134103D01*
X171098557Y-105095506D01*
X171115880Y-105057426D01*
X171180495Y-104949328D01*
X171260066Y-104861803D01*
X171351440Y-104794841D01*
X171451464Y-104748436D01*
X171556988Y-104722581D01*
X171664858Y-104717268D01*
X171771921Y-104732490D01*
G36*
X171771921Y-104732490D02*
G01*
X171875027Y-104768238D01*
X171971022Y-104824507D01*
X172056753Y-104901288D01*
X172129070Y-104998573D01*
X172161555Y-105059892D01*
X172189668Y-105145660D01*
X172203295Y-105244677D01*
X172201786Y-105346471D01*
X172185031Y-105438714D01*
X172139237Y-105551432D01*
X172072832Y-105649207D01*
X171989191Y-105730115D01*
X171891688Y-105792232D01*
X171783700Y-105833634D01*
X171668601Y-105852397D01*
X171549766Y-105846598D01*
X171491189Y-105834206D01*
X171377028Y-105789797D01*
X171275635Y-105722033D01*
X171189455Y-105633001D01*
X171120934Y-105524791D01*
X171115136Y-105512973D01*
X171095096Y-105468628D01*
X171082513Y-105431280D01*
X171075681Y-105391880D01*
X171072895Y-105341381D01*
X171072432Y-105286433D01*
X171073197Y-105220415D01*
X171076648Y-105172689D01*
X171084523Y-105134103D01*
X171098557Y-105095506D01*
X171115880Y-105057426D01*
X171180495Y-104949328D01*
X171260066Y-104861803D01*
X171351440Y-104794841D01*
X171451464Y-104748436D01*
X171556988Y-104722581D01*
X171664858Y-104717268D01*
X171771921Y-104732490D01*
G37*
X179472773Y-111331355D02*
X179551480Y-111331734D01*
X179612571Y-111332525D01*
X179658525Y-111333862D01*
X179691822Y-111335875D01*
X179714944Y-111338698D01*
X179730370Y-111342461D01*
X179740579Y-111347297D01*
X179745521Y-111351014D01*
X179771165Y-111383550D01*
X179774267Y-111417330D01*
X179758419Y-111448018D01*
X179748056Y-111460281D01*
X179736904Y-111468642D01*
X179720743Y-111473849D01*
X179695350Y-111476649D01*
X179656506Y-111477788D01*
X179599988Y-111478013D01*
X179588888Y-111478014D01*
X179442952Y-111478014D01*
X179442952Y-111748948D01*
X179442856Y-111834346D01*
X179442419Y-111900056D01*
X179441420Y-111948966D01*
X179439636Y-111983965D01*
X179436845Y-112007941D01*
X179432825Y-112023785D01*
X179427353Y-112034383D01*
X179420374Y-112042459D01*
X179387442Y-112062304D01*
X179353062Y-112060740D01*
X179321884Y-112038098D01*
X179319594Y-112035292D01*
X179312137Y-112024684D01*
X179306455Y-112012273D01*
X179302309Y-111995042D01*
X179299458Y-111969976D01*
X179297662Y-111934059D01*
X179296680Y-111884275D01*
X179296272Y-111817609D01*
X179296197Y-111741781D01*
X179296197Y-111478014D01*
X179156835Y-111478014D01*
X179097030Y-111477610D01*
X179055626Y-111476032D01*
X179028456Y-111472739D01*
X179011354Y-111467184D01*
X179000151Y-111458823D01*
X178998791Y-111457370D01*
X178982433Y-111424131D01*
X178983880Y-111386554D01*
X179002686Y-111353837D01*
X179009958Y-111347490D01*
X179019335Y-111342458D01*
X179033317Y-111338588D01*
X179054404Y-111335729D01*
X179085097Y-111333727D01*
X179127897Y-111332431D01*
X179185303Y-111331690D01*
X179259818Y-111331350D01*
X179353941Y-111331260D01*
X179373968Y-111331259D01*
X179472773Y-111331355D01*
G36*
X179472773Y-111331355D02*
G01*
X179551480Y-111331734D01*
X179612571Y-111332525D01*
X179658525Y-111333862D01*
X179691822Y-111335875D01*
X179714944Y-111338698D01*
X179730370Y-111342461D01*
X179740579Y-111347297D01*
X179745521Y-111351014D01*
X179771165Y-111383550D01*
X179774267Y-111417330D01*
X179758419Y-111448018D01*
X179748056Y-111460281D01*
X179736904Y-111468642D01*
X179720743Y-111473849D01*
X179695350Y-111476649D01*
X179656506Y-111477788D01*
X179599988Y-111478013D01*
X179588888Y-111478014D01*
X179442952Y-111478014D01*
X179442952Y-111748948D01*
X179442856Y-111834346D01*
X179442419Y-111900056D01*
X179441420Y-111948966D01*
X179439636Y-111983965D01*
X179436845Y-112007941D01*
X179432825Y-112023785D01*
X179427353Y-112034383D01*
X179420374Y-112042459D01*
X179387442Y-112062304D01*
X179353062Y-112060740D01*
X179321884Y-112038098D01*
X179319594Y-112035292D01*
X179312137Y-112024684D01*
X179306455Y-112012273D01*
X179302309Y-111995042D01*
X179299458Y-111969976D01*
X179297662Y-111934059D01*
X179296680Y-111884275D01*
X179296272Y-111817609D01*
X179296197Y-111741781D01*
X179296197Y-111478014D01*
X179156835Y-111478014D01*
X179097030Y-111477610D01*
X179055626Y-111476032D01*
X179028456Y-111472739D01*
X179011354Y-111467184D01*
X179000151Y-111458823D01*
X178998791Y-111457370D01*
X178982433Y-111424131D01*
X178983880Y-111386554D01*
X179002686Y-111353837D01*
X179009958Y-111347490D01*
X179019335Y-111342458D01*
X179033317Y-111338588D01*
X179054404Y-111335729D01*
X179085097Y-111333727D01*
X179127897Y-111332431D01*
X179185303Y-111331690D01*
X179259818Y-111331350D01*
X179353941Y-111331260D01*
X179373968Y-111331259D01*
X179472773Y-111331355D01*
G37*
X180738531Y-111336725D02*
X180769910Y-111358968D01*
X180797619Y-111386677D01*
X180797619Y-111696112D01*
X180797546Y-111787991D01*
X180797203Y-111860032D01*
X180796400Y-111914972D01*
X180794949Y-111955552D01*
X180792660Y-111984509D01*
X180789344Y-112004583D01*
X180784813Y-112018513D01*
X180778877Y-112029037D01*
X180774222Y-112035292D01*
X180743491Y-112059865D01*
X180708204Y-112062533D01*
X180675953Y-112047463D01*
X180665296Y-112038566D01*
X180658172Y-112026749D01*
X180653875Y-112007718D01*
X180651699Y-111977184D01*
X180650936Y-111930854D01*
X180650863Y-111895063D01*
X180650863Y-111760237D01*
X180154152Y-111760237D01*
X180154152Y-111882892D01*
X180153639Y-111938979D01*
X180151584Y-111977525D01*
X180147216Y-112003553D01*
X180139764Y-112022089D01*
X180130755Y-112035292D01*
X180099852Y-112059796D01*
X180064904Y-112062698D01*
X180031446Y-112045281D01*
X180022312Y-112036151D01*
X180015860Y-112024047D01*
X180011605Y-112005193D01*
X180009060Y-111975812D01*
X180007737Y-111932129D01*
X180007151Y-111870367D01*
X180007083Y-111856192D01*
X180006599Y-111739823D01*
X180006349Y-111643919D01*
X180006431Y-111566369D01*
X180006939Y-111505061D01*
X180007970Y-111457882D01*
X180009621Y-111422722D01*
X180011987Y-111397468D01*
X180015165Y-111380009D01*
X180019252Y-111368233D01*
X180024342Y-111360027D01*
X180029974Y-111353837D01*
X180061836Y-111334036D01*
X180095065Y-111336725D01*
X180126443Y-111358968D01*
X180139141Y-111373318D01*
X180147234Y-111389170D01*
X180151750Y-111411746D01*
X180153714Y-111446270D01*
X180154152Y-111497968D01*
X180154152Y-111613481D01*
X180650863Y-111613481D01*
X180650863Y-111494948D01*
X180651370Y-111440340D01*
X180653406Y-111403467D01*
X180657743Y-111379499D01*
X180665155Y-111363607D01*
X180673441Y-111353837D01*
X180705302Y-111334036D01*
X180738531Y-111336725D01*
G36*
X180738531Y-111336725D02*
G01*
X180769910Y-111358968D01*
X180797619Y-111386677D01*
X180797619Y-111696112D01*
X180797546Y-111787991D01*
X180797203Y-111860032D01*
X180796400Y-111914972D01*
X180794949Y-111955552D01*
X180792660Y-111984509D01*
X180789344Y-112004583D01*
X180784813Y-112018513D01*
X180778877Y-112029037D01*
X180774222Y-112035292D01*
X180743491Y-112059865D01*
X180708204Y-112062533D01*
X180675953Y-112047463D01*
X180665296Y-112038566D01*
X180658172Y-112026749D01*
X180653875Y-112007718D01*
X180651699Y-111977184D01*
X180650936Y-111930854D01*
X180650863Y-111895063D01*
X180650863Y-111760237D01*
X180154152Y-111760237D01*
X180154152Y-111882892D01*
X180153639Y-111938979D01*
X180151584Y-111977525D01*
X180147216Y-112003553D01*
X180139764Y-112022089D01*
X180130755Y-112035292D01*
X180099852Y-112059796D01*
X180064904Y-112062698D01*
X180031446Y-112045281D01*
X180022312Y-112036151D01*
X180015860Y-112024047D01*
X180011605Y-112005193D01*
X180009060Y-111975812D01*
X180007737Y-111932129D01*
X180007151Y-111870367D01*
X180007083Y-111856192D01*
X180006599Y-111739823D01*
X180006349Y-111643919D01*
X180006431Y-111566369D01*
X180006939Y-111505061D01*
X180007970Y-111457882D01*
X180009621Y-111422722D01*
X180011987Y-111397468D01*
X180015165Y-111380009D01*
X180019252Y-111368233D01*
X180024342Y-111360027D01*
X180029974Y-111353837D01*
X180061836Y-111334036D01*
X180095065Y-111336725D01*
X180126443Y-111358968D01*
X180139141Y-111373318D01*
X180147234Y-111389170D01*
X180151750Y-111411746D01*
X180153714Y-111446270D01*
X180154152Y-111497968D01*
X180154152Y-111613481D01*
X180650863Y-111613481D01*
X180650863Y-111494948D01*
X180651370Y-111440340D01*
X180653406Y-111403467D01*
X180657743Y-111379499D01*
X180665155Y-111363607D01*
X180673441Y-111353837D01*
X180705302Y-111334036D01*
X180738531Y-111336725D01*
G37*
X175528017Y-111331467D02*
X175656996Y-111335828D01*
X175766699Y-111349053D01*
X175858934Y-111371933D01*
X175935510Y-111405262D01*
X175998235Y-111449830D01*
X176048920Y-111506428D01*
X176089371Y-111575850D01*
X176090167Y-111577543D01*
X176114309Y-111639675D01*
X176122911Y-111694701D01*
X176115939Y-111750079D01*
X176093362Y-111813265D01*
X176089080Y-111822881D01*
X176059880Y-111879158D01*
X176027064Y-111922643D01*
X175984710Y-111959609D01*
X175926898Y-111996327D01*
X175923539Y-111998244D01*
X175873212Y-112022419D01*
X175816329Y-112040474D01*
X175749235Y-112053031D01*
X175668273Y-112060714D01*
X175569790Y-112064145D01*
X175534994Y-112064443D01*
X175369302Y-112065037D01*
X175345905Y-112035292D01*
X175338965Y-112025511D01*
X175333550Y-112014089D01*
X175329473Y-111998287D01*
X175326545Y-111975367D01*
X175324575Y-111942588D01*
X175323933Y-111918281D01*
X175480552Y-111918281D01*
X175574434Y-111918281D01*
X175629372Y-111916675D01*
X175685768Y-111912447D01*
X175732053Y-111906484D01*
X175734847Y-111905982D01*
X175817056Y-111883928D01*
X175880822Y-111850792D01*
X175928160Y-111805039D01*
X175961090Y-111745131D01*
X175966816Y-111729253D01*
X175972429Y-111704525D01*
X175969999Y-111680094D01*
X175958175Y-111647592D01*
X175951048Y-111631626D01*
X175927708Y-111589198D01*
X175899588Y-111559432D01*
X175868648Y-111538703D01*
X175806674Y-111511729D01*
X175727359Y-111492190D01*
X175634961Y-111480938D01*
X175568041Y-111478462D01*
X175480552Y-111478014D01*
X175480552Y-111918281D01*
X175323933Y-111918281D01*
X175323376Y-111897213D01*
X175322758Y-111836503D01*
X175322533Y-111757718D01*
X175322508Y-111696112D01*
X175322508Y-111386677D01*
X175350217Y-111358968D01*
X175362514Y-111347736D01*
X175375811Y-111340045D01*
X175394380Y-111335232D01*
X175422494Y-111332638D01*
X175464425Y-111331602D01*
X175524445Y-111331462D01*
X175528017Y-111331467D01*
G36*
X175528017Y-111331467D02*
G01*
X175656996Y-111335828D01*
X175766699Y-111349053D01*
X175858934Y-111371933D01*
X175935510Y-111405262D01*
X175998235Y-111449830D01*
X176048920Y-111506428D01*
X176089371Y-111575850D01*
X176090167Y-111577543D01*
X176114309Y-111639675D01*
X176122911Y-111694701D01*
X176115939Y-111750079D01*
X176093362Y-111813265D01*
X176089080Y-111822881D01*
X176059880Y-111879158D01*
X176027064Y-111922643D01*
X175984710Y-111959609D01*
X175926898Y-111996327D01*
X175923539Y-111998244D01*
X175873212Y-112022419D01*
X175816329Y-112040474D01*
X175749235Y-112053031D01*
X175668273Y-112060714D01*
X175569790Y-112064145D01*
X175534994Y-112064443D01*
X175369302Y-112065037D01*
X175345905Y-112035292D01*
X175338965Y-112025511D01*
X175333550Y-112014089D01*
X175329473Y-111998287D01*
X175326545Y-111975367D01*
X175324575Y-111942588D01*
X175323933Y-111918281D01*
X175323376Y-111897213D01*
X175322758Y-111836503D01*
X175322533Y-111757718D01*
X175322508Y-111696112D01*
X175322508Y-111478014D01*
X175480552Y-111478014D01*
X175480552Y-111918281D01*
X175574434Y-111918281D01*
X175629372Y-111916675D01*
X175685768Y-111912447D01*
X175732053Y-111906484D01*
X175734847Y-111905982D01*
X175817056Y-111883928D01*
X175880822Y-111850792D01*
X175928160Y-111805039D01*
X175961090Y-111745131D01*
X175966816Y-111729253D01*
X175972429Y-111704525D01*
X175969999Y-111680094D01*
X175958175Y-111647592D01*
X175951048Y-111631626D01*
X175927708Y-111589198D01*
X175899588Y-111559432D01*
X175868648Y-111538703D01*
X175806674Y-111511729D01*
X175727359Y-111492190D01*
X175634961Y-111480938D01*
X175568041Y-111478462D01*
X175480552Y-111478014D01*
X175322508Y-111478014D01*
X175322508Y-111386677D01*
X175350217Y-111358968D01*
X175362514Y-111347736D01*
X175375811Y-111340045D01*
X175394380Y-111335232D01*
X175422494Y-111332638D01*
X175464425Y-111331602D01*
X175524445Y-111331462D01*
X175528017Y-111331467D01*
G37*
X168388337Y-111331258D02*
X168427819Y-111331659D01*
X168543508Y-111334451D01*
X168640397Y-111342742D01*
X168721789Y-111357424D01*
X168790985Y-111379385D01*
X168851288Y-111409514D01*
X168906000Y-111448702D01*
X168925541Y-111465724D01*
X168957958Y-111505555D01*
X168987188Y-111559605D01*
X169009717Y-111619515D01*
X169022029Y-111676931D01*
X169023308Y-111698148D01*
X169015291Y-111756961D01*
X168993809Y-111821205D01*
X168962709Y-111882013D01*
X168925842Y-111930522D01*
X168919854Y-111936374D01*
X168869129Y-111977513D01*
X168813583Y-112009627D01*
X168750012Y-112033557D01*
X168675214Y-112050145D01*
X168585986Y-112060233D01*
X168479126Y-112064661D01*
X168430180Y-112065037D01*
X168367946Y-112064737D01*
X168324180Y-112063484D01*
X168294777Y-112060746D01*
X168275629Y-112055993D01*
X168262631Y-112048693D01*
X168255663Y-112042459D01*
X168249082Y-112034886D01*
X168243920Y-112025116D01*
X168240005Y-112010532D01*
X168237165Y-111988518D01*
X168235228Y-111956456D01*
X168234024Y-111911728D01*
X168233380Y-111851718D01*
X168233125Y-111773809D01*
X168233086Y-111698148D01*
X168232838Y-111597233D01*
X168232891Y-111516619D01*
X168233851Y-111478014D01*
X168379841Y-111478014D01*
X168379841Y-111918281D01*
X168472974Y-111918196D01*
X168529015Y-111916588D01*
X168587709Y-111912448D01*
X168636680Y-111906656D01*
X168638170Y-111906418D01*
X168717316Y-111887282D01*
X168778706Y-111857479D01*
X168825403Y-111815070D01*
X168855073Y-111769153D01*
X168873355Y-111718218D01*
X168871937Y-111670392D01*
X168850720Y-111619125D01*
X168809219Y-111566091D01*
X168751710Y-111526792D01*
X168676958Y-111500523D01*
X168627000Y-111491227D01*
X168570292Y-111484699D01*
X168510189Y-111479974D01*
X168459069Y-111478009D01*
X168456041Y-111478000D01*
X168379841Y-111478014D01*
X168233851Y-111478014D01*
X168234448Y-111454043D01*
X168238710Y-111407247D01*
X168246878Y-111373970D01*
X168260152Y-111351951D01*
X168279734Y-111338931D01*
X168306825Y-111332649D01*
X168342626Y-111330845D01*
X168388337Y-111331258D01*
G36*
X168388337Y-111331258D02*
G01*
X168427819Y-111331659D01*
X168543508Y-111334451D01*
X168640397Y-111342742D01*
X168721789Y-111357424D01*
X168790985Y-111379385D01*
X168851288Y-111409514D01*
X168906000Y-111448702D01*
X168925541Y-111465724D01*
X168957958Y-111505555D01*
X168987188Y-111559605D01*
X169009717Y-111619515D01*
X169022029Y-111676931D01*
X169023308Y-111698148D01*
X169015291Y-111756961D01*
X168993809Y-111821205D01*
X168962709Y-111882013D01*
X168925842Y-111930522D01*
X168919854Y-111936374D01*
X168869129Y-111977513D01*
X168813583Y-112009627D01*
X168750012Y-112033557D01*
X168675214Y-112050145D01*
X168585986Y-112060233D01*
X168479126Y-112064661D01*
X168430180Y-112065037D01*
X168367946Y-112064737D01*
X168324180Y-112063484D01*
X168294777Y-112060746D01*
X168275629Y-112055993D01*
X168262631Y-112048693D01*
X168255663Y-112042459D01*
X168249082Y-112034886D01*
X168243920Y-112025116D01*
X168240005Y-112010532D01*
X168237165Y-111988518D01*
X168235228Y-111956456D01*
X168234200Y-111918281D01*
X168379841Y-111918281D01*
X168472974Y-111918196D01*
X168529015Y-111916588D01*
X168587709Y-111912448D01*
X168636680Y-111906656D01*
X168638170Y-111906418D01*
X168717316Y-111887282D01*
X168778706Y-111857479D01*
X168825403Y-111815070D01*
X168855073Y-111769153D01*
X168873355Y-111718218D01*
X168871937Y-111670392D01*
X168850720Y-111619125D01*
X168809219Y-111566091D01*
X168751710Y-111526792D01*
X168676958Y-111500523D01*
X168627000Y-111491227D01*
X168570292Y-111484699D01*
X168510189Y-111479974D01*
X168459069Y-111478009D01*
X168456041Y-111478000D01*
X168379841Y-111478014D01*
X168379841Y-111918281D01*
X168234200Y-111918281D01*
X168234024Y-111911728D01*
X168233380Y-111851718D01*
X168233125Y-111773809D01*
X168233086Y-111698148D01*
X168232838Y-111597233D01*
X168232891Y-111516619D01*
X168233851Y-111478014D01*
X168234448Y-111454043D01*
X168238710Y-111407247D01*
X168246878Y-111373970D01*
X168260152Y-111351951D01*
X168279734Y-111338931D01*
X168306825Y-111332649D01*
X168342626Y-111330845D01*
X168388337Y-111331258D01*
G37*
X173209594Y-111335640D02*
X173233160Y-111349465D01*
X173263973Y-111372073D01*
X173303630Y-111404530D01*
X173353728Y-111447900D01*
X173415865Y-111503250D01*
X173491636Y-111571643D01*
X173578374Y-111650276D01*
X173758997Y-111814070D01*
X173764641Y-111594221D01*
X173766679Y-111518543D01*
X173768645Y-111462186D01*
X173770974Y-111421898D01*
X173774102Y-111394427D01*
X173778463Y-111376521D01*
X173784492Y-111364929D01*
X173792624Y-111356400D01*
X173796936Y-111352815D01*
X173831467Y-111333862D01*
X173864325Y-111336633D01*
X173890390Y-111352825D01*
X173917041Y-111374391D01*
X173920356Y-111689343D01*
X173921273Y-111781971D01*
X173921740Y-111854736D01*
X173921595Y-111910353D01*
X173920676Y-111951534D01*
X173918821Y-111980995D01*
X173915869Y-112001447D01*
X173911658Y-112015605D01*
X173906026Y-112026183D01*
X173899781Y-112034666D01*
X173886269Y-112050399D01*
X173872825Y-112060828D01*
X173857584Y-112064831D01*
X173838682Y-112061286D01*
X173814253Y-112049071D01*
X173782435Y-112027063D01*
X173741360Y-111994141D01*
X173689166Y-111949183D01*
X173623986Y-111891067D01*
X173550152Y-111824291D01*
X173284863Y-111583650D01*
X173279219Y-111802781D01*
X173277177Y-111878320D01*
X173275206Y-111934546D01*
X173272869Y-111974716D01*
X173269727Y-112002088D01*
X173265344Y-112019920D01*
X173259284Y-112031471D01*
X173251108Y-112039999D01*
X173246924Y-112043474D01*
X173209943Y-112062564D01*
X173175000Y-112059685D01*
X173144572Y-112035292D01*
X173137611Y-112025478D01*
X173132185Y-112014018D01*
X173128105Y-111998160D01*
X173125179Y-111975155D01*
X173123216Y-111942254D01*
X173122025Y-111896708D01*
X173121416Y-111835765D01*
X173121197Y-111756678D01*
X173121174Y-111698148D01*
X173121248Y-111606599D01*
X173121595Y-111534879D01*
X173122407Y-111480237D01*
X173123875Y-111439924D01*
X173126189Y-111411190D01*
X173129541Y-111391285D01*
X173134120Y-111377460D01*
X173140119Y-111366964D01*
X173144572Y-111361003D01*
X173155858Y-111346883D01*
X173166407Y-111336221D01*
X173177815Y-111330084D01*
X173191678Y-111329535D01*
X173209594Y-111335640D01*
G36*
X173209594Y-111335640D02*
G01*
X173233160Y-111349465D01*
X173263973Y-111372073D01*
X173303630Y-111404530D01*
X173353728Y-111447900D01*
X173415865Y-111503250D01*
X173491636Y-111571643D01*
X173578374Y-111650276D01*
X173758997Y-111814070D01*
X173764641Y-111594221D01*
X173766679Y-111518543D01*
X173768645Y-111462186D01*
X173770974Y-111421898D01*
X173774102Y-111394427D01*
X173778463Y-111376521D01*
X173784492Y-111364929D01*
X173792624Y-111356400D01*
X173796936Y-111352815D01*
X173831467Y-111333862D01*
X173864325Y-111336633D01*
X173890390Y-111352825D01*
X173917041Y-111374391D01*
X173920356Y-111689343D01*
X173921273Y-111781971D01*
X173921740Y-111854736D01*
X173921595Y-111910353D01*
X173920676Y-111951534D01*
X173918821Y-111980995D01*
X173915869Y-112001447D01*
X173911658Y-112015605D01*
X173906026Y-112026183D01*
X173899781Y-112034666D01*
X173886269Y-112050399D01*
X173872825Y-112060828D01*
X173857584Y-112064831D01*
X173838682Y-112061286D01*
X173814253Y-112049071D01*
X173782435Y-112027063D01*
X173741360Y-111994141D01*
X173689166Y-111949183D01*
X173623986Y-111891067D01*
X173550152Y-111824291D01*
X173284863Y-111583650D01*
X173279219Y-111802781D01*
X173277177Y-111878320D01*
X173275206Y-111934546D01*
X173272869Y-111974716D01*
X173269727Y-112002088D01*
X173265344Y-112019920D01*
X173259284Y-112031471D01*
X173251108Y-112039999D01*
X173246924Y-112043474D01*
X173209943Y-112062564D01*
X173175000Y-112059685D01*
X173144572Y-112035292D01*
X173137611Y-112025478D01*
X173132185Y-112014018D01*
X173128105Y-111998160D01*
X173125179Y-111975155D01*
X173123216Y-111942254D01*
X173122025Y-111896708D01*
X173121416Y-111835765D01*
X173121197Y-111756678D01*
X173121174Y-111698148D01*
X173121248Y-111606599D01*
X173121595Y-111534879D01*
X173122407Y-111480237D01*
X173123875Y-111439924D01*
X173126189Y-111411190D01*
X173129541Y-111391285D01*
X173134120Y-111377460D01*
X173140119Y-111366964D01*
X173144572Y-111361003D01*
X173155858Y-111346883D01*
X173166407Y-111336221D01*
X173177815Y-111330084D01*
X173191678Y-111329535D01*
X173209594Y-111335640D01*
G37*
X172559627Y-111336791D02*
X172628143Y-111348287D01*
X172680765Y-111366159D01*
X172715000Y-111389691D01*
X172724329Y-111403116D01*
X172733815Y-111434340D01*
X172727431Y-111462587D01*
X172707278Y-111489374D01*
X172675963Y-111501905D01*
X172630525Y-111500888D01*
X172595382Y-111494098D01*
X172517289Y-111481163D01*
X172437482Y-111479934D01*
X172348153Y-111490433D01*
X172323479Y-111494882D01*
X172240417Y-111518300D01*
X172175435Y-111553137D01*
X172129247Y-111598796D01*
X172102563Y-111654686D01*
X172097045Y-111683580D01*
X172100657Y-111742204D01*
X172123979Y-111794071D01*
X172164884Y-111838170D01*
X172221249Y-111873491D01*
X172290948Y-111899021D01*
X172371856Y-111913751D01*
X172461848Y-111916670D01*
X172558798Y-111906767D01*
X172564272Y-111905833D01*
X172602833Y-111898651D01*
X172624214Y-111891713D01*
X172633481Y-111881419D01*
X172635702Y-111864168D01*
X172635752Y-111855033D01*
X172635752Y-111816681D01*
X172567277Y-111816681D01*
X172506808Y-111812539D01*
X172465543Y-111799339D01*
X172441533Y-111775922D01*
X172432831Y-111741128D01*
X172432725Y-111736586D01*
X172437816Y-111706846D01*
X172455275Y-111685611D01*
X172487769Y-111671558D01*
X172537965Y-111663365D01*
X172586585Y-111660353D01*
X172657252Y-111658625D01*
X172708510Y-111661262D01*
X172743469Y-111670992D01*
X172765238Y-111690545D01*
X172776928Y-111722648D01*
X172781648Y-111770030D01*
X172782508Y-111832263D01*
X172781099Y-111901727D01*
X172776860Y-111948978D01*
X172769772Y-111974204D01*
X172768397Y-111976180D01*
X172729480Y-112007700D01*
X172672422Y-112032662D01*
X172600839Y-112050532D01*
X172518350Y-112060778D01*
X172428569Y-112062865D01*
X172335116Y-112056260D01*
X172280152Y-112048148D01*
X172193942Y-112023746D01*
X172113816Y-111983854D01*
X172046731Y-111932079D01*
X172036535Y-111921731D01*
X172003406Y-111878227D01*
X171973514Y-111824310D01*
X171950351Y-111767784D01*
X171937410Y-111716451D01*
X171935850Y-111696736D01*
X171942490Y-111655611D01*
X171960140Y-111604444D01*
X171985411Y-111550586D01*
X172014919Y-111501387D01*
X172040989Y-111468526D01*
X172101943Y-111419644D01*
X172180739Y-111380737D01*
X172274551Y-111352686D01*
X172380558Y-111336371D01*
X172477708Y-111332384D01*
X172559627Y-111336791D01*
G36*
X172559627Y-111336791D02*
G01*
X172628143Y-111348287D01*
X172680765Y-111366159D01*
X172715000Y-111389691D01*
X172724329Y-111403116D01*
X172733815Y-111434340D01*
X172727431Y-111462587D01*
X172707278Y-111489374D01*
X172675963Y-111501905D01*
X172630525Y-111500888D01*
X172595382Y-111494098D01*
X172517289Y-111481163D01*
X172437482Y-111479934D01*
X172348153Y-111490433D01*
X172323479Y-111494882D01*
X172240417Y-111518300D01*
X172175435Y-111553137D01*
X172129247Y-111598796D01*
X172102563Y-111654686D01*
X172097045Y-111683580D01*
X172100657Y-111742204D01*
X172123979Y-111794071D01*
X172164884Y-111838170D01*
X172221249Y-111873491D01*
X172290948Y-111899021D01*
X172371856Y-111913751D01*
X172461848Y-111916670D01*
X172558798Y-111906767D01*
X172564272Y-111905833D01*
X172602833Y-111898651D01*
X172624214Y-111891713D01*
X172633481Y-111881419D01*
X172635702Y-111864168D01*
X172635752Y-111855033D01*
X172635752Y-111816681D01*
X172567277Y-111816681D01*
X172506808Y-111812539D01*
X172465543Y-111799339D01*
X172441533Y-111775922D01*
X172432831Y-111741128D01*
X172432725Y-111736586D01*
X172437816Y-111706846D01*
X172455275Y-111685611D01*
X172487769Y-111671558D01*
X172537965Y-111663365D01*
X172586585Y-111660353D01*
X172657252Y-111658625D01*
X172708510Y-111661262D01*
X172743469Y-111670992D01*
X172765238Y-111690545D01*
X172776928Y-111722648D01*
X172781648Y-111770030D01*
X172782508Y-111832263D01*
X172781099Y-111901727D01*
X172776860Y-111948978D01*
X172769772Y-111974204D01*
X172768397Y-111976180D01*
X172729480Y-112007700D01*
X172672422Y-112032662D01*
X172600839Y-112050532D01*
X172518350Y-112060778D01*
X172428569Y-112062865D01*
X172335116Y-112056260D01*
X172280152Y-112048148D01*
X172193942Y-112023746D01*
X172113816Y-111983854D01*
X172046731Y-111932079D01*
X172036535Y-111921731D01*
X172003406Y-111878227D01*
X171973514Y-111824310D01*
X171950351Y-111767784D01*
X171937410Y-111716451D01*
X171935850Y-111696736D01*
X171942490Y-111655611D01*
X171960140Y-111604444D01*
X171985411Y-111550586D01*
X172014919Y-111501387D01*
X172040989Y-111468526D01*
X172101943Y-111419644D01*
X172180739Y-111380737D01*
X172274551Y-111352686D01*
X172380558Y-111336371D01*
X172477708Y-111332384D01*
X172559627Y-111336791D01*
G37*
X174740051Y-111331452D02*
X174816409Y-111332366D01*
X174874925Y-111334503D01*
X174917963Y-111338367D01*
X174947891Y-111344459D01*
X174967076Y-111353282D01*
X174977884Y-111365338D01*
X174982681Y-111381131D01*
X174983835Y-111401162D01*
X174983841Y-111403527D01*
X174982839Y-111426184D01*
X174978104Y-111443695D01*
X174967041Y-111456766D01*
X174947056Y-111466105D01*
X174915554Y-111472419D01*
X174869940Y-111476414D01*
X174807621Y-111478798D01*
X174726001Y-111480278D01*
X174700985Y-111480606D01*
X174458908Y-111483659D01*
X174455522Y-111548570D01*
X174452137Y-111613481D01*
X174620284Y-111613481D01*
X174685974Y-111613723D01*
X174732880Y-111614748D01*
X174764791Y-111617003D01*
X174785499Y-111620934D01*
X174798792Y-111626990D01*
X174808463Y-111635616D01*
X174808525Y-111635685D01*
X174826064Y-111669304D01*
X174825430Y-111705640D01*
X174807022Y-111736615D01*
X174803379Y-111739799D01*
X174790449Y-111748004D01*
X174772732Y-111753713D01*
X174746278Y-111757354D01*
X174707140Y-111759359D01*
X174651370Y-111760156D01*
X174615702Y-111760237D01*
X174453263Y-111760237D01*
X174453263Y-111918281D01*
X174699869Y-111918281D01*
X174781288Y-111918423D01*
X174843118Y-111919006D01*
X174888345Y-111920260D01*
X174919956Y-111922419D01*
X174940939Y-111925715D01*
X174954281Y-111930381D01*
X174962969Y-111936649D01*
X174965158Y-111938925D01*
X174981322Y-111970472D01*
X174982505Y-112006360D01*
X174969244Y-112037477D01*
X174958751Y-112047463D01*
X174947837Y-112052961D01*
X174930925Y-112057214D01*
X174905341Y-112060372D01*
X174868409Y-112062584D01*
X174817454Y-112063998D01*
X174749802Y-112064764D01*
X174662777Y-112065030D01*
X174643102Y-112065037D01*
X174554619Y-112064979D01*
X174485935Y-112064659D01*
X174434272Y-112063859D01*
X174396853Y-112062359D01*
X174370898Y-112059941D01*
X174353630Y-112056386D01*
X174342270Y-112051474D01*
X174334040Y-112044987D01*
X174329525Y-112040330D01*
X174322729Y-112032081D01*
X174317420Y-112021861D01*
X174313414Y-112006992D01*
X174310529Y-111984794D01*
X174308582Y-111952585D01*
X174307389Y-111907688D01*
X174306769Y-111847420D01*
X174306537Y-111769103D01*
X174306508Y-111703186D01*
X174306579Y-111610820D01*
X174306916Y-111538309D01*
X174307706Y-111482929D01*
X174309134Y-111441957D01*
X174311387Y-111412670D01*
X174314651Y-111392345D01*
X174319112Y-111378258D01*
X174324956Y-111367687D01*
X174329905Y-111361003D01*
X174353302Y-111331259D01*
X174643482Y-111331259D01*
X174740051Y-111331452D01*
G36*
X174740051Y-111331452D02*
G01*
X174816409Y-111332366D01*
X174874925Y-111334503D01*
X174917963Y-111338367D01*
X174947891Y-111344459D01*
X174967076Y-111353282D01*
X174977884Y-111365338D01*
X174982681Y-111381131D01*
X174983835Y-111401162D01*
X174983841Y-111403527D01*
X174982839Y-111426184D01*
X174978104Y-111443695D01*
X174967041Y-111456766D01*
X174947056Y-111466105D01*
X174915554Y-111472419D01*
X174869940Y-111476414D01*
X174807621Y-111478798D01*
X174726001Y-111480278D01*
X174700985Y-111480606D01*
X174458908Y-111483659D01*
X174455522Y-111548570D01*
X174452137Y-111613481D01*
X174620284Y-111613481D01*
X174685974Y-111613723D01*
X174732880Y-111614748D01*
X174764791Y-111617003D01*
X174785499Y-111620934D01*
X174798792Y-111626990D01*
X174808463Y-111635616D01*
X174808525Y-111635685D01*
X174826064Y-111669304D01*
X174825430Y-111705640D01*
X174807022Y-111736615D01*
X174803379Y-111739799D01*
X174790449Y-111748004D01*
X174772732Y-111753713D01*
X174746278Y-111757354D01*
X174707140Y-111759359D01*
X174651370Y-111760156D01*
X174615702Y-111760237D01*
X174453263Y-111760237D01*
X174453263Y-111918281D01*
X174699869Y-111918281D01*
X174781288Y-111918423D01*
X174843118Y-111919006D01*
X174888345Y-111920260D01*
X174919956Y-111922419D01*
X174940939Y-111925715D01*
X174954281Y-111930381D01*
X174962969Y-111936649D01*
X174965158Y-111938925D01*
X174981322Y-111970472D01*
X174982505Y-112006360D01*
X174969244Y-112037477D01*
X174958751Y-112047463D01*
X174947837Y-112052961D01*
X174930925Y-112057214D01*
X174905341Y-112060372D01*
X174868409Y-112062584D01*
X174817454Y-112063998D01*
X174749802Y-112064764D01*
X174662777Y-112065030D01*
X174643102Y-112065037D01*
X174554619Y-112064979D01*
X174485935Y-112064659D01*
X174434272Y-112063859D01*
X174396853Y-112062359D01*
X174370898Y-112059941D01*
X174353630Y-112056386D01*
X174342270Y-112051474D01*
X174334040Y-112044987D01*
X174329525Y-112040330D01*
X174322729Y-112032081D01*
X174317420Y-112021861D01*
X174313414Y-112006992D01*
X174310529Y-111984794D01*
X174308582Y-111952585D01*
X174307389Y-111907688D01*
X174306769Y-111847420D01*
X174306537Y-111769103D01*
X174306508Y-111703186D01*
X174306579Y-111610820D01*
X174306916Y-111538309D01*
X174307706Y-111482929D01*
X174309134Y-111441957D01*
X174311387Y-111412670D01*
X174314651Y-111392345D01*
X174319112Y-111378258D01*
X174324956Y-111367687D01*
X174329905Y-111361003D01*
X174353302Y-111331259D01*
X174643482Y-111331259D01*
X174740051Y-111331452D01*
G37*
X169796914Y-111331338D02*
X169866322Y-111331710D01*
X169918711Y-111332577D01*
X169956861Y-111334138D01*
X169983549Y-111336595D01*
X170001555Y-111340149D01*
X170013659Y-111345002D01*
X170022639Y-111351353D01*
X170025890Y-111354276D01*
X170045665Y-111385334D01*
X170049226Y-111421020D01*
X170036217Y-111452702D01*
X170030202Y-111459105D01*
X170020473Y-111465313D01*
X170004807Y-111470102D01*
X169980300Y-111473706D01*
X169944047Y-111476356D01*
X169893143Y-111478287D01*
X169824682Y-111479731D01*
X169762091Y-111480610D01*
X169514374Y-111483659D01*
X169510989Y-111548570D01*
X169507603Y-111613481D01*
X169675750Y-111613481D01*
X169748749Y-111614111D01*
X169802191Y-111616745D01*
X169839080Y-111622501D01*
X169862420Y-111632496D01*
X169875214Y-111647848D01*
X169880466Y-111669674D01*
X169881263Y-111689930D01*
X169878785Y-111714784D01*
X169869431Y-111733098D01*
X169850325Y-111745829D01*
X169818590Y-111753933D01*
X169771349Y-111758368D01*
X169705725Y-111760091D01*
X169669907Y-111760237D01*
X169508730Y-111760237D01*
X169508730Y-111918281D01*
X169757086Y-111918281D01*
X169838495Y-111918394D01*
X169900366Y-111918904D01*
X169945740Y-111920062D01*
X169977654Y-111922122D01*
X169999149Y-111925338D01*
X170013265Y-111929964D01*
X170023040Y-111936251D01*
X170028019Y-111940859D01*
X170045098Y-111967752D01*
X170050597Y-111991659D01*
X170042745Y-112020859D01*
X170028019Y-112042459D01*
X170020162Y-112049258D01*
X170010020Y-112054538D01*
X169994864Y-112058490D01*
X169971967Y-112061305D01*
X169938599Y-112063174D01*
X169892033Y-112064290D01*
X169829541Y-112064843D01*
X169748394Y-112065025D01*
X169706286Y-112065037D01*
X169616110Y-112064957D01*
X169545784Y-112064590D01*
X169492579Y-112063744D01*
X169453768Y-112062228D01*
X169426621Y-112059851D01*
X169408410Y-112056421D01*
X169396408Y-112051746D01*
X169387886Y-112045636D01*
X169384552Y-112042459D01*
X169377953Y-112034862D01*
X169372781Y-112025062D01*
X169368862Y-112010431D01*
X169366024Y-111988344D01*
X169364093Y-111956174D01*
X169362896Y-111911295D01*
X169362260Y-111851081D01*
X169362011Y-111772905D01*
X169361974Y-111700115D01*
X169362008Y-111606899D01*
X169362243Y-111533623D01*
X169362878Y-111477650D01*
X169364114Y-111436343D01*
X169366152Y-111407064D01*
X169369191Y-111387176D01*
X169373431Y-111374042D01*
X169379073Y-111365024D01*
X169386317Y-111357485D01*
X169388102Y-111355804D01*
X169396763Y-111348364D01*
X169406826Y-111342601D01*
X169421083Y-111338304D01*
X169442325Y-111335256D01*
X169473344Y-111333243D01*
X169516931Y-111332052D01*
X169575877Y-111331467D01*
X169652974Y-111331275D01*
X169707707Y-111331259D01*
X169796914Y-111331338D01*
G36*
X169796914Y-111331338D02*
G01*
X169866322Y-111331710D01*
X169918711Y-111332577D01*
X169956861Y-111334138D01*
X169983549Y-111336595D01*
X170001555Y-111340149D01*
X170013659Y-111345002D01*
X170022639Y-111351353D01*
X170025890Y-111354276D01*
X170045665Y-111385334D01*
X170049226Y-111421020D01*
X170036217Y-111452702D01*
X170030202Y-111459105D01*
X170020473Y-111465313D01*
X170004807Y-111470102D01*
X169980300Y-111473706D01*
X169944047Y-111476356D01*
X169893143Y-111478287D01*
X169824682Y-111479731D01*
X169762091Y-111480610D01*
X169514374Y-111483659D01*
X169510989Y-111548570D01*
X169507603Y-111613481D01*
X169675750Y-111613481D01*
X169748749Y-111614111D01*
X169802191Y-111616745D01*
X169839080Y-111622501D01*
X169862420Y-111632496D01*
X169875214Y-111647848D01*
X169880466Y-111669674D01*
X169881263Y-111689930D01*
X169878785Y-111714784D01*
X169869431Y-111733098D01*
X169850325Y-111745829D01*
X169818590Y-111753933D01*
X169771349Y-111758368D01*
X169705725Y-111760091D01*
X169669907Y-111760237D01*
X169508730Y-111760237D01*
X169508730Y-111918281D01*
X169757086Y-111918281D01*
X169838495Y-111918394D01*
X169900366Y-111918904D01*
X169945740Y-111920062D01*
X169977654Y-111922122D01*
X169999149Y-111925338D01*
X170013265Y-111929964D01*
X170023040Y-111936251D01*
X170028019Y-111940859D01*
X170045098Y-111967752D01*
X170050597Y-111991659D01*
X170042745Y-112020859D01*
X170028019Y-112042459D01*
X170020162Y-112049258D01*
X170010020Y-112054538D01*
X169994864Y-112058490D01*
X169971967Y-112061305D01*
X169938599Y-112063174D01*
X169892033Y-112064290D01*
X169829541Y-112064843D01*
X169748394Y-112065025D01*
X169706286Y-112065037D01*
X169616110Y-112064957D01*
X169545784Y-112064590D01*
X169492579Y-112063744D01*
X169453768Y-112062228D01*
X169426621Y-112059851D01*
X169408410Y-112056421D01*
X169396408Y-112051746D01*
X169387886Y-112045636D01*
X169384552Y-112042459D01*
X169377953Y-112034862D01*
X169372781Y-112025062D01*
X169368862Y-112010431D01*
X169366024Y-111988344D01*
X169364093Y-111956174D01*
X169362896Y-111911295D01*
X169362260Y-111851081D01*
X169362011Y-111772905D01*
X169361974Y-111700115D01*
X169362008Y-111606899D01*
X169362243Y-111533623D01*
X169362878Y-111477650D01*
X169364114Y-111436343D01*
X169366152Y-111407064D01*
X169369191Y-111387176D01*
X169373431Y-111374042D01*
X169379073Y-111365024D01*
X169386317Y-111357485D01*
X169388102Y-111355804D01*
X169396763Y-111348364D01*
X169406826Y-111342601D01*
X169421083Y-111338304D01*
X169442325Y-111335256D01*
X169473344Y-111333243D01*
X169516931Y-111332052D01*
X169575877Y-111331467D01*
X169652974Y-111331275D01*
X169707707Y-111331259D01*
X169796914Y-111331338D01*
G37*
X178254373Y-111333226D02*
X178273963Y-111340227D01*
X178274718Y-111340569D01*
X178301321Y-111360870D01*
X178315978Y-111381753D01*
X178318846Y-111391544D01*
X178318704Y-111404553D01*
X178314669Y-111423087D01*
X178305854Y-111449449D01*
X178291377Y-111485944D01*
X178270353Y-111534879D01*
X178241896Y-111598557D01*
X178205123Y-111679285D01*
X178184883Y-111723408D01*
X178148333Y-111802177D01*
X178114023Y-111874615D01*
X178083260Y-111938072D01*
X178057356Y-111989900D01*
X178037618Y-112027451D01*
X178025358Y-112048076D01*
X178022932Y-112050925D01*
X177991891Y-112063494D01*
X177956829Y-112061811D01*
X177928708Y-112046524D01*
X177927562Y-112045281D01*
X177916376Y-112028346D01*
X177897612Y-111995362D01*
X177873583Y-111950572D01*
X177846605Y-111898224D01*
X177836909Y-111878934D01*
X177763722Y-111732342D01*
X177683948Y-111891585D01*
X177655475Y-111946607D01*
X177629058Y-111994324D01*
X177606856Y-112031085D01*
X177591027Y-112053236D01*
X177585662Y-112057933D01*
X177543965Y-112064294D01*
X177509557Y-112050925D01*
X177499436Y-112036638D01*
X177481922Y-112004884D01*
X177458443Y-111958789D01*
X177430428Y-111901477D01*
X177399307Y-111836072D01*
X177366507Y-111765699D01*
X177333458Y-111693483D01*
X177301589Y-111622547D01*
X177272327Y-111556017D01*
X177247103Y-111497018D01*
X177227344Y-111448673D01*
X177214480Y-111414107D01*
X177209939Y-111396445D01*
X177209985Y-111395805D01*
X177221034Y-111373580D01*
X177243118Y-111350945D01*
X177244418Y-111349960D01*
X177271561Y-111334617D01*
X177296666Y-111334766D01*
X177306076Y-111337658D01*
X177317542Y-111343910D01*
X177329718Y-111356206D01*
X177344065Y-111377100D01*
X177362044Y-111409141D01*
X177385115Y-111454880D01*
X177414738Y-111516869D01*
X177441453Y-111574090D01*
X177472188Y-111640418D01*
X177499729Y-111700066D01*
X177522646Y-111749917D01*
X177539506Y-111786856D01*
X177548881Y-111807765D01*
X177550248Y-111811037D01*
X177556397Y-111805689D01*
X177570530Y-111783301D01*
X177590765Y-111747138D01*
X177615223Y-111700469D01*
X177624956Y-111681214D01*
X177657925Y-111616196D01*
X177683351Y-111568846D01*
X177703320Y-111536411D01*
X177719918Y-111516138D01*
X177735232Y-111505274D01*
X177751348Y-111501067D01*
X177761851Y-111500592D01*
X177780378Y-111502234D01*
X177796612Y-111509023D01*
X177812743Y-111523758D01*
X177830959Y-111549236D01*
X177853447Y-111588253D01*
X177882397Y-111643606D01*
X177898370Y-111675095D01*
X177924278Y-111725279D01*
X177946875Y-111766896D01*
X177964166Y-111796434D01*
X177974158Y-111810381D01*
X177975517Y-111810962D01*
X177981969Y-111799985D01*
X177996416Y-111771482D01*
X178017411Y-111728436D01*
X178043505Y-111673830D01*
X178073254Y-111610646D01*
X178087888Y-111579263D01*
X178125958Y-111498270D01*
X178156613Y-111435948D01*
X178181445Y-111390263D01*
X178202045Y-111359181D01*
X178220006Y-111340670D01*
X178236918Y-111332696D01*
X178254373Y-111333226D01*
G36*
X178254373Y-111333226D02*
G01*
X178273963Y-111340227D01*
X178274718Y-111340569D01*
X178301321Y-111360870D01*
X178315978Y-111381753D01*
X178318846Y-111391544D01*
X178318704Y-111404553D01*
X178314669Y-111423087D01*
X178305854Y-111449449D01*
X178291377Y-111485944D01*
X178270353Y-111534879D01*
X178241896Y-111598557D01*
X178205123Y-111679285D01*
X178184883Y-111723408D01*
X178148333Y-111802177D01*
X178114023Y-111874615D01*
X178083260Y-111938072D01*
X178057356Y-111989900D01*
X178037618Y-112027451D01*
X178025358Y-112048076D01*
X178022932Y-112050925D01*
X177991891Y-112063494D01*
X177956829Y-112061811D01*
X177928708Y-112046524D01*
X177927562Y-112045281D01*
X177916376Y-112028346D01*
X177897612Y-111995362D01*
X177873583Y-111950572D01*
X177846605Y-111898224D01*
X177836909Y-111878934D01*
X177763722Y-111732342D01*
X177683948Y-111891585D01*
X177655475Y-111946607D01*
X177629058Y-111994324D01*
X177606856Y-112031085D01*
X177591027Y-112053236D01*
X177585662Y-112057933D01*
X177543965Y-112064294D01*
X177509557Y-112050925D01*
X177499436Y-112036638D01*
X177481922Y-112004884D01*
X177458443Y-111958789D01*
X177430428Y-111901477D01*
X177399307Y-111836072D01*
X177366507Y-111765699D01*
X177333458Y-111693483D01*
X177301589Y-111622547D01*
X177272327Y-111556017D01*
X177247103Y-111497018D01*
X177227344Y-111448673D01*
X177214480Y-111414107D01*
X177209939Y-111396445D01*
X177209985Y-111395805D01*
X177221034Y-111373580D01*
X177243118Y-111350945D01*
X177244418Y-111349960D01*
X177271561Y-111334617D01*
X177296666Y-111334766D01*
X177306076Y-111337658D01*
X177317542Y-111343910D01*
X177329718Y-111356206D01*
X177344065Y-111377100D01*
X177362044Y-111409141D01*
X177385115Y-111454880D01*
X177414738Y-111516869D01*
X177441453Y-111574090D01*
X177472188Y-111640418D01*
X177499729Y-111700066D01*
X177522646Y-111749917D01*
X177539506Y-111786856D01*
X177548881Y-111807765D01*
X177550248Y-111811037D01*
X177556397Y-111805689D01*
X177570530Y-111783301D01*
X177590765Y-111747138D01*
X177615223Y-111700469D01*
X177624956Y-111681214D01*
X177657925Y-111616196D01*
X177683351Y-111568846D01*
X177703320Y-111536411D01*
X177719918Y-111516138D01*
X177735232Y-111505274D01*
X177751348Y-111501067D01*
X177761851Y-111500592D01*
X177780378Y-111502234D01*
X177796612Y-111509023D01*
X177812743Y-111523758D01*
X177830959Y-111549236D01*
X177853447Y-111588253D01*
X177882397Y-111643606D01*
X177898370Y-111675095D01*
X177924278Y-111725279D01*
X177946875Y-111766896D01*
X177964166Y-111796434D01*
X177974158Y-111810381D01*
X177975517Y-111810962D01*
X177981969Y-111799985D01*
X177996416Y-111771482D01*
X178017411Y-111728436D01*
X178043505Y-111673830D01*
X178073254Y-111610646D01*
X178087888Y-111579263D01*
X178125958Y-111498270D01*
X178156613Y-111435948D01*
X178181445Y-111390263D01*
X178202045Y-111359181D01*
X178220006Y-111340670D01*
X178236918Y-111332696D01*
X178254373Y-111333226D01*
G37*
X170818005Y-111332543D02*
X170892820Y-111337773D01*
X170962402Y-111345942D01*
X171022706Y-111356742D01*
X171069688Y-111369865D01*
X171099302Y-111385005D01*
X171103848Y-111389461D01*
X171119654Y-111424042D01*
X171114861Y-111459543D01*
X171090344Y-111489917D01*
X171089174Y-111490788D01*
X171074754Y-111500146D01*
X171059700Y-111505068D01*
X171038703Y-111505665D01*
X171006451Y-111502053D01*
X170957635Y-111494346D01*
X170953708Y-111493697D01*
X170880969Y-111484761D01*
X170802491Y-111480353D01*
X170723781Y-111480311D01*
X170650347Y-111484471D01*
X170587697Y-111492671D01*
X170541338Y-111504749D01*
X170538292Y-111505963D01*
X170504660Y-111524807D01*
X170492844Y-111543877D01*
X170502094Y-111562631D01*
X170531661Y-111580529D01*
X170580797Y-111597029D01*
X170648751Y-111611588D01*
X170694063Y-111618598D01*
X170788252Y-111632081D01*
X170863164Y-111644406D01*
X170921991Y-111656641D01*
X170967923Y-111669853D01*
X171004153Y-111685109D01*
X171033870Y-111703477D01*
X171060266Y-111726023D01*
X171081478Y-111748163D01*
X171106643Y-111779011D01*
X171119027Y-111805537D01*
X171122900Y-111838218D01*
X171123041Y-111850187D01*
X171120132Y-111889904D01*
X171108506Y-111919451D01*
X171088385Y-111945678D01*
X171047492Y-111985768D01*
X171001891Y-112016341D01*
X170948195Y-112038395D01*
X170883016Y-112052927D01*
X170802964Y-112060933D01*
X170704651Y-112063410D01*
X170688419Y-112063369D01*
X170622859Y-112062010D01*
X170557842Y-112058922D01*
X170500456Y-112054548D01*
X170457786Y-112049332D01*
X170454336Y-112048733D01*
X170411912Y-112038683D01*
X170375928Y-112025988D01*
X170355558Y-112014382D01*
X170336601Y-111983764D01*
X170335281Y-111948110D01*
X170351623Y-111916336D01*
X170355279Y-111912743D01*
X170370393Y-111902068D01*
X170389293Y-111897468D01*
X170418546Y-111898251D01*
X170454057Y-111902319D01*
X170493738Y-111905954D01*
X170549363Y-111909020D01*
X170614302Y-111911245D01*
X170681923Y-111912356D01*
X170699708Y-111912429D01*
X170767580Y-111912156D01*
X170817254Y-111910838D01*
X170853098Y-111908019D01*
X170879484Y-111903242D01*
X170900782Y-111896049D01*
X170913582Y-111890059D01*
X170941708Y-111873425D01*
X170959640Y-111858360D01*
X170962261Y-111854089D01*
X170956732Y-111836455D01*
X170930448Y-111819384D01*
X170885230Y-111803650D01*
X170822900Y-111790030D01*
X170804537Y-111786996D01*
X170708618Y-111771930D01*
X170632067Y-111759338D01*
X170571928Y-111748303D01*
X170525248Y-111737912D01*
X170489071Y-111727248D01*
X170460443Y-111715397D01*
X170436410Y-111701443D01*
X170414016Y-111684473D01*
X170390306Y-111663570D01*
X170382328Y-111656241D01*
X170354355Y-111628891D01*
X170339548Y-111607221D01*
X170333756Y-111582424D01*
X170332819Y-111551175D01*
X170343133Y-111489897D01*
X170373956Y-111437832D01*
X170425113Y-111395150D01*
X170496425Y-111362017D01*
X170547308Y-111347156D01*
X170602608Y-111337558D01*
X170668855Y-111332128D01*
X170742002Y-111330559D01*
X170818005Y-111332543D01*
G36*
X170818005Y-111332543D02*
G01*
X170892820Y-111337773D01*
X170962402Y-111345942D01*
X171022706Y-111356742D01*
X171069688Y-111369865D01*
X171099302Y-111385005D01*
X171103848Y-111389461D01*
X171119654Y-111424042D01*
X171114861Y-111459543D01*
X171090344Y-111489917D01*
X171089174Y-111490788D01*
X171074754Y-111500146D01*
X171059700Y-111505068D01*
X171038703Y-111505665D01*
X171006451Y-111502053D01*
X170957635Y-111494346D01*
X170953708Y-111493697D01*
X170880969Y-111484761D01*
X170802491Y-111480353D01*
X170723781Y-111480311D01*
X170650347Y-111484471D01*
X170587697Y-111492671D01*
X170541338Y-111504749D01*
X170538292Y-111505963D01*
X170504660Y-111524807D01*
X170492844Y-111543877D01*
X170502094Y-111562631D01*
X170531661Y-111580529D01*
X170580797Y-111597029D01*
X170648751Y-111611588D01*
X170694063Y-111618598D01*
X170788252Y-111632081D01*
X170863164Y-111644406D01*
X170921991Y-111656641D01*
X170967923Y-111669853D01*
X171004153Y-111685109D01*
X171033870Y-111703477D01*
X171060266Y-111726023D01*
X171081478Y-111748163D01*
X171106643Y-111779011D01*
X171119027Y-111805537D01*
X171122900Y-111838218D01*
X171123041Y-111850187D01*
X171120132Y-111889904D01*
X171108506Y-111919451D01*
X171088385Y-111945678D01*
X171047492Y-111985768D01*
X171001891Y-112016341D01*
X170948195Y-112038395D01*
X170883016Y-112052927D01*
X170802964Y-112060933D01*
X170704651Y-112063410D01*
X170688419Y-112063369D01*
X170622859Y-112062010D01*
X170557842Y-112058922D01*
X170500456Y-112054548D01*
X170457786Y-112049332D01*
X170454336Y-112048733D01*
X170411912Y-112038683D01*
X170375928Y-112025988D01*
X170355558Y-112014382D01*
X170336601Y-111983764D01*
X170335281Y-111948110D01*
X170351623Y-111916336D01*
X170355279Y-111912743D01*
X170370393Y-111902068D01*
X170389293Y-111897468D01*
X170418546Y-111898251D01*
X170454057Y-111902319D01*
X170493738Y-111905954D01*
X170549363Y-111909020D01*
X170614302Y-111911245D01*
X170681923Y-111912356D01*
X170699708Y-111912429D01*
X170767580Y-111912156D01*
X170817254Y-111910838D01*
X170853098Y-111908019D01*
X170879484Y-111903242D01*
X170900782Y-111896049D01*
X170913582Y-111890059D01*
X170941708Y-111873425D01*
X170959640Y-111858360D01*
X170962261Y-111854089D01*
X170956732Y-111836455D01*
X170930448Y-111819384D01*
X170885230Y-111803650D01*
X170822900Y-111790030D01*
X170804537Y-111786996D01*
X170708618Y-111771930D01*
X170632067Y-111759338D01*
X170571928Y-111748303D01*
X170525248Y-111737912D01*
X170489071Y-111727248D01*
X170460443Y-111715397D01*
X170436410Y-111701443D01*
X170414016Y-111684473D01*
X170390306Y-111663570D01*
X170382328Y-111656241D01*
X170354355Y-111628891D01*
X170339548Y-111607221D01*
X170333756Y-111582424D01*
X170332819Y-111551175D01*
X170343133Y-111489897D01*
X170373956Y-111437832D01*
X170425113Y-111395150D01*
X170496425Y-111362017D01*
X170547308Y-111347156D01*
X170602608Y-111337558D01*
X170668855Y-111332128D01*
X170742002Y-111330559D01*
X170818005Y-111332543D01*
G37*
X174937962Y-105856499D02*
X175086014Y-105872707D01*
X175229452Y-105901718D01*
X175374110Y-105945045D01*
X175525824Y-106004201D01*
X175690428Y-106080700D01*
X175720071Y-106095517D01*
X175788098Y-106129031D01*
X175852256Y-106159208D01*
X175906215Y-106183166D01*
X175943640Y-106198024D01*
X175949389Y-106199895D01*
X176004486Y-106216402D01*
X175757851Y-106575201D01*
X175697552Y-106662893D01*
X175642422Y-106743012D01*
X175594336Y-106812836D01*
X175555168Y-106869647D01*
X175526794Y-106910723D01*
X175511087Y-106933346D01*
X175508536Y-106936928D01*
X175498171Y-106929438D01*
X175472660Y-106906918D01*
X175436563Y-106873461D01*
X175416642Y-106854550D01*
X175303773Y-106764778D01*
X175177014Y-106696561D01*
X175067783Y-106659195D01*
X175002214Y-106647460D01*
X174920116Y-106640308D01*
X174831144Y-106637874D01*
X174744956Y-106640288D01*
X174671205Y-106647683D01*
X174641776Y-106653347D01*
X174509133Y-106698982D01*
X174389606Y-106768663D01*
X174283283Y-106862260D01*
X174190253Y-106979649D01*
X174110605Y-107120700D01*
X174044426Y-107285286D01*
X173991806Y-107473280D01*
X173960533Y-107634217D01*
X173952374Y-107705263D01*
X173946815Y-107797046D01*
X173943802Y-107902968D01*
X173943281Y-108016434D01*
X173945200Y-108130849D01*
X173949503Y-108239617D01*
X173956137Y-108336143D01*
X173965049Y-108413831D01*
X173966979Y-108425817D01*
X174009499Y-108618892D01*
X174067433Y-108789773D01*
X174141133Y-108939224D01*
X174230951Y-109068011D01*
X174294707Y-109137639D01*
X174409286Y-109232173D01*
X174534942Y-109302246D01*
X174669557Y-109347477D01*
X174811011Y-109367484D01*
X174957183Y-109361885D01*
X175105955Y-109330300D01*
X175193911Y-109299394D01*
X175315629Y-109237506D01*
X175441080Y-109148729D01*
X175511353Y-109088694D01*
X175550811Y-109053947D01*
X175581812Y-109028454D01*
X175599458Y-109016170D01*
X175601648Y-109015795D01*
X175609524Y-109028347D01*
X175629932Y-109061516D01*
X175661132Y-109112458D01*
X175701386Y-109178331D01*
X175748957Y-109256289D01*
X175802104Y-109343490D01*
X175831687Y-109392067D01*
X176057648Y-109763215D01*
X175775527Y-109902639D01*
X175673522Y-109952719D01*
X175590889Y-109992210D01*
X175522578Y-110023073D01*
X175463537Y-110047268D01*
X175408714Y-110066758D01*
X175353060Y-110083503D01*
X175291523Y-110099465D01*
X175232540Y-110113482D01*
X175180115Y-110124329D01*
X175125288Y-110132526D01*
X175062572Y-110138528D01*
X174986477Y-110142790D01*
X174891516Y-110145767D01*
X174827513Y-110147052D01*
X174736192Y-110147930D01*
X174648627Y-110147487D01*
X174570612Y-110145852D01*
X174507942Y-110143149D01*
X174466413Y-110139505D01*
X174463952Y-110139142D01*
X174248303Y-110092487D01*
X174045793Y-110021729D01*
X173856495Y-109926914D01*
X173680479Y-109808089D01*
X173517816Y-109665300D01*
X173368578Y-109498594D01*
X173260496Y-109350433D01*
X173145434Y-109156502D01*
X173052423Y-108951699D01*
X172981013Y-108734383D01*
X172930756Y-108502912D01*
X172901201Y-108255643D01*
X172891889Y-108004559D01*
X172899548Y-107761670D01*
X172923613Y-107537570D01*
X172964852Y-107328477D01*
X173024027Y-107130613D01*
X173101904Y-106940196D01*
X173111203Y-106920468D01*
X173213648Y-106736059D01*
X173339472Y-106560576D01*
X173485112Y-106397650D01*
X173647001Y-106250914D01*
X173821576Y-106124001D01*
X173984244Y-106030905D01*
X174148573Y-105957991D01*
X174313251Y-105905174D01*
X174484652Y-105871015D01*
X174669153Y-105854078D01*
X174779459Y-105851580D01*
X174937962Y-105856499D01*
G36*
X174937962Y-105856499D02*
G01*
X175086014Y-105872707D01*
X175229452Y-105901718D01*
X175374110Y-105945045D01*
X175525824Y-106004201D01*
X175690428Y-106080700D01*
X175720071Y-106095517D01*
X175788098Y-106129031D01*
X175852256Y-106159208D01*
X175906215Y-106183166D01*
X175943640Y-106198024D01*
X175949389Y-106199895D01*
X176004486Y-106216402D01*
X175757851Y-106575201D01*
X175697552Y-106662893D01*
X175642422Y-106743012D01*
X175594336Y-106812836D01*
X175555168Y-106869647D01*
X175526794Y-106910723D01*
X175511087Y-106933346D01*
X175508536Y-106936928D01*
X175498171Y-106929438D01*
X175472660Y-106906918D01*
X175436563Y-106873461D01*
X175416642Y-106854550D01*
X175303773Y-106764778D01*
X175177014Y-106696561D01*
X175067783Y-106659195D01*
X175002214Y-106647460D01*
X174920116Y-106640308D01*
X174831144Y-106637874D01*
X174744956Y-106640288D01*
X174671205Y-106647683D01*
X174641776Y-106653347D01*
X174509133Y-106698982D01*
X174389606Y-106768663D01*
X174283283Y-106862260D01*
X174190253Y-106979649D01*
X174110605Y-107120700D01*
X174044426Y-107285286D01*
X173991806Y-107473280D01*
X173960533Y-107634217D01*
X173952374Y-107705263D01*
X173946815Y-107797046D01*
X173943802Y-107902968D01*
X173943281Y-108016434D01*
X173945200Y-108130849D01*
X173949503Y-108239617D01*
X173956137Y-108336143D01*
X173965049Y-108413831D01*
X173966979Y-108425817D01*
X174009499Y-108618892D01*
X174067433Y-108789773D01*
X174141133Y-108939224D01*
X174230951Y-109068011D01*
X174294707Y-109137639D01*
X174409286Y-109232173D01*
X174534942Y-109302246D01*
X174669557Y-109347477D01*
X174811011Y-109367484D01*
X174957183Y-109361885D01*
X175105955Y-109330300D01*
X175193911Y-109299394D01*
X175315629Y-109237506D01*
X175441080Y-109148729D01*
X175511353Y-109088694D01*
X175550811Y-109053947D01*
X175581812Y-109028454D01*
X175599458Y-109016170D01*
X175601648Y-109015795D01*
X175609524Y-109028347D01*
X175629932Y-109061516D01*
X175661132Y-109112458D01*
X175701386Y-109178331D01*
X175748957Y-109256289D01*
X175802104Y-109343490D01*
X175831687Y-109392067D01*
X176057648Y-109763215D01*
X175775527Y-109902639D01*
X175673522Y-109952719D01*
X175590889Y-109992210D01*
X175522578Y-110023073D01*
X175463537Y-110047268D01*
X175408714Y-110066758D01*
X175353060Y-110083503D01*
X175291523Y-110099465D01*
X175232540Y-110113482D01*
X175180115Y-110124329D01*
X175125288Y-110132526D01*
X175062572Y-110138528D01*
X174986477Y-110142790D01*
X174891516Y-110145767D01*
X174827513Y-110147052D01*
X174736192Y-110147930D01*
X174648627Y-110147487D01*
X174570612Y-110145852D01*
X174507942Y-110143149D01*
X174466413Y-110139505D01*
X174463952Y-110139142D01*
X174248303Y-110092487D01*
X174045793Y-110021729D01*
X173856495Y-109926914D01*
X173680479Y-109808089D01*
X173517816Y-109665300D01*
X173368578Y-109498594D01*
X173260496Y-109350433D01*
X173145434Y-109156502D01*
X173052423Y-108951699D01*
X172981013Y-108734383D01*
X172930756Y-108502912D01*
X172901201Y-108255643D01*
X172891889Y-108004559D01*
X172899548Y-107761670D01*
X172923613Y-107537570D01*
X172964852Y-107328477D01*
X173024027Y-107130613D01*
X173101904Y-106940196D01*
X173111203Y-106920468D01*
X173213648Y-106736059D01*
X173339472Y-106560576D01*
X173485112Y-106397650D01*
X173647001Y-106250914D01*
X173821576Y-106124001D01*
X173984244Y-106030905D01*
X174148573Y-105957991D01*
X174313251Y-105905174D01*
X174484652Y-105871015D01*
X174669153Y-105854078D01*
X174779459Y-105851580D01*
X174937962Y-105856499D01*
G37*
X181340270Y-105652825D02*
X181457041Y-105653304D01*
X181496729Y-105653545D01*
X182042486Y-105657135D01*
X182049351Y-107750919D01*
X182050258Y-108034842D01*
X182051062Y-108292640D01*
X182051815Y-108525646D01*
X182052569Y-108735194D01*
X182053375Y-108922618D01*
X182054285Y-109089250D01*
X182055351Y-109236425D01*
X182056624Y-109365477D01*
X182058156Y-109477739D01*
X182059998Y-109574544D01*
X182062203Y-109657226D01*
X182064822Y-109727119D01*
X182067906Y-109785557D01*
X182071508Y-109833872D01*
X182075678Y-109873400D01*
X182080469Y-109905473D01*
X182085931Y-109931424D01*
X182092118Y-109952589D01*
X182099080Y-109970299D01*
X182106869Y-109985889D01*
X182115537Y-110000693D01*
X182125135Y-110016044D01*
X182135715Y-110033276D01*
X182137884Y-110036946D01*
X182174268Y-110099031D01*
X181648431Y-110095434D01*
X181122594Y-110091838D01*
X181115729Y-109976331D01*
X181111992Y-109920899D01*
X181108097Y-109888851D01*
X181102811Y-109876135D01*
X181094903Y-109878696D01*
X181088270Y-109886024D01*
X181059374Y-109912714D01*
X181012279Y-109947021D01*
X180953620Y-109984846D01*
X180890031Y-110022090D01*
X180828149Y-110054653D01*
X180780634Y-110076077D01*
X180669316Y-110111283D01*
X180541596Y-110136222D01*
X180406901Y-110149941D01*
X180274663Y-110151486D01*
X180154308Y-110139906D01*
X180152326Y-110139574D01*
X179987641Y-110098250D01*
X179833479Y-110032412D01*
X179691328Y-109943474D01*
X179562675Y-109832852D01*
X179449007Y-109701961D01*
X179351810Y-109552216D01*
X179272572Y-109385033D01*
X179229430Y-109261190D01*
X179200979Y-109157581D01*
X179179880Y-109057252D01*
X179165488Y-108954109D01*
X179157158Y-108842057D01*
X179154245Y-108715001D01*
X179155535Y-108611252D01*
X180168650Y-108611252D01*
X180173444Y-108785222D01*
X180188568Y-108934895D01*
X180214485Y-109061597D01*
X180251663Y-109166658D01*
X180300565Y-109251406D01*
X180361658Y-109317169D01*
X180432177Y-109363659D01*
X180468871Y-109381014D01*
X180500696Y-109391419D01*
X180536177Y-109396179D01*
X180583841Y-109396601D01*
X180635189Y-109394748D01*
X180736169Y-109385841D01*
X180816035Y-109368398D01*
X180841135Y-109359661D01*
X180898448Y-109333857D01*
X180958897Y-109301453D01*
X180985297Y-109285233D01*
X181053946Y-109240205D01*
X181053946Y-107812982D01*
X180978432Y-107767718D01*
X180873121Y-107716572D01*
X180765525Y-107686324D01*
X180659581Y-107676795D01*
X180559224Y-107687807D01*
X180468387Y-107719181D01*
X180391007Y-107770740D01*
X180366039Y-107795488D01*
X180305856Y-107876577D01*
X180257145Y-107974734D01*
X180219499Y-108091643D01*
X180192512Y-108228985D01*
X180175775Y-108388444D01*
X180168883Y-108571700D01*
X180168650Y-108611252D01*
X179155535Y-108611252D01*
X179156073Y-108568067D01*
X179167647Y-108342053D01*
X179190920Y-108138192D01*
X179226504Y-107953513D01*
X179275013Y-107785048D01*
X179337060Y-107629826D01*
X179359201Y-107583808D01*
X179448385Y-107433739D01*
X179556159Y-107300377D01*
X179679990Y-107185877D01*
X179817342Y-107092389D01*
X179965683Y-107022068D01*
X180054604Y-106993060D01*
X180141933Y-106975840D01*
X180247011Y-106965594D01*
X180361029Y-106962318D01*
X180475177Y-106966009D01*
X180580648Y-106976660D01*
X180665334Y-106993370D01*
X180766128Y-107026140D01*
X180863822Y-107068279D01*
X180949296Y-107115519D01*
X180994789Y-107147581D01*
X181026169Y-107171422D01*
X181048142Y-107185939D01*
X181053141Y-107188000D01*
X181054690Y-107174718D01*
X181056135Y-107136663D01*
X181057443Y-107076519D01*
X181058583Y-106996973D01*
X181059521Y-106900711D01*
X181060226Y-106790419D01*
X181060667Y-106668781D01*
X181060811Y-106544885D01*
X181060730Y-106386196D01*
X181060335Y-106252408D01*
X181059395Y-106140960D01*
X181057680Y-106049295D01*
X181054957Y-105974853D01*
X181050997Y-105915075D01*
X181045569Y-105867402D01*
X181038441Y-105829274D01*
X181029384Y-105798134D01*
X181018167Y-105771421D01*
X181004558Y-105746577D01*
X180988328Y-105721043D01*
X180986240Y-105717881D01*
X180965306Y-105684810D01*
X180952667Y-105662069D01*
X180950973Y-105657272D01*
X180964216Y-105655759D01*
X181002002Y-105654528D01*
X181061416Y-105653599D01*
X181139542Y-105652992D01*
X181233465Y-105652727D01*
X181340270Y-105652825D01*
G36*
X181340270Y-105652825D02*
G01*
X181457041Y-105653304D01*
X181496729Y-105653545D01*
X182042486Y-105657135D01*
X182049351Y-107750919D01*
X182050258Y-108034842D01*
X182051062Y-108292640D01*
X182051815Y-108525646D01*
X182052569Y-108735194D01*
X182053375Y-108922618D01*
X182054285Y-109089250D01*
X182055351Y-109236425D01*
X182056624Y-109365477D01*
X182058156Y-109477739D01*
X182059998Y-109574544D01*
X182062203Y-109657226D01*
X182064822Y-109727119D01*
X182067906Y-109785557D01*
X182071508Y-109833872D01*
X182075678Y-109873400D01*
X182080469Y-109905473D01*
X182085931Y-109931424D01*
X182092118Y-109952589D01*
X182099080Y-109970299D01*
X182106869Y-109985889D01*
X182115537Y-110000693D01*
X182125135Y-110016044D01*
X182135715Y-110033276D01*
X182137884Y-110036946D01*
X182174268Y-110099031D01*
X181648431Y-110095434D01*
X181122594Y-110091838D01*
X181115729Y-109976331D01*
X181111992Y-109920899D01*
X181108097Y-109888851D01*
X181102811Y-109876135D01*
X181094903Y-109878696D01*
X181088270Y-109886024D01*
X181059374Y-109912714D01*
X181012279Y-109947021D01*
X180953620Y-109984846D01*
X180890031Y-110022090D01*
X180828149Y-110054653D01*
X180780634Y-110076077D01*
X180669316Y-110111283D01*
X180541596Y-110136222D01*
X180406901Y-110149941D01*
X180274663Y-110151486D01*
X180154308Y-110139906D01*
X180152326Y-110139574D01*
X179987641Y-110098250D01*
X179833479Y-110032412D01*
X179691328Y-109943474D01*
X179562675Y-109832852D01*
X179449007Y-109701961D01*
X179351810Y-109552216D01*
X179272572Y-109385033D01*
X179229430Y-109261190D01*
X179200979Y-109157581D01*
X179179880Y-109057252D01*
X179165488Y-108954109D01*
X179157158Y-108842057D01*
X179154245Y-108715001D01*
X179155535Y-108611252D01*
X180168650Y-108611252D01*
X180173444Y-108785222D01*
X180188568Y-108934895D01*
X180214485Y-109061597D01*
X180251663Y-109166658D01*
X180300565Y-109251406D01*
X180361658Y-109317169D01*
X180432177Y-109363659D01*
X180468871Y-109381014D01*
X180500696Y-109391419D01*
X180536177Y-109396179D01*
X180583841Y-109396601D01*
X180635189Y-109394748D01*
X180736169Y-109385841D01*
X180816035Y-109368398D01*
X180841135Y-109359661D01*
X180898448Y-109333857D01*
X180958897Y-109301453D01*
X180985297Y-109285233D01*
X181053946Y-109240205D01*
X181053946Y-107812982D01*
X180978432Y-107767718D01*
X180873121Y-107716572D01*
X180765525Y-107686324D01*
X180659581Y-107676795D01*
X180559224Y-107687807D01*
X180468387Y-107719181D01*
X180391007Y-107770740D01*
X180366039Y-107795488D01*
X180305856Y-107876577D01*
X180257145Y-107974734D01*
X180219499Y-108091643D01*
X180192512Y-108228985D01*
X180175775Y-108388444D01*
X180168883Y-108571700D01*
X180168650Y-108611252D01*
X179155535Y-108611252D01*
X179156073Y-108568067D01*
X179167647Y-108342053D01*
X179190920Y-108138192D01*
X179226504Y-107953513D01*
X179275013Y-107785048D01*
X179337060Y-107629826D01*
X179359201Y-107583808D01*
X179448385Y-107433739D01*
X179556159Y-107300377D01*
X179679990Y-107185877D01*
X179817342Y-107092389D01*
X179965683Y-107022068D01*
X180054604Y-106993060D01*
X180141933Y-106975840D01*
X180247011Y-106965594D01*
X180361029Y-106962318D01*
X180475177Y-106966009D01*
X180580648Y-106976660D01*
X180665334Y-106993370D01*
X180766128Y-107026140D01*
X180863822Y-107068279D01*
X180949296Y-107115519D01*
X180994789Y-107147581D01*
X181026169Y-107171422D01*
X181048142Y-107185939D01*
X181053141Y-107188000D01*
X181054690Y-107174718D01*
X181056135Y-107136663D01*
X181057443Y-107076519D01*
X181058583Y-106996973D01*
X181059521Y-106900711D01*
X181060226Y-106790419D01*
X181060667Y-106668781D01*
X181060811Y-106544885D01*
X181060730Y-106386196D01*
X181060335Y-106252408D01*
X181059395Y-106140960D01*
X181057680Y-106049295D01*
X181054957Y-105974853D01*
X181050997Y-105915075D01*
X181045569Y-105867402D01*
X181038441Y-105829274D01*
X181029384Y-105798134D01*
X181018167Y-105771421D01*
X181004558Y-105746577D01*
X180988328Y-105721043D01*
X180986240Y-105717881D01*
X180965306Y-105684810D01*
X180952667Y-105662069D01*
X180950973Y-105657272D01*
X180964216Y-105655759D01*
X181002002Y-105654528D01*
X181061416Y-105653599D01*
X181139542Y-105652992D01*
X181233465Y-105652727D01*
X181340270Y-105652825D01*
G37*
X177665505Y-106960229D02*
X177733531Y-106965378D01*
X177928163Y-106991273D01*
X178100529Y-107032575D01*
X178251470Y-107089853D01*
X178381825Y-107163674D01*
X178492434Y-107254608D01*
X178584135Y-107363222D01*
X178657770Y-107490085D01*
X178711539Y-107627352D01*
X178725187Y-107671137D01*
X178737073Y-107712141D01*
X178747334Y-107752569D01*
X178756113Y-107794630D01*
X178763548Y-107840531D01*
X178769780Y-107892480D01*
X178774950Y-107952685D01*
X178779196Y-108023352D01*
X178782660Y-108106689D01*
X178785481Y-108204905D01*
X178787800Y-108320205D01*
X178789757Y-108454799D01*
X178791491Y-108610893D01*
X178793143Y-108790695D01*
X178794324Y-108931676D01*
X178802270Y-109899622D01*
X178853756Y-109992770D01*
X178878137Y-110037645D01*
X178896280Y-110072501D01*
X178904935Y-110091054D01*
X178905243Y-110092311D01*
X178892014Y-110093749D01*
X178854326Y-110095074D01*
X178795183Y-110096249D01*
X178717586Y-110097237D01*
X178624536Y-110097999D01*
X178519035Y-110098500D01*
X178404084Y-110098701D01*
X178390378Y-110098703D01*
X177875513Y-110098703D01*
X177875513Y-109982000D01*
X177874635Y-109929260D01*
X177872292Y-109888926D01*
X177868921Y-109867300D01*
X177867431Y-109865298D01*
X177853804Y-109873683D01*
X177825757Y-109895692D01*
X177789303Y-109926601D01*
X177788485Y-109927316D01*
X177721962Y-109976843D01*
X177637948Y-110026575D01*
X177545937Y-110071626D01*
X177455421Y-110107110D01*
X177415567Y-110119236D01*
X177336255Y-110134637D01*
X177238935Y-110144465D01*
X177132516Y-110148580D01*
X177025907Y-110146841D01*
X176928017Y-110139108D01*
X176859513Y-110127981D01*
X176691520Y-110078648D01*
X176540281Y-110008342D01*
X176406782Y-109917933D01*
X176292006Y-109808295D01*
X176196937Y-109680299D01*
X176122560Y-109534818D01*
X176090474Y-109446541D01*
X176070365Y-109360739D01*
X176057038Y-109257736D01*
X176050872Y-109147034D01*
X176051074Y-109130925D01*
X176979648Y-109130925D01*
X176987348Y-109213184D01*
X177012989Y-109281546D01*
X177060378Y-109344970D01*
X177078579Y-109363567D01*
X177143282Y-109413846D01*
X177218066Y-109446056D01*
X177307662Y-109461648D01*
X177402012Y-109462796D01*
X177491501Y-109455216D01*
X177560018Y-109440389D01*
X177589775Y-109429253D01*
X177643408Y-109398904D01*
X177700235Y-109356221D01*
X177752082Y-109308317D01*
X177790778Y-109262301D01*
X177801054Y-109245421D01*
X177809042Y-109221782D01*
X177814721Y-109184168D01*
X177818356Y-109128985D01*
X177820211Y-109052640D01*
X177820594Y-108979981D01*
X177820335Y-108895270D01*
X177819287Y-108834018D01*
X177817045Y-108792227D01*
X177813206Y-108765899D01*
X177807365Y-108751035D01*
X177799118Y-108743639D01*
X177796567Y-108742461D01*
X177774400Y-108738833D01*
X177730680Y-108735866D01*
X177671311Y-108733827D01*
X177602196Y-108732983D01*
X177587189Y-108732982D01*
X177494805Y-108734457D01*
X177423432Y-108738842D01*
X177366719Y-108746738D01*
X177319872Y-108758270D01*
X177203669Y-108802215D01*
X177112543Y-108856243D01*
X177045705Y-108921219D01*
X177002365Y-108998005D01*
X176981734Y-109087467D01*
X176979648Y-109130925D01*
X176051074Y-109130925D01*
X176052244Y-109038133D01*
X176061532Y-108940536D01*
X176068777Y-108901105D01*
X176115039Y-108754701D01*
X176185384Y-108619995D01*
X176278484Y-108498280D01*
X176393012Y-108390847D01*
X176527640Y-108298988D01*
X176681040Y-108223996D01*
X176811459Y-108178458D01*
X176898623Y-108154533D01*
X176981996Y-108135943D01*
X177066976Y-108122084D01*
X177158965Y-108112351D01*
X177263362Y-108106141D01*
X177385568Y-108102851D01*
X177496055Y-108101924D01*
X177823677Y-108101027D01*
X177817401Y-108002547D01*
X177799579Y-107895695D01*
X177761667Y-107803852D01*
X177705280Y-107729310D01*
X177632031Y-107674364D01*
X177567535Y-107647552D01*
X177475123Y-107630654D01*
X177365111Y-107628227D01*
X177242656Y-107639378D01*
X177112914Y-107663210D01*
X176981042Y-107698830D01*
X176852198Y-107745343D01*
X176758566Y-107787883D01*
X176713517Y-107809728D01*
X176679156Y-107824984D01*
X176661681Y-107830937D01*
X176660733Y-107830746D01*
X176654703Y-107817412D01*
X176639645Y-107782068D01*
X176616977Y-107728101D01*
X176588115Y-107658896D01*
X176554477Y-107577840D01*
X176520284Y-107495118D01*
X176383586Y-107163803D01*
X176480820Y-107147833D01*
X176522964Y-107139820D01*
X176586319Y-107126361D01*
X176665457Y-107108679D01*
X176754951Y-107087996D01*
X176849373Y-107065532D01*
X176886973Y-107056403D01*
X177049637Y-107018674D01*
X177192050Y-106990388D01*
X177319527Y-106970972D01*
X177437384Y-106959854D01*
X177550938Y-106956464D01*
X177665505Y-106960229D01*
G36*
X177665505Y-106960229D02*
G01*
X177733531Y-106965378D01*
X177928163Y-106991273D01*
X178100529Y-107032575D01*
X178251470Y-107089853D01*
X178381825Y-107163674D01*
X178492434Y-107254608D01*
X178584135Y-107363222D01*
X178657770Y-107490085D01*
X178711539Y-107627352D01*
X178725187Y-107671137D01*
X178737073Y-107712141D01*
X178747334Y-107752569D01*
X178756113Y-107794630D01*
X178763548Y-107840531D01*
X178769780Y-107892480D01*
X178774950Y-107952685D01*
X178779196Y-108023352D01*
X178782660Y-108106689D01*
X178785481Y-108204905D01*
X178787800Y-108320205D01*
X178789757Y-108454799D01*
X178791491Y-108610893D01*
X178793143Y-108790695D01*
X178794324Y-108931676D01*
X178802270Y-109899622D01*
X178853756Y-109992770D01*
X178878137Y-110037645D01*
X178896280Y-110072501D01*
X178904935Y-110091054D01*
X178905243Y-110092311D01*
X178892014Y-110093749D01*
X178854326Y-110095074D01*
X178795183Y-110096249D01*
X178717586Y-110097237D01*
X178624536Y-110097999D01*
X178519035Y-110098500D01*
X178404084Y-110098701D01*
X178390378Y-110098703D01*
X177875513Y-110098703D01*
X177875513Y-109982000D01*
X177874635Y-109929260D01*
X177872292Y-109888926D01*
X177868921Y-109867300D01*
X177867431Y-109865298D01*
X177853804Y-109873683D01*
X177825757Y-109895692D01*
X177789303Y-109926601D01*
X177788485Y-109927316D01*
X177721962Y-109976843D01*
X177637948Y-110026575D01*
X177545937Y-110071626D01*
X177455421Y-110107110D01*
X177415567Y-110119236D01*
X177336255Y-110134637D01*
X177238935Y-110144465D01*
X177132516Y-110148580D01*
X177025907Y-110146841D01*
X176928017Y-110139108D01*
X176859513Y-110127981D01*
X176691520Y-110078648D01*
X176540281Y-110008342D01*
X176406782Y-109917933D01*
X176292006Y-109808295D01*
X176196937Y-109680299D01*
X176122560Y-109534818D01*
X176090474Y-109446541D01*
X176070365Y-109360739D01*
X176057038Y-109257736D01*
X176050872Y-109147034D01*
X176051074Y-109130925D01*
X176979648Y-109130925D01*
X176987348Y-109213184D01*
X177012989Y-109281546D01*
X177060378Y-109344970D01*
X177078579Y-109363567D01*
X177143282Y-109413846D01*
X177218066Y-109446056D01*
X177307662Y-109461648D01*
X177402012Y-109462796D01*
X177491501Y-109455216D01*
X177560018Y-109440389D01*
X177589775Y-109429253D01*
X177643408Y-109398904D01*
X177700235Y-109356221D01*
X177752082Y-109308317D01*
X177790778Y-109262301D01*
X177801054Y-109245421D01*
X177809042Y-109221782D01*
X177814721Y-109184168D01*
X177818356Y-109128985D01*
X177820211Y-109052640D01*
X177820594Y-108979981D01*
X177820335Y-108895270D01*
X177819287Y-108834018D01*
X177817045Y-108792227D01*
X177813206Y-108765899D01*
X177807365Y-108751035D01*
X177799118Y-108743639D01*
X177796567Y-108742461D01*
X177774400Y-108738833D01*
X177730680Y-108735866D01*
X177671311Y-108733827D01*
X177602196Y-108732983D01*
X177587189Y-108732982D01*
X177494805Y-108734457D01*
X177423432Y-108738842D01*
X177366719Y-108746738D01*
X177319872Y-108758270D01*
X177203669Y-108802215D01*
X177112543Y-108856243D01*
X177045705Y-108921219D01*
X177002365Y-108998005D01*
X176981734Y-109087467D01*
X176979648Y-109130925D01*
X176051074Y-109130925D01*
X176052244Y-109038133D01*
X176061532Y-108940536D01*
X176068777Y-108901105D01*
X176115039Y-108754701D01*
X176185384Y-108619995D01*
X176278484Y-108498280D01*
X176393012Y-108390847D01*
X176527640Y-108298988D01*
X176681040Y-108223996D01*
X176811459Y-108178458D01*
X176898623Y-108154533D01*
X176981996Y-108135943D01*
X177066976Y-108122084D01*
X177158965Y-108112351D01*
X177263362Y-108106141D01*
X177385568Y-108102851D01*
X177496055Y-108101924D01*
X177823677Y-108101027D01*
X177817401Y-108002547D01*
X177799579Y-107895695D01*
X177761667Y-107803852D01*
X177705280Y-107729310D01*
X177632031Y-107674364D01*
X177567535Y-107647552D01*
X177475123Y-107630654D01*
X177365111Y-107628227D01*
X177242656Y-107639378D01*
X177112914Y-107663210D01*
X176981042Y-107698830D01*
X176852198Y-107745343D01*
X176758566Y-107787883D01*
X176713517Y-107809728D01*
X176679156Y-107824984D01*
X176661681Y-107830937D01*
X176660733Y-107830746D01*
X176654703Y-107817412D01*
X176639645Y-107782068D01*
X176616977Y-107728101D01*
X176588115Y-107658896D01*
X176554477Y-107577840D01*
X176520284Y-107495118D01*
X176383586Y-107163803D01*
X176480820Y-107147833D01*
X176522964Y-107139820D01*
X176586319Y-107126361D01*
X176665457Y-107108679D01*
X176754951Y-107087996D01*
X176849373Y-107065532D01*
X176886973Y-107056403D01*
X177049637Y-107018674D01*
X177192050Y-106990388D01*
X177319527Y-106970972D01*
X177437384Y-106959854D01*
X177550938Y-106956464D01*
X177665505Y-106960229D01*
G37*
X168542257Y-105169689D02*
X168806780Y-105169725D01*
X168929912Y-105169730D01*
X170900811Y-105169730D01*
X170900811Y-105285910D01*
X170913211Y-105427291D01*
X170950636Y-105557684D01*
X171013423Y-105677862D01*
X171101906Y-105788602D01*
X171131843Y-105818511D01*
X171239534Y-105903348D01*
X171358275Y-105965221D01*
X171484540Y-106004159D01*
X171614803Y-106020190D01*
X171745535Y-106013342D01*
X171873212Y-105983643D01*
X171994305Y-105931120D01*
X172105288Y-105855803D01*
X172155132Y-105810363D01*
X172248017Y-105698952D01*
X172316127Y-105576435D01*
X172358871Y-105444215D01*
X172375653Y-105303692D01*
X172375876Y-105289867D01*
X172376756Y-105169734D01*
X172429557Y-105169732D01*
X172476396Y-105176089D01*
X172519183Y-105191556D01*
X172522011Y-105193154D01*
X172531675Y-105198168D01*
X172540549Y-105202073D01*
X172548665Y-105206007D01*
X172556057Y-105211106D01*
X172562755Y-105218508D01*
X172568792Y-105229351D01*
X172574199Y-105244772D01*
X172579010Y-105265909D01*
X172583255Y-105293899D01*
X172586968Y-105329879D01*
X172590179Y-105374987D01*
X172592922Y-105430360D01*
X172595228Y-105497137D01*
X172597129Y-105576453D01*
X172598658Y-105669447D01*
X172599846Y-105777257D01*
X172600726Y-105901019D01*
X172601330Y-106041871D01*
X172601689Y-106200950D01*
X172601835Y-106379395D01*
X172601802Y-106578342D01*
X172601620Y-106798929D01*
X172601323Y-107042293D01*
X172600941Y-107309572D01*
X172600508Y-107601903D01*
X172600055Y-107920424D01*
X172600002Y-107959230D01*
X172599596Y-108279782D01*
X172599251Y-108574012D01*
X172598931Y-108843056D01*
X172598600Y-109088052D01*
X172598221Y-109310137D01*
X172597757Y-109510447D01*
X172597172Y-109690119D01*
X172596430Y-109850290D01*
X172595494Y-109992098D01*
X172594327Y-110116679D01*
X172592893Y-110225170D01*
X172591156Y-110318707D01*
X172589078Y-110398429D01*
X172586624Y-110465472D01*
X172583756Y-110520973D01*
X172580439Y-110566068D01*
X172576636Y-110601895D01*
X172572310Y-110629591D01*
X172567425Y-110650293D01*
X172561945Y-110665137D01*
X172555832Y-110675260D01*
X172549050Y-110681800D01*
X172541563Y-110685893D01*
X172533334Y-110688676D01*
X172524327Y-110691287D01*
X172514505Y-110694862D01*
X172512106Y-110695950D01*
X172504565Y-110698396D01*
X172491944Y-110700642D01*
X172473141Y-110702698D01*
X172447053Y-110704572D01*
X172412578Y-110706271D01*
X172368615Y-110707803D01*
X172314061Y-110709177D01*
X172247815Y-110710400D01*
X172168774Y-110711481D01*
X172075837Y-110712427D01*
X171967901Y-110713247D01*
X171843864Y-110713947D01*
X171702624Y-110714538D01*
X171543079Y-110715025D01*
X171364128Y-110715419D01*
X171164668Y-110715725D01*
X170943596Y-110715953D01*
X170699812Y-110716110D01*
X170432213Y-110716205D01*
X170139697Y-110716245D01*
X169821161Y-110716238D01*
X169717979Y-110716228D01*
X169392377Y-110716176D01*
X169093119Y-110716091D01*
X168819091Y-110715963D01*
X168569176Y-110715785D01*
X168342260Y-110715548D01*
X168137227Y-110715242D01*
X167952962Y-110714860D01*
X167788350Y-110714392D01*
X167642275Y-110713830D01*
X167513624Y-110713165D01*
X167401279Y-110712388D01*
X167304126Y-110711491D01*
X167221050Y-110710465D01*
X167150936Y-110709301D01*
X167092668Y-110707991D01*
X167045131Y-110706525D01*
X167007210Y-110704896D01*
X166977790Y-110703093D01*
X166955755Y-110701110D01*
X166939990Y-110698936D01*
X166929380Y-110696563D01*
X166923596Y-110694391D01*
X166913316Y-110690056D01*
X166903878Y-110686859D01*
X166895245Y-110683665D01*
X166887381Y-110679338D01*
X166880252Y-110672744D01*
X166873821Y-110662747D01*
X166868053Y-110648212D01*
X166862911Y-110628003D01*
X166858360Y-110600985D01*
X166854365Y-110566023D01*
X166850889Y-110521981D01*
X166847898Y-110467724D01*
X166845354Y-110402117D01*
X166843223Y-110324024D01*
X166841468Y-110232310D01*
X166840055Y-110125840D01*
X166839685Y-110084973D01*
X167206116Y-110084973D01*
X168501266Y-110084973D01*
X168476345Y-110047217D01*
X168451553Y-110008417D01*
X168430560Y-109971469D01*
X168413065Y-109933788D01*
X168398770Y-109892788D01*
X168387377Y-109845883D01*
X168378587Y-109790487D01*
X168372102Y-109724016D01*
X168367623Y-109643883D01*
X168364850Y-109547502D01*
X168363487Y-109432289D01*
X168363233Y-109295657D01*
X168363791Y-109135020D01*
X168364107Y-109075382D01*
X168367675Y-108436041D01*
X168772702Y-108987449D01*
X168887446Y-109143876D01*
X168986857Y-109280088D01*
X169072010Y-109397890D01*
X169143978Y-109499084D01*
X169203834Y-109585477D01*
X169252652Y-109658874D01*
X169291505Y-109721077D01*
X169321466Y-109773893D01*
X169343609Y-109819125D01*
X169359007Y-109858578D01*
X169368734Y-109894058D01*
X169373863Y-109927368D01*
X169375468Y-109960313D01*
X169374621Y-109994697D01*
X169374405Y-109999019D01*
X169369946Y-110085031D01*
X170789308Y-110084973D01*
X170683735Y-109978522D01*
X170655087Y-109949406D01*
X170627910Y-109921076D01*
X170601011Y-109891968D01*
X170573197Y-109860520D01*
X170543275Y-109825169D01*
X170510054Y-109784354D01*
X170472339Y-109736511D01*
X170428940Y-109680079D01*
X170378662Y-109613494D01*
X170320312Y-109535195D01*
X170252700Y-109443619D01*
X170174631Y-109337204D01*
X170084912Y-109214387D01*
X169982352Y-109073605D01*
X169865758Y-108913297D01*
X169770191Y-108781798D01*
X169650251Y-108616596D01*
X169545620Y-108472152D01*
X169455352Y-108347094D01*
X169378497Y-108240052D01*
X169314109Y-108149654D01*
X169261239Y-108074529D01*
X169218940Y-108013304D01*
X169186264Y-107964610D01*
X169162262Y-107927074D01*
X169145987Y-107899325D01*
X169136492Y-107879992D01*
X169132827Y-107867703D01*
X169133929Y-107861242D01*
X169147276Y-107844048D01*
X169176134Y-107807655D01*
X169218760Y-107754224D01*
X169273415Y-107685919D01*
X169338356Y-107604903D01*
X169411842Y-107513340D01*
X169492132Y-107413392D01*
X169577485Y-107307224D01*
X169666160Y-107196997D01*
X169756414Y-107084876D01*
X169806056Y-107023244D01*
X171038627Y-107023244D01*
X171089854Y-107115919D01*
X171141081Y-107208595D01*
X171141081Y-109899622D01*
X171089854Y-109992298D01*
X171038627Y-110084973D01*
X171644604Y-110084973D01*
X171789266Y-110084931D01*
X171908756Y-110084741D01*
X172005358Y-110084308D01*
X172081358Y-110083536D01*
X172139043Y-110082330D01*
X172180699Y-110080594D01*
X172208611Y-110078232D01*
X172225065Y-110075150D01*
X172232348Y-110071251D01*
X172232745Y-110066440D01*
X172228542Y-110060622D01*
X172228499Y-110060574D01*
X172211187Y-110035532D01*
X172188264Y-109994815D01*
X172168019Y-109954168D01*
X172129621Y-109872162D01*
X172121789Y-107023244D01*
X171038627Y-107023244D01*
X169806056Y-107023244D01*
X169846507Y-106973024D01*
X169934698Y-106863604D01*
X170019246Y-106758778D01*
X170098408Y-106660711D01*
X170170444Y-106571566D01*
X170233613Y-106493505D01*
X170286173Y-106428692D01*
X170326383Y-106379290D01*
X170350000Y-106350487D01*
X170441710Y-106242778D01*
X170529940Y-106145580D01*
X170611597Y-106062076D01*
X170683590Y-105995448D01*
X170734681Y-105954599D01*
X170795093Y-105911135D01*
X169405702Y-105911135D01*
X169406092Y-105992666D01*
X169402209Y-106052606D01*
X169387610Y-106108177D01*
X169365012Y-106160855D01*
X169350322Y-106190615D01*
X169334528Y-106220103D01*
X169316186Y-106251276D01*
X169293855Y-106286093D01*
X169266091Y-106326510D01*
X169231451Y-106374486D01*
X169188493Y-106431978D01*
X169135773Y-106500943D01*
X169071849Y-106583339D01*
X168995279Y-106681124D01*
X168904619Y-106796255D01*
X168798426Y-106930690D01*
X168786432Y-106945859D01*
X168367675Y-107475412D01*
X168363622Y-106888922D01*
X168362805Y-106713251D01*
X168362979Y-106564532D01*
X168364151Y-106442275D01*
X168366331Y-106345989D01*
X168369526Y-106275183D01*
X168373744Y-106229369D01*
X168375162Y-106220679D01*
X168397409Y-106129135D01*
X168426557Y-106046608D01*
X168459818Y-105980253D01*
X168479800Y-105952110D01*
X168514278Y-105911135D01*
X167860086Y-105911135D01*
X167704031Y-105911269D01*
X167573533Y-105911703D01*
X167466690Y-105912489D01*
X167381602Y-105913676D01*
X167316365Y-105915317D01*
X167269079Y-105917461D01*
X167237843Y-105920159D01*
X167220754Y-105923462D01*
X167215912Y-105927421D01*
X167216247Y-105928298D01*
X167230115Y-105949231D01*
X167253268Y-105982412D01*
X167265246Y-105999193D01*
X167277631Y-106015940D01*
X167288763Y-106030915D01*
X167298712Y-106045594D01*
X167307549Y-106061449D01*
X167315343Y-106079955D01*
X167322165Y-106102585D01*
X167328084Y-106130813D01*
X167333171Y-106166113D01*
X167337496Y-106209958D01*
X167341129Y-106263822D01*
X167344140Y-106329180D01*
X167346599Y-106407504D01*
X167348577Y-106500268D01*
X167350142Y-106608947D01*
X167351366Y-106735013D01*
X167352319Y-106879942D01*
X167353070Y-107045206D01*
X167353689Y-107232279D01*
X167354248Y-107442635D01*
X167354815Y-107677748D01*
X167355345Y-107893741D01*
X167355845Y-108134535D01*
X167356105Y-108364274D01*
X167356132Y-108581493D01*
X167355933Y-108784722D01*
X167355514Y-108972496D01*
X167354882Y-109143345D01*
X167354044Y-109295803D01*
X167353008Y-109428403D01*
X167351780Y-109539676D01*
X167350367Y-109628156D01*
X167348775Y-109692375D01*
X167347013Y-109730865D01*
X167346679Y-109734933D01*
X167334534Y-109828248D01*
X167315573Y-109903190D01*
X167286698Y-109968594D01*
X167244810Y-110033293D01*
X167239571Y-110040352D01*
X167206116Y-110084973D01*
X166839685Y-110084973D01*
X166838946Y-110003479D01*
X166838107Y-109864090D01*
X166837502Y-109706539D01*
X166837095Y-109529691D01*
X166836850Y-109332410D01*
X166836733Y-109113560D01*
X166836705Y-108872007D01*
X166836733Y-108606615D01*
X166836780Y-108316249D01*
X166836810Y-107999773D01*
X166836811Y-107936946D01*
X166836828Y-107617137D01*
X166836888Y-107323661D01*
X166836998Y-107055390D01*
X166837167Y-106811198D01*
X166837403Y-106589957D01*
X166837716Y-106390540D01*
X166838115Y-106211820D01*
X166838607Y-106052671D01*
X166839203Y-105911966D01*
X166839910Y-105788576D01*
X166840737Y-105681376D01*
X166841693Y-105589238D01*
X166842787Y-105511035D01*
X166844027Y-105445641D01*
X166845422Y-105391928D01*
X166846982Y-105348769D01*
X166848714Y-105315037D01*
X166850628Y-105289605D01*
X166852732Y-105271347D01*
X166855034Y-105259134D01*
X166857545Y-105251841D01*
X166857637Y-105251659D01*
X166862808Y-105240518D01*
X166867115Y-105230431D01*
X166871879Y-105221346D01*
X166878422Y-105213212D01*
X166888065Y-105205976D01*
X166902129Y-105199586D01*
X166921937Y-105193989D01*
X166948809Y-105189133D01*
X166984067Y-105184966D01*
X167029032Y-105181436D01*
X167085026Y-105178491D01*
X167153371Y-105176077D01*
X167235386Y-105174144D01*
X167332395Y-105172638D01*
X167445718Y-105171508D01*
X167576677Y-105170702D01*
X167726593Y-105170166D01*
X167896787Y-105169849D01*
X168088582Y-105169699D01*
X168303298Y-105169663D01*
X168542257Y-105169689D01*
G36*
X168542257Y-105169689D02*
G01*
X168806780Y-105169725D01*
X168929912Y-105169730D01*
X170900811Y-105169730D01*
X170900811Y-105285910D01*
X170913211Y-105427291D01*
X170950636Y-105557684D01*
X171013423Y-105677862D01*
X171101906Y-105788602D01*
X171131843Y-105818511D01*
X171239534Y-105903348D01*
X171358275Y-105965221D01*
X171484540Y-106004159D01*
X171614803Y-106020190D01*
X171745535Y-106013342D01*
X171873212Y-105983643D01*
X171994305Y-105931120D01*
X172105288Y-105855803D01*
X172155132Y-105810363D01*
X172248017Y-105698952D01*
X172316127Y-105576435D01*
X172358871Y-105444215D01*
X172375653Y-105303692D01*
X172375876Y-105289867D01*
X172376756Y-105169734D01*
X172429557Y-105169732D01*
X172476396Y-105176089D01*
X172519183Y-105191556D01*
X172522011Y-105193154D01*
X172531675Y-105198168D01*
X172540549Y-105202073D01*
X172548665Y-105206007D01*
X172556057Y-105211106D01*
X172562755Y-105218508D01*
X172568792Y-105229351D01*
X172574199Y-105244772D01*
X172579010Y-105265909D01*
X172583255Y-105293899D01*
X172586968Y-105329879D01*
X172590179Y-105374987D01*
X172592922Y-105430360D01*
X172595228Y-105497137D01*
X172597129Y-105576453D01*
X172598658Y-105669447D01*
X172599846Y-105777257D01*
X172600726Y-105901019D01*
X172601330Y-106041871D01*
X172601689Y-106200950D01*
X172601835Y-106379395D01*
X172601802Y-106578342D01*
X172601620Y-106798929D01*
X172601323Y-107042293D01*
X172600941Y-107309572D01*
X172600508Y-107601903D01*
X172600055Y-107920424D01*
X172600002Y-107959230D01*
X172599596Y-108279782D01*
X172599251Y-108574012D01*
X172598931Y-108843056D01*
X172598600Y-109088052D01*
X172598221Y-109310137D01*
X172597757Y-109510447D01*
X172597172Y-109690119D01*
X172596430Y-109850290D01*
X172595494Y-109992098D01*
X172594327Y-110116679D01*
X172592893Y-110225170D01*
X172591156Y-110318707D01*
X172589078Y-110398429D01*
X172586624Y-110465472D01*
X172583756Y-110520973D01*
X172580439Y-110566068D01*
X172576636Y-110601895D01*
X172572310Y-110629591D01*
X172567425Y-110650293D01*
X172561945Y-110665137D01*
X172555832Y-110675260D01*
X172549050Y-110681800D01*
X172541563Y-110685893D01*
X172533334Y-110688676D01*
X172524327Y-110691287D01*
X172514505Y-110694862D01*
X172512106Y-110695950D01*
X172504565Y-110698396D01*
X172491944Y-110700642D01*
X172473141Y-110702698D01*
X172447053Y-110704572D01*
X172412578Y-110706271D01*
X172368615Y-110707803D01*
X172314061Y-110709177D01*
X172247815Y-110710400D01*
X172168774Y-110711481D01*
X172075837Y-110712427D01*
X171967901Y-110713247D01*
X171843864Y-110713947D01*
X171702624Y-110714538D01*
X171543079Y-110715025D01*
X171364128Y-110715419D01*
X171164668Y-110715725D01*
X170943596Y-110715953D01*
X170699812Y-110716110D01*
X170432213Y-110716205D01*
X170139697Y-110716245D01*
X169821161Y-110716238D01*
X169717979Y-110716228D01*
X169392377Y-110716176D01*
X169093119Y-110716091D01*
X168819091Y-110715963D01*
X168569176Y-110715785D01*
X168342260Y-110715548D01*
X168137227Y-110715242D01*
X167952962Y-110714860D01*
X167788350Y-110714392D01*
X167642275Y-110713830D01*
X167513624Y-110713165D01*
X167401279Y-110712388D01*
X167304126Y-110711491D01*
X167221050Y-110710465D01*
X167150936Y-110709301D01*
X167092668Y-110707991D01*
X167045131Y-110706525D01*
X167007210Y-110704896D01*
X166977790Y-110703093D01*
X166955755Y-110701110D01*
X166939990Y-110698936D01*
X166929380Y-110696563D01*
X166923596Y-110694391D01*
X166913316Y-110690056D01*
X166903878Y-110686859D01*
X166895245Y-110683665D01*
X166887381Y-110679338D01*
X166880252Y-110672744D01*
X166873821Y-110662747D01*
X166868053Y-110648212D01*
X166862911Y-110628003D01*
X166858360Y-110600985D01*
X166854365Y-110566023D01*
X166850889Y-110521981D01*
X166847898Y-110467724D01*
X166845354Y-110402117D01*
X166843223Y-110324024D01*
X166841468Y-110232310D01*
X166840055Y-110125840D01*
X166839685Y-110084973D01*
X167206116Y-110084973D01*
X168501266Y-110084973D01*
X168476345Y-110047217D01*
X168451553Y-110008417D01*
X168430560Y-109971469D01*
X168413065Y-109933788D01*
X168398770Y-109892788D01*
X168387377Y-109845883D01*
X168378587Y-109790487D01*
X168372102Y-109724016D01*
X168367623Y-109643883D01*
X168364850Y-109547502D01*
X168363487Y-109432289D01*
X168363233Y-109295657D01*
X168363791Y-109135020D01*
X168364107Y-109075382D01*
X168367675Y-108436041D01*
X168772702Y-108987449D01*
X168887446Y-109143876D01*
X168986857Y-109280088D01*
X169072010Y-109397890D01*
X169143978Y-109499084D01*
X169203834Y-109585477D01*
X169252652Y-109658874D01*
X169291505Y-109721077D01*
X169321466Y-109773893D01*
X169343609Y-109819125D01*
X169359007Y-109858578D01*
X169368734Y-109894058D01*
X169373863Y-109927368D01*
X169375468Y-109960313D01*
X169374621Y-109994697D01*
X169374405Y-109999019D01*
X169369946Y-110085031D01*
X170789308Y-110084973D01*
X171038627Y-110084973D01*
X171644604Y-110084973D01*
X171789266Y-110084931D01*
X171908756Y-110084741D01*
X172005358Y-110084308D01*
X172081358Y-110083536D01*
X172139043Y-110082330D01*
X172180699Y-110080594D01*
X172208611Y-110078232D01*
X172225065Y-110075150D01*
X172232348Y-110071251D01*
X172232745Y-110066440D01*
X172228542Y-110060622D01*
X172228499Y-110060574D01*
X172211187Y-110035532D01*
X172188264Y-109994815D01*
X172168019Y-109954168D01*
X172129621Y-109872162D01*
X172121789Y-107023244D01*
X171038627Y-107023244D01*
X171089854Y-107115919D01*
X171141081Y-107208595D01*
X171141081Y-109899622D01*
X171089854Y-109992298D01*
X171038627Y-110084973D01*
X170789308Y-110084973D01*
X170683735Y-109978522D01*
X170655087Y-109949406D01*
X170627910Y-109921076D01*
X170601011Y-109891968D01*
X170573197Y-109860520D01*
X170543275Y-109825169D01*
X170510054Y-109784354D01*
X170472339Y-109736511D01*
X170428940Y-109680079D01*
X170378662Y-109613494D01*
X170320312Y-109535195D01*
X170252700Y-109443619D01*
X170174631Y-109337204D01*
X170084912Y-109214387D01*
X169982352Y-109073605D01*
X169865758Y-108913297D01*
X169770191Y-108781798D01*
X169650251Y-108616596D01*
X169545620Y-108472152D01*
X169455352Y-108347094D01*
X169378497Y-108240052D01*
X169314109Y-108149654D01*
X169261239Y-108074529D01*
X169218940Y-108013304D01*
X169186264Y-107964610D01*
X169162262Y-107927074D01*
X169145987Y-107899325D01*
X169136492Y-107879992D01*
X169132827Y-107867703D01*
X169133929Y-107861242D01*
X169147276Y-107844048D01*
X169176134Y-107807655D01*
X169218760Y-107754224D01*
X169273415Y-107685919D01*
X169338356Y-107604903D01*
X169411842Y-107513340D01*
X169492132Y-107413392D01*
X169577485Y-107307224D01*
X169666160Y-107196997D01*
X169756414Y-107084876D01*
X169806056Y-107023244D01*
X169846507Y-106973024D01*
X169934698Y-106863604D01*
X170019246Y-106758778D01*
X170098408Y-106660711D01*
X170170444Y-106571566D01*
X170233613Y-106493505D01*
X170286173Y-106428692D01*
X170326383Y-106379290D01*
X170350000Y-106350487D01*
X170441710Y-106242778D01*
X170529940Y-106145580D01*
X170611597Y-106062076D01*
X170683590Y-105995448D01*
X170734681Y-105954599D01*
X170795093Y-105911135D01*
X169405702Y-105911135D01*
X169406092Y-105992666D01*
X169402209Y-106052606D01*
X169387610Y-106108177D01*
X169365012Y-106160855D01*
X169350322Y-106190615D01*
X169334528Y-106220103D01*
X169316186Y-106251276D01*
X169293855Y-106286093D01*
X169266091Y-106326510D01*
X169231451Y-106374486D01*
X169188493Y-106431978D01*
X169135773Y-106500943D01*
X169071849Y-106583339D01*
X168995279Y-106681124D01*
X168904619Y-106796255D01*
X168798426Y-106930690D01*
X168786432Y-106945859D01*
X168367675Y-107475412D01*
X168363622Y-106888922D01*
X168362805Y-106713251D01*
X168362979Y-106564532D01*
X168364151Y-106442275D01*
X168366331Y-106345989D01*
X168369526Y-106275183D01*
X168373744Y-106229369D01*
X168375162Y-106220679D01*
X168397409Y-106129135D01*
X168426557Y-106046608D01*
X168459818Y-105980253D01*
X168479800Y-105952110D01*
X168514278Y-105911135D01*
X167860086Y-105911135D01*
X167704031Y-105911269D01*
X167573533Y-105911703D01*
X167466690Y-105912489D01*
X167381602Y-105913676D01*
X167316365Y-105915317D01*
X167269079Y-105917461D01*
X167237843Y-105920159D01*
X167220754Y-105923462D01*
X167215912Y-105927421D01*
X167216247Y-105928298D01*
X167230115Y-105949231D01*
X167253268Y-105982412D01*
X167265246Y-105999193D01*
X167277631Y-106015940D01*
X167288763Y-106030915D01*
X167298712Y-106045594D01*
X167307549Y-106061449D01*
X167315343Y-106079955D01*
X167322165Y-106102585D01*
X167328084Y-106130813D01*
X167333171Y-106166113D01*
X167337496Y-106209958D01*
X167341129Y-106263822D01*
X167344140Y-106329180D01*
X167346599Y-106407504D01*
X167348577Y-106500268D01*
X167350142Y-106608947D01*
X167351366Y-106735013D01*
X167352319Y-106879942D01*
X167353070Y-107045206D01*
X167353689Y-107232279D01*
X167354248Y-107442635D01*
X167354815Y-107677748D01*
X167355345Y-107893741D01*
X167355845Y-108134535D01*
X167356105Y-108364274D01*
X167356132Y-108581493D01*
X167355933Y-108784722D01*
X167355514Y-108972496D01*
X167354882Y-109143345D01*
X167354044Y-109295803D01*
X167353008Y-109428403D01*
X167351780Y-109539676D01*
X167350367Y-109628156D01*
X167348775Y-109692375D01*
X167347013Y-109730865D01*
X167346679Y-109734933D01*
X167334534Y-109828248D01*
X167315573Y-109903190D01*
X167286698Y-109968594D01*
X167244810Y-110033293D01*
X167239571Y-110040352D01*
X167206116Y-110084973D01*
X166839685Y-110084973D01*
X166838946Y-110003479D01*
X166838107Y-109864090D01*
X166837502Y-109706539D01*
X166837095Y-109529691D01*
X166836850Y-109332410D01*
X166836733Y-109113560D01*
X166836705Y-108872007D01*
X166836733Y-108606615D01*
X166836780Y-108316249D01*
X166836810Y-107999773D01*
X166836811Y-107936946D01*
X166836828Y-107617137D01*
X166836888Y-107323661D01*
X166836998Y-107055390D01*
X166837167Y-106811198D01*
X166837403Y-106589957D01*
X166837716Y-106390540D01*
X166838115Y-106211820D01*
X166838607Y-106052671D01*
X166839203Y-105911966D01*
X166839910Y-105788576D01*
X166840737Y-105681376D01*
X166841693Y-105589238D01*
X166842787Y-105511035D01*
X166844027Y-105445641D01*
X166845422Y-105391928D01*
X166846982Y-105348769D01*
X166848714Y-105315037D01*
X166850628Y-105289605D01*
X166852732Y-105271347D01*
X166855034Y-105259134D01*
X166857545Y-105251841D01*
X166857637Y-105251659D01*
X166862808Y-105240518D01*
X166867115Y-105230431D01*
X166871879Y-105221346D01*
X166878422Y-105213212D01*
X166888065Y-105205976D01*
X166902129Y-105199586D01*
X166921937Y-105193989D01*
X166948809Y-105189133D01*
X166984067Y-105184966D01*
X167029032Y-105181436D01*
X167085026Y-105178491D01*
X167153371Y-105176077D01*
X167235386Y-105174144D01*
X167332395Y-105172638D01*
X167445718Y-105171508D01*
X167576677Y-105170702D01*
X167726593Y-105170166D01*
X167896787Y-105169849D01*
X168088582Y-105169699D01*
X168303298Y-105169663D01*
X168542257Y-105169689D01*
G37*
%TO.C,U1*%
D15*
X160620000Y-63250000D02*
X162000000Y-63250000D01*
X160620000Y-64630000D02*
X160620000Y-63250000D01*
X160620000Y-65900000D02*
X160620000Y-83790000D01*
X160620000Y-65900000D02*
X163380000Y-65900000D01*
X160620000Y-83790000D02*
X163380000Y-83790000D01*
X163380000Y-65900000D02*
X163380000Y-83790000D01*
%TD*%
M02*
